<?xml version="1.0" encoding="utf-8" standalone="no"?>
<!DOCTYPE svg PUBLIC "-//W3C//DTD SVG 1.1//EN"
  "http://www.w3.org/Graphics/SVG/1.1/DTD/svg11.dtd">
<!-- Created with matplotlib (https://matplotlib.org/) -->
<svg height="288pt" version="1.1" viewBox="0 0 864 288" width="864pt" xmlns="http://www.w3.org/2000/svg" xmlns:xlink="http://www.w3.org/1999/xlink">
 <defs>
  <style type="text/css">
*{stroke-linecap:butt;stroke-linejoin:round;}
  </style>
 </defs>
 <g id="figure_1">
  <g id="patch_1">
   <path d="M 0 288 
L 864 288 
L 864 0 
L 0 0 
z
" style="fill:#ffffff;"/>
  </g>
  <g id="axes_1">
   <g id="patch_2">
    <path d="M 108 252 
L 412.363636 252 
L 412.363636 34.56 
L 108 34.56 
z
" style="fill:#ffffff;"/>
   </g>
   <g id="patch_3">
    <path clip-path="url(#pbe63be687a)" d="M 108 252 
L 108 34.56 
L 226.212662 34.56 
L 226.212662 252 
z
" style="fill:#808080;opacity:0.5;stroke:#808080;stroke-linejoin:miter;"/>
   </g>
   <g id="patch_4">
    <path clip-path="url(#pbe63be687a)" d="M 226.212662 252 
L 226.212662 34.56 
L 289.259416 34.56 
L 289.259416 252 
z
" style="fill:#808080;opacity:0.2;stroke:#808080;stroke-linejoin:miter;"/>
   </g>
   <g id="patch_5">
    <path clip-path="url(#pbe63be687a)" d="M 289.259416 252 
L 289.259416 34.56 
L 337.35974 34.56 
L 337.35974 252 
z
" style="fill:#808080;opacity:0.5;stroke:#808080;stroke-linejoin:miter;"/>
   </g>
   <g id="patch_6">
    <path clip-path="url(#pbe63be687a)" d="M 337.35974 252 
L 337.35974 34.56 
L 387.905844 34.56 
L 387.905844 252 
z
" style="fill:#808080;opacity:0.2;stroke:#808080;stroke-linejoin:miter;"/>
   </g>
   <g id="patch_7">
    <path clip-path="url(#pbe63be687a)" d="M 387.905844 252 
L 387.905844 34.56 
L 526.771753 34.56 
L 526.771753 252 
z
" style="fill:#808080;opacity:0.5;stroke:#808080;stroke-linejoin:miter;"/>
   </g>
   <g id="matplotlib.axis_1">
    <g id="xtick_1">
     <g id="line2d_1">
      <defs>
       <path d="M 0 0 
L 0 3.5 
" id="m2c8391d9ef" style="stroke:#000000;stroke-width:0.8;"/>
      </defs>
      <g>
       <use style="stroke:#000000;stroke-width:0.8;" x="108" xlink:href="#m2c8391d9ef" y="252"/>
      </g>
     </g>
     <g id="text_1">
      <!-- 0 -->
      <defs>
       <path d="M 31.78125 66.40625 
Q 24.171875 66.40625 20.328125 58.90625 
Q 16.5 51.421875 16.5 36.375 
Q 16.5 21.390625 20.328125 13.890625 
Q 24.171875 6.390625 31.78125 6.390625 
Q 39.453125 6.390625 43.28125 13.890625 
Q 47.125 21.390625 47.125 36.375 
Q 47.125 51.421875 43.28125 58.90625 
Q 39.453125 66.40625 31.78125 66.40625 
z
M 31.78125 74.21875 
Q 44.046875 74.21875 50.515625 64.515625 
Q 56.984375 54.828125 56.984375 36.375 
Q 56.984375 17.96875 50.515625 8.265625 
Q 44.046875 -1.421875 31.78125 -1.421875 
Q 19.53125 -1.421875 13.0625 8.265625 
Q 6.59375 17.96875 6.59375 36.375 
Q 6.59375 54.828125 13.0625 64.515625 
Q 19.53125 74.21875 31.78125 74.21875 
z
" id="DejaVuSans-48"/>
      </defs>
      <g transform="translate(103.54625 269.637812)scale(0.14 -0.14)">
       <use xlink:href="#DejaVuSans-48"/>
      </g>
     </g>
    </g>
    <g id="xtick_2">
     <g id="line2d_2">
      <g>
       <use style="stroke:#000000;stroke-width:0.8;" x="146.045455" xlink:href="#m2c8391d9ef" y="252"/>
      </g>
     </g>
     <g id="text_2">
      <!-- 2 -->
      <defs>
       <path d="M 19.1875 8.296875 
L 53.609375 8.296875 
L 53.609375 0 
L 7.328125 0 
L 7.328125 8.296875 
Q 12.9375 14.109375 22.625 23.890625 
Q 32.328125 33.6875 34.8125 36.53125 
Q 39.546875 41.84375 41.421875 45.53125 
Q 43.3125 49.21875 43.3125 52.78125 
Q 43.3125 58.59375 39.234375 62.25 
Q 35.15625 65.921875 28.609375 65.921875 
Q 23.96875 65.921875 18.8125 64.3125 
Q 13.671875 62.703125 7.8125 59.421875 
L 7.8125 69.390625 
Q 13.765625 71.78125 18.9375 73 
Q 24.125 74.21875 28.421875 74.21875 
Q 39.75 74.21875 46.484375 68.546875 
Q 53.21875 62.890625 53.21875 53.421875 
Q 53.21875 48.921875 51.53125 44.890625 
Q 49.859375 40.875 45.40625 35.40625 
Q 44.1875 33.984375 37.640625 27.21875 
Q 31.109375 20.453125 19.1875 8.296875 
z
" id="DejaVuSans-50"/>
      </defs>
      <g transform="translate(141.591705 269.637812)scale(0.14 -0.14)">
       <use xlink:href="#DejaVuSans-50"/>
      </g>
     </g>
    </g>
    <g id="xtick_3">
     <g id="line2d_3">
      <g>
       <use style="stroke:#000000;stroke-width:0.8;" x="184.090909" xlink:href="#m2c8391d9ef" y="252"/>
      </g>
     </g>
     <g id="text_3">
      <!-- 4 -->
      <defs>
       <path d="M 37.796875 64.3125 
L 12.890625 25.390625 
L 37.796875 25.390625 
z
M 35.203125 72.90625 
L 47.609375 72.90625 
L 47.609375 25.390625 
L 58.015625 25.390625 
L 58.015625 17.1875 
L 47.609375 17.1875 
L 47.609375 0 
L 37.796875 0 
L 37.796875 17.1875 
L 4.890625 17.1875 
L 4.890625 26.703125 
z
" id="DejaVuSans-52"/>
      </defs>
      <g transform="translate(179.637159 269.637812)scale(0.14 -0.14)">
       <use xlink:href="#DejaVuSans-52"/>
      </g>
     </g>
    </g>
    <g id="xtick_4">
     <g id="line2d_4">
      <g>
       <use style="stroke:#000000;stroke-width:0.8;" x="222.136364" xlink:href="#m2c8391d9ef" y="252"/>
      </g>
     </g>
     <g id="text_4">
      <!-- 6 -->
      <defs>
       <path d="M 33.015625 40.375 
Q 26.375 40.375 22.484375 35.828125 
Q 18.609375 31.296875 18.609375 23.390625 
Q 18.609375 15.53125 22.484375 10.953125 
Q 26.375 6.390625 33.015625 6.390625 
Q 39.65625 6.390625 43.53125 10.953125 
Q 47.40625 15.53125 47.40625 23.390625 
Q 47.40625 31.296875 43.53125 35.828125 
Q 39.65625 40.375 33.015625 40.375 
z
M 52.59375 71.296875 
L 52.59375 62.3125 
Q 48.875 64.0625 45.09375 64.984375 
Q 41.3125 65.921875 37.59375 65.921875 
Q 27.828125 65.921875 22.671875 59.328125 
Q 17.53125 52.734375 16.796875 39.40625 
Q 19.671875 43.65625 24.015625 45.921875 
Q 28.375 48.1875 33.59375 48.1875 
Q 44.578125 48.1875 50.953125 41.515625 
Q 57.328125 34.859375 57.328125 23.390625 
Q 57.328125 12.15625 50.6875 5.359375 
Q 44.046875 -1.421875 33.015625 -1.421875 
Q 20.359375 -1.421875 13.671875 8.265625 
Q 6.984375 17.96875 6.984375 36.375 
Q 6.984375 53.65625 15.1875 63.9375 
Q 23.390625 74.21875 37.203125 74.21875 
Q 40.921875 74.21875 44.703125 73.484375 
Q 48.484375 72.75 52.59375 71.296875 
z
" id="DejaVuSans-54"/>
      </defs>
      <g transform="translate(217.682614 269.637812)scale(0.14 -0.14)">
       <use xlink:href="#DejaVuSans-54"/>
      </g>
     </g>
    </g>
    <g id="xtick_5">
     <g id="line2d_5">
      <g>
       <use style="stroke:#000000;stroke-width:0.8;" x="260.181818" xlink:href="#m2c8391d9ef" y="252"/>
      </g>
     </g>
     <g id="text_5">
      <!-- 8 -->
      <defs>
       <path d="M 31.78125 34.625 
Q 24.75 34.625 20.71875 30.859375 
Q 16.703125 27.09375 16.703125 20.515625 
Q 16.703125 13.921875 20.71875 10.15625 
Q 24.75 6.390625 31.78125 6.390625 
Q 38.8125 6.390625 42.859375 10.171875 
Q 46.921875 13.96875 46.921875 20.515625 
Q 46.921875 27.09375 42.890625 30.859375 
Q 38.875 34.625 31.78125 34.625 
z
M 21.921875 38.8125 
Q 15.578125 40.375 12.03125 44.71875 
Q 8.5 49.078125 8.5 55.328125 
Q 8.5 64.0625 14.71875 69.140625 
Q 20.953125 74.21875 31.78125 74.21875 
Q 42.671875 74.21875 48.875 69.140625 
Q 55.078125 64.0625 55.078125 55.328125 
Q 55.078125 49.078125 51.53125 44.71875 
Q 48 40.375 41.703125 38.8125 
Q 48.828125 37.15625 52.796875 32.3125 
Q 56.78125 27.484375 56.78125 20.515625 
Q 56.78125 9.90625 50.3125 4.234375 
Q 43.84375 -1.421875 31.78125 -1.421875 
Q 19.734375 -1.421875 13.25 4.234375 
Q 6.78125 9.90625 6.78125 20.515625 
Q 6.78125 27.484375 10.78125 32.3125 
Q 14.796875 37.15625 21.921875 38.8125 
z
M 18.3125 54.390625 
Q 18.3125 48.734375 21.84375 45.5625 
Q 25.390625 42.390625 31.78125 42.390625 
Q 38.140625 42.390625 41.71875 45.5625 
Q 45.3125 48.734375 45.3125 54.390625 
Q 45.3125 60.0625 41.71875 63.234375 
Q 38.140625 66.40625 31.78125 66.40625 
Q 25.390625 66.40625 21.84375 63.234375 
Q 18.3125 60.0625 18.3125 54.390625 
z
" id="DejaVuSans-56"/>
      </defs>
      <g transform="translate(255.728068 269.637812)scale(0.14 -0.14)">
       <use xlink:href="#DejaVuSans-56"/>
      </g>
     </g>
    </g>
    <g id="xtick_6">
     <g id="line2d_6">
      <g>
       <use style="stroke:#000000;stroke-width:0.8;" x="298.227273" xlink:href="#m2c8391d9ef" y="252"/>
      </g>
     </g>
     <g id="text_6">
      <!-- 10 -->
      <defs>
       <path d="M 12.40625 8.296875 
L 28.515625 8.296875 
L 28.515625 63.921875 
L 10.984375 60.40625 
L 10.984375 69.390625 
L 28.421875 72.90625 
L 38.28125 72.90625 
L 38.28125 8.296875 
L 54.390625 8.296875 
L 54.390625 0 
L 12.40625 0 
z
" id="DejaVuSans-49"/>
      </defs>
      <g transform="translate(289.319773 269.637812)scale(0.14 -0.14)">
       <use xlink:href="#DejaVuSans-49"/>
       <use x="63.623047" xlink:href="#DejaVuSans-48"/>
      </g>
     </g>
    </g>
    <g id="xtick_7">
     <g id="line2d_7">
      <g>
       <use style="stroke:#000000;stroke-width:0.8;" x="336.272727" xlink:href="#m2c8391d9ef" y="252"/>
      </g>
     </g>
     <g id="text_7">
      <!-- 12 -->
      <g transform="translate(327.365227 269.637812)scale(0.14 -0.14)">
       <use xlink:href="#DejaVuSans-49"/>
       <use x="63.623047" xlink:href="#DejaVuSans-50"/>
      </g>
     </g>
    </g>
    <g id="xtick_8">
     <g id="line2d_8">
      <g>
       <use style="stroke:#000000;stroke-width:0.8;" x="374.318182" xlink:href="#m2c8391d9ef" y="252"/>
      </g>
     </g>
     <g id="text_8">
      <!-- 14 -->
      <g transform="translate(365.410682 269.637812)scale(0.14 -0.14)">
       <use xlink:href="#DejaVuSans-49"/>
       <use x="63.623047" xlink:href="#DejaVuSans-52"/>
      </g>
     </g>
    </g>
    <g id="xtick_9">
     <g id="line2d_9">
      <g>
       <use style="stroke:#000000;stroke-width:0.8;" x="412.363636" xlink:href="#m2c8391d9ef" y="252"/>
      </g>
     </g>
     <g id="text_9">
      <!-- 16 -->
      <g transform="translate(403.456136 269.637812)scale(0.14 -0.14)">
       <use xlink:href="#DejaVuSans-49"/>
       <use x="63.623047" xlink:href="#DejaVuSans-54"/>
      </g>
     </g>
    </g>
    <g id="text_10">
     <!-- weeks -->
     <defs>
      <path d="M 4.203125 54.6875 
L 13.1875 54.6875 
L 24.421875 12.015625 
L 35.59375 54.6875 
L 46.1875 54.6875 
L 57.421875 12.015625 
L 68.609375 54.6875 
L 77.59375 54.6875 
L 63.28125 0 
L 52.6875 0 
L 40.921875 44.828125 
L 29.109375 0 
L 18.5 0 
z
" id="DejaVuSans-119"/>
      <path d="M 56.203125 29.59375 
L 56.203125 25.203125 
L 14.890625 25.203125 
Q 15.484375 15.921875 20.484375 11.0625 
Q 25.484375 6.203125 34.421875 6.203125 
Q 39.59375 6.203125 44.453125 7.46875 
Q 49.3125 8.734375 54.109375 11.28125 
L 54.109375 2.78125 
Q 49.265625 0.734375 44.1875 -0.34375 
Q 39.109375 -1.421875 33.890625 -1.421875 
Q 20.796875 -1.421875 13.15625 6.1875 
Q 5.515625 13.8125 5.515625 26.8125 
Q 5.515625 40.234375 12.765625 48.109375 
Q 20.015625 56 32.328125 56 
Q 43.359375 56 49.78125 48.890625 
Q 56.203125 41.796875 56.203125 29.59375 
z
M 47.21875 32.234375 
Q 47.125 39.59375 43.09375 43.984375 
Q 39.0625 48.390625 32.421875 48.390625 
Q 24.90625 48.390625 20.390625 44.140625 
Q 15.875 39.890625 15.1875 32.171875 
z
" id="DejaVuSans-101"/>
      <path d="M 9.078125 75.984375 
L 18.109375 75.984375 
L 18.109375 31.109375 
L 44.921875 54.6875 
L 56.390625 54.6875 
L 27.390625 29.109375 
L 57.625 0 
L 45.90625 0 
L 18.109375 26.703125 
L 18.109375 0 
L 9.078125 0 
z
" id="DejaVuSans-107"/>
      <path d="M 44.28125 53.078125 
L 44.28125 44.578125 
Q 40.484375 46.53125 36.375 47.5 
Q 32.28125 48.484375 27.875 48.484375 
Q 21.1875 48.484375 17.84375 46.4375 
Q 14.5 44.390625 14.5 40.28125 
Q 14.5 37.15625 16.890625 35.375 
Q 19.28125 33.59375 26.515625 31.984375 
L 29.59375 31.296875 
Q 39.15625 29.25 43.1875 25.515625 
Q 47.21875 21.78125 47.21875 15.09375 
Q 47.21875 7.46875 41.1875 3.015625 
Q 35.15625 -1.421875 24.609375 -1.421875 
Q 20.21875 -1.421875 15.453125 -0.5625 
Q 10.6875 0.296875 5.421875 2 
L 5.421875 11.28125 
Q 10.40625 8.6875 15.234375 7.390625 
Q 20.0625 6.109375 24.8125 6.109375 
Q 31.15625 6.109375 34.5625 8.28125 
Q 37.984375 10.453125 37.984375 14.40625 
Q 37.984375 18.0625 35.515625 20.015625 
Q 33.0625 21.96875 24.703125 23.78125 
L 21.578125 24.515625 
Q 13.234375 26.265625 9.515625 29.90625 
Q 5.8125 33.546875 5.8125 39.890625 
Q 5.8125 47.609375 11.28125 51.796875 
Q 16.75 56 26.8125 56 
Q 31.78125 56 36.171875 55.265625 
Q 40.578125 54.546875 44.28125 53.078125 
z
" id="DejaVuSans-115"/>
     </defs>
     <g transform="translate(238.142756 287.187187)scale(0.14 -0.14)">
      <use xlink:href="#DejaVuSans-119"/>
      <use x="81.787109" xlink:href="#DejaVuSans-101"/>
      <use x="143.310547" xlink:href="#DejaVuSans-101"/>
      <use x="204.833984" xlink:href="#DejaVuSans-107"/>
      <use x="262.744141" xlink:href="#DejaVuSans-115"/>
     </g>
    </g>
   </g>
   <g id="matplotlib.axis_2">
    <g id="text_11">
     <!-- number of cases -->
     <defs>
      <path d="M 54.890625 33.015625 
L 54.890625 0 
L 45.90625 0 
L 45.90625 32.71875 
Q 45.90625 40.484375 42.875 44.328125 
Q 39.84375 48.1875 33.796875 48.1875 
Q 26.515625 48.1875 22.3125 43.546875 
Q 18.109375 38.921875 18.109375 30.90625 
L 18.109375 0 
L 9.078125 0 
L 9.078125 54.6875 
L 18.109375 54.6875 
L 18.109375 46.1875 
Q 21.34375 51.125 25.703125 53.5625 
Q 30.078125 56 35.796875 56 
Q 45.21875 56 50.046875 50.171875 
Q 54.890625 44.34375 54.890625 33.015625 
z
" id="DejaVuSans-110"/>
      <path d="M 8.5 21.578125 
L 8.5 54.6875 
L 17.484375 54.6875 
L 17.484375 21.921875 
Q 17.484375 14.15625 20.5 10.265625 
Q 23.53125 6.390625 29.59375 6.390625 
Q 36.859375 6.390625 41.078125 11.03125 
Q 45.3125 15.671875 45.3125 23.6875 
L 45.3125 54.6875 
L 54.296875 54.6875 
L 54.296875 0 
L 45.3125 0 
L 45.3125 8.40625 
Q 42.046875 3.421875 37.71875 1 
Q 33.40625 -1.421875 27.6875 -1.421875 
Q 18.265625 -1.421875 13.375 4.4375 
Q 8.5 10.296875 8.5 21.578125 
z
M 31.109375 56 
z
" id="DejaVuSans-117"/>
      <path d="M 52 44.1875 
Q 55.375 50.25 60.0625 53.125 
Q 64.75 56 71.09375 56 
Q 79.640625 56 84.28125 50.015625 
Q 88.921875 44.046875 88.921875 33.015625 
L 88.921875 0 
L 79.890625 0 
L 79.890625 32.71875 
Q 79.890625 40.578125 77.09375 44.375 
Q 74.3125 48.1875 68.609375 48.1875 
Q 61.625 48.1875 57.5625 43.546875 
Q 53.515625 38.921875 53.515625 30.90625 
L 53.515625 0 
L 44.484375 0 
L 44.484375 32.71875 
Q 44.484375 40.625 41.703125 44.40625 
Q 38.921875 48.1875 33.109375 48.1875 
Q 26.21875 48.1875 22.15625 43.53125 
Q 18.109375 38.875 18.109375 30.90625 
L 18.109375 0 
L 9.078125 0 
L 9.078125 54.6875 
L 18.109375 54.6875 
L 18.109375 46.1875 
Q 21.1875 51.21875 25.484375 53.609375 
Q 29.78125 56 35.6875 56 
Q 41.65625 56 45.828125 52.96875 
Q 50 49.953125 52 44.1875 
z
" id="DejaVuSans-109"/>
      <path d="M 48.6875 27.296875 
Q 48.6875 37.203125 44.609375 42.84375 
Q 40.53125 48.484375 33.40625 48.484375 
Q 26.265625 48.484375 22.1875 42.84375 
Q 18.109375 37.203125 18.109375 27.296875 
Q 18.109375 17.390625 22.1875 11.75 
Q 26.265625 6.109375 33.40625 6.109375 
Q 40.53125 6.109375 44.609375 11.75 
Q 48.6875 17.390625 48.6875 27.296875 
z
M 18.109375 46.390625 
Q 20.953125 51.265625 25.265625 53.625 
Q 29.59375 56 35.59375 56 
Q 45.5625 56 51.78125 48.09375 
Q 58.015625 40.1875 58.015625 27.296875 
Q 58.015625 14.40625 51.78125 6.484375 
Q 45.5625 -1.421875 35.59375 -1.421875 
Q 29.59375 -1.421875 25.265625 0.953125 
Q 20.953125 3.328125 18.109375 8.203125 
L 18.109375 0 
L 9.078125 0 
L 9.078125 75.984375 
L 18.109375 75.984375 
z
" id="DejaVuSans-98"/>
      <path d="M 41.109375 46.296875 
Q 39.59375 47.171875 37.8125 47.578125 
Q 36.03125 48 33.890625 48 
Q 26.265625 48 22.1875 43.046875 
Q 18.109375 38.09375 18.109375 28.8125 
L 18.109375 0 
L 9.078125 0 
L 9.078125 54.6875 
L 18.109375 54.6875 
L 18.109375 46.1875 
Q 20.953125 51.171875 25.484375 53.578125 
Q 30.03125 56 36.53125 56 
Q 37.453125 56 38.578125 55.875 
Q 39.703125 55.765625 41.0625 55.515625 
z
" id="DejaVuSans-114"/>
      <path id="DejaVuSans-32"/>
      <path d="M 30.609375 48.390625 
Q 23.390625 48.390625 19.1875 42.75 
Q 14.984375 37.109375 14.984375 27.296875 
Q 14.984375 17.484375 19.15625 11.84375 
Q 23.34375 6.203125 30.609375 6.203125 
Q 37.796875 6.203125 41.984375 11.859375 
Q 46.1875 17.53125 46.1875 27.296875 
Q 46.1875 37.015625 41.984375 42.703125 
Q 37.796875 48.390625 30.609375 48.390625 
z
M 30.609375 56 
Q 42.328125 56 49.015625 48.375 
Q 55.71875 40.765625 55.71875 27.296875 
Q 55.71875 13.875 49.015625 6.21875 
Q 42.328125 -1.421875 30.609375 -1.421875 
Q 18.84375 -1.421875 12.171875 6.21875 
Q 5.515625 13.875 5.515625 27.296875 
Q 5.515625 40.765625 12.171875 48.375 
Q 18.84375 56 30.609375 56 
z
" id="DejaVuSans-111"/>
      <path d="M 37.109375 75.984375 
L 37.109375 68.5 
L 28.515625 68.5 
Q 23.6875 68.5 21.796875 66.546875 
Q 19.921875 64.59375 19.921875 59.515625 
L 19.921875 54.6875 
L 34.71875 54.6875 
L 34.71875 47.703125 
L 19.921875 47.703125 
L 19.921875 0 
L 10.890625 0 
L 10.890625 47.703125 
L 2.296875 47.703125 
L 2.296875 54.6875 
L 10.890625 54.6875 
L 10.890625 58.5 
Q 10.890625 67.625 15.140625 71.796875 
Q 19.390625 75.984375 28.609375 75.984375 
z
" id="DejaVuSans-102"/>
      <path d="M 48.78125 52.59375 
L 48.78125 44.1875 
Q 44.96875 46.296875 41.140625 47.34375 
Q 37.3125 48.390625 33.40625 48.390625 
Q 24.65625 48.390625 19.8125 42.84375 
Q 14.984375 37.3125 14.984375 27.296875 
Q 14.984375 17.28125 19.8125 11.734375 
Q 24.65625 6.203125 33.40625 6.203125 
Q 37.3125 6.203125 41.140625 7.25 
Q 44.96875 8.296875 48.78125 10.40625 
L 48.78125 2.09375 
Q 45.015625 0.34375 40.984375 -0.53125 
Q 36.96875 -1.421875 32.421875 -1.421875 
Q 20.0625 -1.421875 12.78125 6.34375 
Q 5.515625 14.109375 5.515625 27.296875 
Q 5.515625 40.671875 12.859375 48.328125 
Q 20.21875 56 33.015625 56 
Q 37.15625 56 41.109375 55.140625 
Q 45.0625 54.296875 48.78125 52.59375 
z
" id="DejaVuSans-99"/>
      <path d="M 34.28125 27.484375 
Q 23.390625 27.484375 19.1875 25 
Q 14.984375 22.515625 14.984375 16.5 
Q 14.984375 11.71875 18.140625 8.90625 
Q 21.296875 6.109375 26.703125 6.109375 
Q 34.1875 6.109375 38.703125 11.40625 
Q 43.21875 16.703125 43.21875 25.484375 
L 43.21875 27.484375 
z
M 52.203125 31.203125 
L 52.203125 0 
L 43.21875 0 
L 43.21875 8.296875 
Q 40.140625 3.328125 35.546875 0.953125 
Q 30.953125 -1.421875 24.3125 -1.421875 
Q 15.921875 -1.421875 10.953125 3.296875 
Q 6 8.015625 6 15.921875 
Q 6 25.140625 12.171875 29.828125 
Q 18.359375 34.515625 30.609375 34.515625 
L 43.21875 34.515625 
L 43.21875 35.40625 
Q 43.21875 41.609375 39.140625 45 
Q 35.0625 48.390625 27.6875 48.390625 
Q 23 48.390625 18.546875 47.265625 
Q 14.109375 46.140625 10.015625 43.890625 
L 10.015625 52.203125 
Q 14.9375 54.109375 19.578125 55.046875 
Q 24.21875 56 28.609375 56 
Q 40.484375 56 46.34375 49.84375 
Q 52.203125 43.703125 52.203125 31.203125 
z
" id="DejaVuSans-97"/>
     </defs>
     <g transform="translate(101.088437 201.535313)rotate(-90)scale(0.14 -0.14)">
      <use xlink:href="#DejaVuSans-110"/>
      <use x="63.378906" xlink:href="#DejaVuSans-117"/>
      <use x="126.757812" xlink:href="#DejaVuSans-109"/>
      <use x="224.169922" xlink:href="#DejaVuSans-98"/>
      <use x="287.646484" xlink:href="#DejaVuSans-101"/>
      <use x="349.169922" xlink:href="#DejaVuSans-114"/>
      <use x="390.283203" xlink:href="#DejaVuSans-32"/>
      <use x="422.070312" xlink:href="#DejaVuSans-111"/>
      <use x="483.251953" xlink:href="#DejaVuSans-102"/>
      <use x="518.457031" xlink:href="#DejaVuSans-32"/>
      <use x="550.244141" xlink:href="#DejaVuSans-99"/>
      <use x="605.224609" xlink:href="#DejaVuSans-97"/>
      <use x="666.503906" xlink:href="#DejaVuSans-115"/>
      <use x="718.603516" xlink:href="#DejaVuSans-101"/>
      <use x="780.126953" xlink:href="#DejaVuSans-115"/>
     </g>
    </g>
   </g>
   <g id="line2d_10">
    <path clip-path="url(#pbe63be687a)" d="M 149.38981 -1 
L 152.024026 17.619922 
L 154.741558 35.393495 
L 157.459091 51.820268 
L 160.176623 67.00191 
L 162.894156 81.032488 
L 165.611688 93.999089 
L 168.329221 105.982308 
L 171.046753 117.056688 
L 174.036039 128.270895 
L 177.025325 138.553159 
L 180.01461 147.98093 
L 183.003896 156.625224 
L 185.993182 164.55115 
L 188.982468 171.818407 
L 191.971753 178.481735 
L 194.961039 184.59132 
L 197.950325 190.193181 
L 200.93961 195.32951 
L 203.928896 200.038995 
L 206.918182 204.357109 
L 210.179221 208.659564 
L 213.44026 212.57348 
L 216.701299 216.133944 
L 219.962338 219.372877 
L 223.49513 222.552492 
L 227.027922 225.419522 
L 228.386688 226.322694 
L 229.473701 226.810596 
L 230.560714 227.057771 
L 231.647727 227.071524 
L 232.73474 226.87734 
L 234.093506 226.392636 
L 235.724026 225.541368 
L 237.898052 224.100024 
L 240.615584 222.007287 
L 244.148377 219.001606 
L 247.952922 215.467409 
L 251.485714 211.878299 
L 254.746753 208.262605 
L 258.007792 204.322707 
L 261.268831 200.027472 
L 264.52987 195.34474 
L 267.790909 190.239824 
L 270.780195 185.157156 
L 273.769481 179.656194 
L 276.758766 173.702527 
L 279.748052 167.258898 
L 282.737338 160.284983 
L 285.726623 152.737139 
L 288.715909 144.568132 
L 291.433442 137.079828 
L 292.248701 135.43517 
L 293.063961 134.26348 
L 293.607468 133.758642 
L 294.150974 133.473928 
L 294.694481 133.402738 
L 295.237987 133.534749 
L 295.781494 133.857011 
L 296.596753 134.664727 
L 297.412013 135.814116 
L 298.499026 137.784847 
L 299.857792 140.782728 
L 301.760065 145.613629 
L 311.271429 170.750905 
L 314.260714 177.574872 
L 317.25 183.801147 
L 320.239286 189.486982 
L 323.228571 194.68808 
L 326.217857 199.451902 
L 329.207143 203.818336 
L 332.196429 207.821766 
L 335.457468 211.810918 
L 338.446753 215.135893 
L 339.533766 216.117082 
L 340.620779 216.79888 
L 341.436039 217.089486 
L 342.251299 217.192828 
L 343.338312 217.061363 
L 344.425325 216.661774 
L 345.784091 215.857589 
L 347.41461 214.55942 
L 349.316883 212.734949 
L 352.034416 209.777221 
L 355.295455 205.886137 
L 358.828247 201.315063 
L 362.089286 196.732835 
L 365.350325 191.751244 
L 368.33961 186.794307 
L 371.328896 181.429277 
L 374.318182 175.622121 
L 377.307468 169.336657 
L 380.296753 162.533755 
L 383.286039 155.170956 
L 386.275325 147.202224 
L 390.351623 136.026996 
L 391.166883 134.528784 
L 391.982143 133.518108 
L 392.525649 133.122322 
L 393.069156 132.944758 
L 393.612662 132.976772 
L 394.156169 133.206556 
L 394.971429 133.891106 
L 395.786688 134.936744 
L 396.873701 136.798749 
L 398.232468 139.70406 
L 399.862987 143.756208 
L 402.852273 151.903935 
L 407.200325 163.654723 
L 410.18961 171.079453 
L 412.63539 176.684279 
L 412.63539 176.684279 
" style="fill:none;stroke:#ff4500;stroke-linecap:square;stroke-width:2;"/>
   </g>
   <g id="patch_8">
    <path d="M 108 252 
L 108 34.56 
" style="fill:none;stroke:#000000;stroke-linecap:square;stroke-linejoin:miter;stroke-width:0.8;"/>
   </g>
   <g id="patch_9">
    <path d="M 412.363636 252 
L 412.363636 34.56 
" style="fill:none;stroke:#000000;stroke-linecap:square;stroke-linejoin:miter;stroke-width:0.8;"/>
   </g>
   <g id="patch_10">
    <path d="M 108 252 
L 412.363636 252 
" style="fill:none;stroke:#000000;stroke-linecap:square;stroke-linejoin:miter;stroke-width:0.8;"/>
   </g>
   <g id="patch_11">
    <path d="M 108 34.56 
L 412.363636 34.56 
" style="fill:none;stroke:#000000;stroke-linecap:square;stroke-linejoin:miter;stroke-width:0.8;"/>
   </g>
   <g id="text_12">
    <g id="patch_12">
     <path d="M 228.946494 112.199562 
L 392.374619 112.199562 
L 392.374619 59.176312 
L 228.946494 59.176312 
z
" style="fill:#cfdeff;opacity:0.5;"/>
    </g>
    <!-- next lockdown timing  -->
    <defs>
     <path d="M 54.890625 54.6875 
L 35.109375 28.078125 
L 55.90625 0 
L 45.3125 0 
L 29.390625 21.484375 
L 13.484375 0 
L 2.875 0 
L 24.125 28.609375 
L 4.6875 54.6875 
L 15.28125 54.6875 
L 29.78125 35.203125 
L 44.28125 54.6875 
z
" id="DejaVuSans-120"/>
     <path d="M 18.3125 70.21875 
L 18.3125 54.6875 
L 36.8125 54.6875 
L 36.8125 47.703125 
L 18.3125 47.703125 
L 18.3125 18.015625 
Q 18.3125 11.328125 20.140625 9.421875 
Q 21.96875 7.515625 27.59375 7.515625 
L 36.8125 7.515625 
L 36.8125 0 
L 27.59375 0 
Q 17.1875 0 13.234375 3.875 
Q 9.28125 7.765625 9.28125 18.015625 
L 9.28125 47.703125 
L 2.6875 47.703125 
L 2.6875 54.6875 
L 9.28125 54.6875 
L 9.28125 70.21875 
z
" id="DejaVuSans-116"/>
     <path d="M 9.421875 75.984375 
L 18.40625 75.984375 
L 18.40625 0 
L 9.421875 0 
z
" id="DejaVuSans-108"/>
     <path d="M 45.40625 46.390625 
L 45.40625 75.984375 
L 54.390625 75.984375 
L 54.390625 0 
L 45.40625 0 
L 45.40625 8.203125 
Q 42.578125 3.328125 38.25 0.953125 
Q 33.9375 -1.421875 27.875 -1.421875 
Q 17.96875 -1.421875 11.734375 6.484375 
Q 5.515625 14.40625 5.515625 27.296875 
Q 5.515625 40.1875 11.734375 48.09375 
Q 17.96875 56 27.875 56 
Q 33.9375 56 38.25 53.625 
Q 42.578125 51.265625 45.40625 46.390625 
z
M 14.796875 27.296875 
Q 14.796875 17.390625 18.875 11.75 
Q 22.953125 6.109375 30.078125 6.109375 
Q 37.203125 6.109375 41.296875 11.75 
Q 45.40625 17.390625 45.40625 27.296875 
Q 45.40625 37.203125 41.296875 42.84375 
Q 37.203125 48.484375 30.078125 48.484375 
Q 22.953125 48.484375 18.875 42.84375 
Q 14.796875 37.203125 14.796875 27.296875 
z
" id="DejaVuSans-100"/>
     <path d="M 9.421875 54.6875 
L 18.40625 54.6875 
L 18.40625 0 
L 9.421875 0 
z
M 9.421875 75.984375 
L 18.40625 75.984375 
L 18.40625 64.59375 
L 9.421875 64.59375 
z
" id="DejaVuSans-105"/>
     <path d="M 45.40625 27.984375 
Q 45.40625 37.75 41.375 43.109375 
Q 37.359375 48.484375 30.078125 48.484375 
Q 22.859375 48.484375 18.828125 43.109375 
Q 14.796875 37.75 14.796875 27.984375 
Q 14.796875 18.265625 18.828125 12.890625 
Q 22.859375 7.515625 30.078125 7.515625 
Q 37.359375 7.515625 41.375 12.890625 
Q 45.40625 18.265625 45.40625 27.984375 
z
M 54.390625 6.78125 
Q 54.390625 -7.171875 48.1875 -13.984375 
Q 42 -20.796875 29.203125 -20.796875 
Q 24.46875 -20.796875 20.265625 -20.09375 
Q 16.0625 -19.390625 12.109375 -17.921875 
L 12.109375 -9.1875 
Q 16.0625 -11.328125 19.921875 -12.34375 
Q 23.78125 -13.375 27.78125 -13.375 
Q 36.625 -13.375 41.015625 -8.765625 
Q 45.40625 -4.15625 45.40625 5.171875 
L 45.40625 9.625 
Q 42.625 4.78125 38.28125 2.390625 
Q 33.9375 0 27.875 0 
Q 17.828125 0 11.671875 7.65625 
Q 5.515625 15.328125 5.515625 27.984375 
Q 5.515625 40.671875 11.671875 48.328125 
Q 17.828125 56 27.875 56 
Q 33.9375 56 38.28125 53.609375 
Q 42.625 51.21875 45.40625 46.390625 
L 45.40625 54.6875 
L 54.390625 54.6875 
z
" id="DejaVuSans-103"/>
    </defs>
    <g transform="translate(233.006494 73.874125)scale(0.14 -0.14)">
     <use xlink:href="#DejaVuSans-110"/>
     <use x="63.378906" xlink:href="#DejaVuSans-101"/>
     <use x="124.886719" xlink:href="#DejaVuSans-120"/>
     <use x="184.066406" xlink:href="#DejaVuSans-116"/>
     <use x="223.275391" xlink:href="#DejaVuSans-32"/>
     <use x="255.0625" xlink:href="#DejaVuSans-108"/>
     <use x="282.845703" xlink:href="#DejaVuSans-111"/>
     <use x="344.027344" xlink:href="#DejaVuSans-99"/>
     <use x="399.007812" xlink:href="#DejaVuSans-107"/>
     <use x="456.917969" xlink:href="#DejaVuSans-100"/>
     <use x="520.394531" xlink:href="#DejaVuSans-111"/>
     <use x="581.576172" xlink:href="#DejaVuSans-119"/>
     <use x="663.363281" xlink:href="#DejaVuSans-110"/>
     <use x="726.742188" xlink:href="#DejaVuSans-32"/>
     <use x="758.529297" xlink:href="#DejaVuSans-116"/>
     <use x="797.738281" xlink:href="#DejaVuSans-105"/>
     <use x="825.521484" xlink:href="#DejaVuSans-109"/>
     <use x="922.933594" xlink:href="#DejaVuSans-105"/>
     <use x="950.716797" xlink:href="#DejaVuSans-110"/>
     <use x="1014.095703" xlink:href="#DejaVuSans-103"/>
     <use x="1077.572266" xlink:href="#DejaVuSans-32"/>
    </g>
    <!-- and duration -->
    <g transform="translate(265.810244 89.551062)scale(0.14 -0.14)">
     <use xlink:href="#DejaVuSans-97"/>
     <use x="61.279297" xlink:href="#DejaVuSans-110"/>
     <use x="124.658203" xlink:href="#DejaVuSans-100"/>
     <use x="188.134766" xlink:href="#DejaVuSans-32"/>
     <use x="219.921875" xlink:href="#DejaVuSans-100"/>
     <use x="283.398438" xlink:href="#DejaVuSans-117"/>
     <use x="346.777344" xlink:href="#DejaVuSans-114"/>
     <use x="387.890625" xlink:href="#DejaVuSans-97"/>
     <use x="449.169922" xlink:href="#DejaVuSans-116"/>
     <use x="488.378906" xlink:href="#DejaVuSans-105"/>
     <use x="516.162109" xlink:href="#DejaVuSans-111"/>
     <use x="577.34375" xlink:href="#DejaVuSans-110"/>
    </g>
    <!-- unpredictable -->
    <defs>
     <path d="M 18.109375 8.203125 
L 18.109375 -20.796875 
L 9.078125 -20.796875 
L 9.078125 54.6875 
L 18.109375 54.6875 
L 18.109375 46.390625 
Q 20.953125 51.265625 25.265625 53.625 
Q 29.59375 56 35.59375 56 
Q 45.5625 56 51.78125 48.09375 
Q 58.015625 40.1875 58.015625 27.296875 
Q 58.015625 14.40625 51.78125 6.484375 
Q 45.5625 -1.421875 35.59375 -1.421875 
Q 29.59375 -1.421875 25.265625 0.953125 
Q 20.953125 3.328125 18.109375 8.203125 
z
M 48.6875 27.296875 
Q 48.6875 37.203125 44.609375 42.84375 
Q 40.53125 48.484375 33.40625 48.484375 
Q 26.265625 48.484375 22.1875 42.84375 
Q 18.109375 37.203125 18.109375 27.296875 
Q 18.109375 17.390625 22.1875 11.75 
Q 26.265625 6.109375 33.40625 6.109375 
Q 40.53125 6.109375 44.609375 11.75 
Q 48.6875 17.390625 48.6875 27.296875 
z
" id="DejaVuSans-112"/>
    </defs>
    <g transform="translate(262.194306 105.228)scale(0.14 -0.14)">
     <use xlink:href="#DejaVuSans-117"/>
     <use x="63.378906" xlink:href="#DejaVuSans-110"/>
     <use x="126.757812" xlink:href="#DejaVuSans-112"/>
     <use x="190.234375" xlink:href="#DejaVuSans-114"/>
     <use x="231.316406" xlink:href="#DejaVuSans-101"/>
     <use x="292.839844" xlink:href="#DejaVuSans-100"/>
     <use x="356.316406" xlink:href="#DejaVuSans-105"/>
     <use x="384.099609" xlink:href="#DejaVuSans-99"/>
     <use x="439.080078" xlink:href="#DejaVuSans-116"/>
     <use x="478.289062" xlink:href="#DejaVuSans-97"/>
     <use x="539.568359" xlink:href="#DejaVuSans-98"/>
     <use x="603.044922" xlink:href="#DejaVuSans-108"/>
     <use x="630.828125" xlink:href="#DejaVuSans-101"/>
    </g>
   </g>
   <g id="text_13">
    <!-- lockdown -->
    <g transform="translate(127.022727 116.1)scale(0.14 -0.14)">
     <use xlink:href="#DejaVuSans-108"/>
     <use x="27.783203" xlink:href="#DejaVuSans-111"/>
     <use x="88.964844" xlink:href="#DejaVuSans-99"/>
     <use x="143.945312" xlink:href="#DejaVuSans-107"/>
     <use x="201.855469" xlink:href="#DejaVuSans-100"/>
     <use x="265.332031" xlink:href="#DejaVuSans-111"/>
     <use x="326.513672" xlink:href="#DejaVuSans-119"/>
     <use x="408.300781" xlink:href="#DejaVuSans-110"/>
    </g>
   </g>
   <g id="text_14">
    <!-- work -->
    <g transform="translate(210.722727 246.564)scale(0.14 -0.14)">
     <use xlink:href="#DejaVuSans-119"/>
     <use x="81.787109" xlink:href="#DejaVuSans-111"/>
     <use x="142.96875" xlink:href="#DejaVuSans-114"/>
     <use x="184.082031" xlink:href="#DejaVuSans-107"/>
    </g>
   </g>
   <g id="text_15">
    <g id="patch_13">
     <path d="M 176.264943 31.531563 
L 344.098693 31.531563 
L 344.098693 -5.81475 
L 176.264943 -5.81475 
z
" style="fill:#fde2be;opacity:0.5;"/>
    </g>
    <!-- restart lockdown when -->
    <defs>
     <path d="M 54.890625 33.015625 
L 54.890625 0 
L 45.90625 0 
L 45.90625 32.71875 
Q 45.90625 40.484375 42.875 44.328125 
Q 39.84375 48.1875 33.796875 48.1875 
Q 26.515625 48.1875 22.3125 43.546875 
Q 18.109375 38.921875 18.109375 30.90625 
L 18.109375 0 
L 9.078125 0 
L 9.078125 75.984375 
L 18.109375 75.984375 
L 18.109375 46.1875 
Q 21.34375 51.125 25.703125 53.5625 
Q 30.078125 56 35.796875 56 
Q 45.21875 56 50.046875 50.171875 
Q 54.890625 44.34375 54.890625 33.015625 
z
" id="DejaVuSans-104"/>
    </defs>
    <g transform="translate(180.324943 8.883062)scale(0.14 -0.14)">
     <use xlink:href="#DejaVuSans-114"/>
     <use x="41.082031" xlink:href="#DejaVuSans-101"/>
     <use x="102.605469" xlink:href="#DejaVuSans-115"/>
     <use x="154.705078" xlink:href="#DejaVuSans-116"/>
     <use x="193.914062" xlink:href="#DejaVuSans-97"/>
     <use x="255.193359" xlink:href="#DejaVuSans-114"/>
     <use x="296.306641" xlink:href="#DejaVuSans-116"/>
     <use x="335.515625" xlink:href="#DejaVuSans-32"/>
     <use x="367.302734" xlink:href="#DejaVuSans-108"/>
     <use x="395.085938" xlink:href="#DejaVuSans-111"/>
     <use x="456.267578" xlink:href="#DejaVuSans-99"/>
     <use x="511.248047" xlink:href="#DejaVuSans-107"/>
     <use x="569.158203" xlink:href="#DejaVuSans-100"/>
     <use x="632.634766" xlink:href="#DejaVuSans-111"/>
     <use x="693.816406" xlink:href="#DejaVuSans-119"/>
     <use x="775.603516" xlink:href="#DejaVuSans-110"/>
     <use x="838.982422" xlink:href="#DejaVuSans-32"/>
     <use x="870.769531" xlink:href="#DejaVuSans-119"/>
     <use x="952.556641" xlink:href="#DejaVuSans-104"/>
     <use x="1015.935547" xlink:href="#DejaVuSans-101"/>
     <use x="1077.458984" xlink:href="#DejaVuSans-110"/>
    </g>
    <!-- epidemic resurges -->
    <g transform="translate(195.358537 24.56)scale(0.14 -0.14)">
     <use xlink:href="#DejaVuSans-101"/>
     <use x="61.523438" xlink:href="#DejaVuSans-112"/>
     <use x="125" xlink:href="#DejaVuSans-105"/>
     <use x="152.783203" xlink:href="#DejaVuSans-100"/>
     <use x="216.259766" xlink:href="#DejaVuSans-101"/>
     <use x="277.783203" xlink:href="#DejaVuSans-109"/>
     <use x="375.195312" xlink:href="#DejaVuSans-105"/>
     <use x="402.978516" xlink:href="#DejaVuSans-99"/>
     <use x="457.958984" xlink:href="#DejaVuSans-32"/>
     <use x="489.746094" xlink:href="#DejaVuSans-114"/>
     <use x="530.828125" xlink:href="#DejaVuSans-101"/>
     <use x="592.351562" xlink:href="#DejaVuSans-115"/>
     <use x="644.451172" xlink:href="#DejaVuSans-117"/>
     <use x="707.830078" xlink:href="#DejaVuSans-114"/>
     <use x="748.927734" xlink:href="#DejaVuSans-103"/>
     <use x="812.404297" xlink:href="#DejaVuSans-101"/>
     <use x="873.927734" xlink:href="#DejaVuSans-115"/>
    </g>
   </g>
  </g>
  <g id="axes_2">
   <g id="patch_14">
    <path d="M 473.236364 252 
L 777.6 252 
L 777.6 34.56 
L 473.236364 34.56 
z
" style="fill:#ffffff;"/>
   </g>
   <g id="patch_15">
    <path clip-path="url(#p841f8de17b)" d="M 473.236364 252 
L 473.236364 34.56 
L 549.327273 34.56 
L 549.327273 252 
z
" style="fill:#808080;opacity:0.5;stroke:#808080;stroke-linejoin:miter;"/>
   </g>
   <g id="patch_16">
    <path clip-path="url(#p841f8de17b)" d="M 560.197403 252 
L 560.197403 34.56 
L 587.372727 34.56 
L 587.372727 252 
z
" style="fill:#808080;opacity:0.5;stroke:#808080;stroke-linejoin:miter;"/>
   </g>
   <g id="patch_17">
    <path clip-path="url(#p841f8de17b)" d="M 549.327273 252 
L 549.327273 34.56 
L 560.197403 34.56 
L 560.197403 252 
z
" style="fill:#808080;opacity:0.2;stroke:#808080;stroke-linejoin:miter;"/>
   </g>
   <g id="patch_18">
    <path clip-path="url(#p841f8de17b)" d="M 598.242857 252 
L 598.242857 34.56 
L 625.418182 34.56 
L 625.418182 252 
z
" style="fill:#808080;opacity:0.5;stroke:#808080;stroke-linejoin:miter;"/>
   </g>
   <g id="patch_19">
    <path clip-path="url(#p841f8de17b)" d="M 587.372727 252 
L 587.372727 34.56 
L 598.242857 34.56 
L 598.242857 252 
z
" style="fill:#808080;opacity:0.2;stroke:#808080;stroke-linejoin:miter;"/>
   </g>
   <g id="patch_20">
    <path clip-path="url(#p841f8de17b)" d="M 636.288312 252 
L 636.288312 34.56 
L 663.463636 34.56 
L 663.463636 252 
z
" style="fill:#808080;opacity:0.5;stroke:#808080;stroke-linejoin:miter;"/>
   </g>
   <g id="patch_21">
    <path clip-path="url(#p841f8de17b)" d="M 625.418182 252 
L 625.418182 34.56 
L 636.288312 34.56 
L 636.288312 252 
z
" style="fill:#808080;opacity:0.2;stroke:#808080;stroke-linejoin:miter;"/>
   </g>
   <g id="patch_22">
    <path clip-path="url(#p841f8de17b)" d="M 674.333766 252 
L 674.333766 34.56 
L 701.509091 34.56 
L 701.509091 252 
z
" style="fill:#808080;opacity:0.5;stroke:#808080;stroke-linejoin:miter;"/>
   </g>
   <g id="patch_23">
    <path clip-path="url(#p841f8de17b)" d="M 663.463636 252 
L 663.463636 34.56 
L 674.333766 34.56 
L 674.333766 252 
z
" style="fill:#808080;opacity:0.2;stroke:#808080;stroke-linejoin:miter;"/>
   </g>
   <g id="patch_24">
    <path clip-path="url(#p841f8de17b)" d="M 712.379221 252 
L 712.379221 34.56 
L 739.554545 34.56 
L 739.554545 252 
z
" style="fill:#808080;opacity:0.5;stroke:#808080;stroke-linejoin:miter;"/>
   </g>
   <g id="patch_25">
    <path clip-path="url(#p841f8de17b)" d="M 701.509091 252 
L 701.509091 34.56 
L 712.379221 34.56 
L 712.379221 252 
z
" style="fill:#808080;opacity:0.2;stroke:#808080;stroke-linejoin:miter;"/>
   </g>
   <g id="patch_26">
    <path clip-path="url(#p841f8de17b)" d="M 750.424675 252 
L 750.424675 34.56 
L 777.6 34.56 
L 777.6 252 
z
" style="fill:#808080;opacity:0.5;stroke:#808080;stroke-linejoin:miter;"/>
   </g>
   <g id="patch_27">
    <path clip-path="url(#p841f8de17b)" d="M 739.554545 252 
L 739.554545 34.56 
L 750.424675 34.56 
L 750.424675 252 
z
" style="fill:#808080;opacity:0.2;stroke:#808080;stroke-linejoin:miter;"/>
   </g>
   <g id="patch_28">
    <path clip-path="url(#p841f8de17b)" d="M 788.47013 252 
L 788.47013 34.56 
L 815.645455 34.56 
L 815.645455 252 
z
" style="fill:#808080;opacity:0.5;stroke:#808080;stroke-linejoin:miter;"/>
   </g>
   <g id="patch_29">
    <path clip-path="url(#p841f8de17b)" d="M 777.6 252 
L 777.6 34.56 
L 788.47013 34.56 
L 788.47013 252 
z
" style="fill:#808080;opacity:0.2;stroke:#808080;stroke-linejoin:miter;"/>
   </g>
   <g id="patch_30">
    <path clip-path="url(#p841f8de17b)" d="M 826.515584 252 
L 826.515584 34.56 
L 853.690909 34.56 
L 853.690909 252 
z
" style="fill:#808080;opacity:0.5;stroke:#808080;stroke-linejoin:miter;"/>
   </g>
   <g id="patch_31">
    <path clip-path="url(#p841f8de17b)" d="M 815.645455 252 
L 815.645455 34.56 
L 826.515584 34.56 
L 826.515584 252 
z
" style="fill:#808080;opacity:0.2;stroke:#808080;stroke-linejoin:miter;"/>
   </g>
   <g id="patch_32">
    <path clip-path="url(#p841f8de17b)" d="M 864.561039 252 
L 864.561039 34.56 
L 891.736364 34.56 
L 891.736364 252 
z
" style="fill:#808080;opacity:0.5;stroke:#808080;stroke-linejoin:miter;"/>
   </g>
   <g id="patch_33">
    <path clip-path="url(#p841f8de17b)" d="M 853.690909 252 
L 853.690909 34.56 
L 864.561039 34.56 
L 864.561039 252 
z
" style="fill:#808080;opacity:0.2;stroke:#808080;stroke-linejoin:miter;"/>
   </g>
   <g id="matplotlib.axis_3">
    <g id="xtick_10">
     <g id="line2d_11">
      <g>
       <use style="stroke:#000000;stroke-width:0.8;" x="473.236364" xlink:href="#m2c8391d9ef" y="252"/>
      </g>
     </g>
     <g id="text_16">
      <!-- 0 -->
      <g transform="translate(468.782614 269.637812)scale(0.14 -0.14)">
       <use xlink:href="#DejaVuSans-48"/>
      </g>
     </g>
    </g>
    <g id="xtick_11">
     <g id="line2d_12">
      <g>
       <use style="stroke:#000000;stroke-width:0.8;" x="511.281818" xlink:href="#m2c8391d9ef" y="252"/>
      </g>
     </g>
     <g id="text_17">
      <!-- 2 -->
      <g transform="translate(506.828068 269.637812)scale(0.14 -0.14)">
       <use xlink:href="#DejaVuSans-50"/>
      </g>
     </g>
    </g>
    <g id="xtick_12">
     <g id="line2d_13">
      <g>
       <use style="stroke:#000000;stroke-width:0.8;" x="549.327273" xlink:href="#m2c8391d9ef" y="252"/>
      </g>
     </g>
     <g id="text_18">
      <!-- 4 -->
      <g transform="translate(544.873523 269.637812)scale(0.14 -0.14)">
       <use xlink:href="#DejaVuSans-52"/>
      </g>
     </g>
    </g>
    <g id="xtick_13">
     <g id="line2d_14">
      <g>
       <use style="stroke:#000000;stroke-width:0.8;" x="587.372727" xlink:href="#m2c8391d9ef" y="252"/>
      </g>
     </g>
     <g id="text_19">
      <!-- 6 -->
      <g transform="translate(582.918977 269.637812)scale(0.14 -0.14)">
       <use xlink:href="#DejaVuSans-54"/>
      </g>
     </g>
    </g>
    <g id="xtick_14">
     <g id="line2d_15">
      <g>
       <use style="stroke:#000000;stroke-width:0.8;" x="625.418182" xlink:href="#m2c8391d9ef" y="252"/>
      </g>
     </g>
     <g id="text_20">
      <!-- 8 -->
      <g transform="translate(620.964432 269.637812)scale(0.14 -0.14)">
       <use xlink:href="#DejaVuSans-56"/>
      </g>
     </g>
    </g>
    <g id="xtick_15">
     <g id="line2d_16">
      <g>
       <use style="stroke:#000000;stroke-width:0.8;" x="663.463636" xlink:href="#m2c8391d9ef" y="252"/>
      </g>
     </g>
     <g id="text_21">
      <!-- 10 -->
      <g transform="translate(654.556136 269.637812)scale(0.14 -0.14)">
       <use xlink:href="#DejaVuSans-49"/>
       <use x="63.623047" xlink:href="#DejaVuSans-48"/>
      </g>
     </g>
    </g>
    <g id="xtick_16">
     <g id="line2d_17">
      <g>
       <use style="stroke:#000000;stroke-width:0.8;" x="701.509091" xlink:href="#m2c8391d9ef" y="252"/>
      </g>
     </g>
     <g id="text_22">
      <!-- 12 -->
      <g transform="translate(692.601591 269.637812)scale(0.14 -0.14)">
       <use xlink:href="#DejaVuSans-49"/>
       <use x="63.623047" xlink:href="#DejaVuSans-50"/>
      </g>
     </g>
    </g>
    <g id="xtick_17">
     <g id="line2d_18">
      <g>
       <use style="stroke:#000000;stroke-width:0.8;" x="739.554545" xlink:href="#m2c8391d9ef" y="252"/>
      </g>
     </g>
     <g id="text_23">
      <!-- 14 -->
      <g transform="translate(730.647045 269.637812)scale(0.14 -0.14)">
       <use xlink:href="#DejaVuSans-49"/>
       <use x="63.623047" xlink:href="#DejaVuSans-52"/>
      </g>
     </g>
    </g>
    <g id="xtick_18">
     <g id="line2d_19">
      <g>
       <use style="stroke:#000000;stroke-width:0.8;" x="777.6" xlink:href="#m2c8391d9ef" y="252"/>
      </g>
     </g>
     <g id="text_24">
      <!-- 16 -->
      <g transform="translate(768.6925 269.637812)scale(0.14 -0.14)">
       <use xlink:href="#DejaVuSans-49"/>
       <use x="63.623047" xlink:href="#DejaVuSans-54"/>
      </g>
     </g>
    </g>
    <g id="text_25">
     <!-- weeks -->
     <g transform="translate(603.379119 287.187187)scale(0.14 -0.14)">
      <use xlink:href="#DejaVuSans-119"/>
      <use x="81.787109" xlink:href="#DejaVuSans-101"/>
      <use x="143.310547" xlink:href="#DejaVuSans-101"/>
      <use x="204.833984" xlink:href="#DejaVuSans-107"/>
      <use x="262.744141" xlink:href="#DejaVuSans-115"/>
     </g>
    </g>
   </g>
   <g id="matplotlib.axis_4">
    <g id="text_26">
     <!-- number of cases -->
     <g transform="translate(466.324801 201.535313)rotate(-90)scale(0.14 -0.14)">
      <use xlink:href="#DejaVuSans-110"/>
      <use x="63.378906" xlink:href="#DejaVuSans-117"/>
      <use x="126.757812" xlink:href="#DejaVuSans-109"/>
      <use x="224.169922" xlink:href="#DejaVuSans-98"/>
      <use x="287.646484" xlink:href="#DejaVuSans-101"/>
      <use x="349.169922" xlink:href="#DejaVuSans-114"/>
      <use x="390.283203" xlink:href="#DejaVuSans-32"/>
      <use x="422.070312" xlink:href="#DejaVuSans-111"/>
      <use x="483.251953" xlink:href="#DejaVuSans-102"/>
      <use x="518.457031" xlink:href="#DejaVuSans-32"/>
      <use x="550.244141" xlink:href="#DejaVuSans-99"/>
      <use x="605.224609" xlink:href="#DejaVuSans-97"/>
      <use x="666.503906" xlink:href="#DejaVuSans-115"/>
      <use x="718.603516" xlink:href="#DejaVuSans-101"/>
      <use x="780.126953" xlink:href="#DejaVuSans-115"/>
     </g>
    </g>
   </g>
   <g id="line2d_20">
    <path clip-path="url(#p841f8de17b)" d="M 514.626174 -1 
L 517.26039 17.619922 
L 519.977922 35.393495 
L 522.695455 51.820268 
L 525.412987 67.00191 
L 528.130519 81.032488 
L 530.848052 93.999089 
L 533.565584 105.982308 
L 536.283117 117.056688 
L 539.272403 128.270895 
L 542.261688 138.553159 
L 545.250974 147.98093 
L 548.24026 156.625224 
L 549.327273 159.587244 
L 549.599026 159.587244 
L 551.229545 163.692777 
L 552.044805 165.294441 
L 552.860065 166.46275 
L 553.675325 167.168937 
L 554.218831 167.385425 
L 554.762338 167.407362 
L 555.305844 167.245984 
L 556.121104 166.689395 
L 556.936364 165.798657 
L 558.023377 164.175506 
L 559.382143 161.595812 
L 561.012662 157.917914 
L 562.643182 154.25015 
L 563.458442 152.820158 
L 564.273701 151.776554 
L 565.088961 151.148407 
L 565.632468 150.960437 
L 566.175974 150.950592 
L 566.719481 151.109797 
L 567.53474 151.640754 
L 568.35 152.483831 
L 569.437013 154.014863 
L 570.795779 156.434918 
L 572.426299 159.839837 
L 575.415584 166.734713 
L 580.03539 177.324146 
L 583.024675 183.600924 
L 586.013961 189.343031 
L 588.731494 194.102218 
L 589.818506 195.650656 
L 590.633766 196.506577 
L 591.449026 197.065885 
L 592.264286 197.326703 
L 593.079545 197.304417 
L 593.894805 197.024628 
L 594.710065 196.517935 
L 595.797078 195.54441 
L 597.155844 193.948253 
L 598.786364 191.630058 
L 600.688636 188.841045 
L 601.775649 187.662867 
L 602.590909 187.076918 
L 603.406169 186.760885 
L 604.221429 186.708358 
L 605.036688 186.901306 
L 605.851948 187.314728 
L 606.938961 188.159481 
L 608.297727 189.589632 
L 609.928247 191.68916 
L 612.374026 195.257741 
L 618.624351 204.511862 
L 621.88539 208.850364 
L 624.874675 212.468992 
L 627.320455 215.123399 
L 628.407468 215.979952 
L 629.494481 216.504884 
L 630.30974 216.673409 
L 631.125 216.659009 
L 632.212013 216.384366 
L 633.299026 215.861319 
L 634.657792 214.931057 
L 636.288312 213.517369 
L 639.277597 210.775532 
L 640.36461 210.15752 
L 641.451623 209.846414 
L 642.538636 209.837137 
L 643.625649 210.100513 
L 644.712662 210.595445 
L 646.071429 211.471489 
L 647.701948 212.79075 
L 650.419481 215.33657 
L 656.941558 221.559813 
L 660.474351 224.560538 
L 664.007143 227.255846 
L 665.637662 228.329346 
L 666.724675 228.831685 
L 667.811688 229.115137 
L 668.898701 229.180416 
L 669.985714 229.047969 
L 671.344481 228.649361 
L 672.975 227.9087 
L 674.877273 226.795755 
L 677.051299 225.492083 
L 678.410065 224.96391 
L 679.497078 224.762892 
L 680.584091 224.756898 
L 681.942857 224.994119 
L 683.301623 225.453812 
L 685.203896 226.364926 
L 687.921429 227.969294 
L 696.074026 232.949607 
L 700.150325 235.097583 
L 703.411364 236.604145 
L 704.77013 237.03003 
L 706.128896 237.236579 
L 707.487662 237.227425 
L 709.118182 236.975422 
L 711.020455 236.433653 
L 713.466234 235.488219 
L 715.368506 234.788925 
L 716.727273 234.486275 
L 718.086039 234.383928 
L 719.716558 234.507107 
L 721.618831 234.920885 
L 724.06461 235.730478 
L 728.684416 237.583112 
L 734.119481 239.690784 
L 739.011039 241.33607 
L 742.272078 242.233402 
L 743.902597 242.445648 
L 745.533117 242.454852 
L 747.43539 242.251188 
L 749.881169 241.753895 
L 754.500974 240.712525 
L 756.403247 240.619444 
L 758.305519 240.756847 
L 760.751299 241.178404 
L 764.555844 242.109631 
L 773.251948 244.296597 
L 777.871753 245.271814 
L 777.871753 245.271814 
" style="fill:none;stroke:#ff4500;stroke-linecap:square;stroke-width:2;"/>
   </g>
   <g id="patch_34">
    <path d="M 473.236364 252 
L 473.236364 34.56 
" style="fill:none;stroke:#000000;stroke-linecap:square;stroke-linejoin:miter;stroke-width:0.8;"/>
   </g>
   <g id="patch_35">
    <path d="M 777.6 252 
L 777.6 34.56 
" style="fill:none;stroke:#000000;stroke-linecap:square;stroke-linejoin:miter;stroke-width:0.8;"/>
   </g>
   <g id="patch_36">
    <path d="M 473.236364 252 
L 777.6 252 
" style="fill:none;stroke:#000000;stroke-linecap:square;stroke-linejoin:miter;stroke-width:0.8;"/>
   </g>
   <g id="patch_37">
    <path d="M 473.236364 34.56 
L 777.6 34.56 
" style="fill:none;stroke:#000000;stroke-linecap:square;stroke-linejoin:miter;stroke-width:0.8;"/>
   </g>
   <g id="text_27">
    <g id="patch_38">
     <path d="M 567.007532 112.199562 
L 758.768157 112.199562 
L 758.768157 59.176312 
L 567.007532 59.176312 
z
" style="fill:#cfdeff;opacity:0.5;"/>
    </g>
    <!-- earlier exit from lockdown -->
    <g transform="translate(571.067532 73.874125)scale(0.14 -0.14)">
     <use xlink:href="#DejaVuSans-101"/>
     <use x="61.523438" xlink:href="#DejaVuSans-97"/>
     <use x="122.802734" xlink:href="#DejaVuSans-114"/>
     <use x="163.916016" xlink:href="#DejaVuSans-108"/>
     <use x="191.699219" xlink:href="#DejaVuSans-105"/>
     <use x="219.482422" xlink:href="#DejaVuSans-101"/>
     <use x="281.005859" xlink:href="#DejaVuSans-114"/>
     <use x="322.119141" xlink:href="#DejaVuSans-32"/>
     <use x="353.90625" xlink:href="#DejaVuSans-101"/>
     <use x="415.414062" xlink:href="#DejaVuSans-120"/>
     <use x="474.59375" xlink:href="#DejaVuSans-105"/>
     <use x="502.376953" xlink:href="#DejaVuSans-116"/>
     <use x="541.585938" xlink:href="#DejaVuSans-32"/>
     <use x="573.373047" xlink:href="#DejaVuSans-102"/>
     <use x="608.578125" xlink:href="#DejaVuSans-114"/>
     <use x="649.660156" xlink:href="#DejaVuSans-111"/>
     <use x="710.841797" xlink:href="#DejaVuSans-109"/>
     <use x="808.253906" xlink:href="#DejaVuSans-32"/>
     <use x="840.041016" xlink:href="#DejaVuSans-108"/>
     <use x="867.824219" xlink:href="#DejaVuSans-111"/>
     <use x="929.005859" xlink:href="#DejaVuSans-99"/>
     <use x="983.986328" xlink:href="#DejaVuSans-107"/>
     <use x="1041.896484" xlink:href="#DejaVuSans-100"/>
     <use x="1105.373047" xlink:href="#DejaVuSans-111"/>
     <use x="1166.554688" xlink:href="#DejaVuSans-119"/>
     <use x="1248.341797" xlink:href="#DejaVuSans-110"/>
    </g>
    <!-- and clarity on -->
    <defs>
     <path d="M 32.171875 -5.078125 
Q 28.375 -14.84375 24.75 -17.8125 
Q 21.140625 -20.796875 15.09375 -20.796875 
L 7.90625 -20.796875 
L 7.90625 -13.28125 
L 13.1875 -13.28125 
Q 16.890625 -13.28125 18.9375 -11.515625 
Q 21 -9.765625 23.484375 -3.21875 
L 25.09375 0.875 
L 2.984375 54.6875 
L 12.5 54.6875 
L 29.59375 11.921875 
L 46.6875 54.6875 
L 56.203125 54.6875 
z
" id="DejaVuSans-121"/>
    </defs>
    <g transform="translate(614.756282 89.551062)scale(0.14 -0.14)">
     <use xlink:href="#DejaVuSans-97"/>
     <use x="61.279297" xlink:href="#DejaVuSans-110"/>
     <use x="124.658203" xlink:href="#DejaVuSans-100"/>
     <use x="188.134766" xlink:href="#DejaVuSans-32"/>
     <use x="219.921875" xlink:href="#DejaVuSans-99"/>
     <use x="274.902344" xlink:href="#DejaVuSans-108"/>
     <use x="302.685547" xlink:href="#DejaVuSans-97"/>
     <use x="363.964844" xlink:href="#DejaVuSans-114"/>
     <use x="405.078125" xlink:href="#DejaVuSans-105"/>
     <use x="432.861328" xlink:href="#DejaVuSans-116"/>
     <use x="472.070312" xlink:href="#DejaVuSans-121"/>
     <use x="531.25" xlink:href="#DejaVuSans-32"/>
     <use x="563.037109" xlink:href="#DejaVuSans-111"/>
     <use x="624.21875" xlink:href="#DejaVuSans-110"/>
    </g>
    <!-- business availability -->
    <defs>
     <path d="M 2.984375 54.6875 
L 12.5 54.6875 
L 29.59375 8.796875 
L 46.6875 54.6875 
L 56.203125 54.6875 
L 35.6875 0 
L 23.484375 0 
z
" id="DejaVuSans-118"/>
    </defs>
    <g transform="translate(592.088314 105.228)scale(0.14 -0.14)">
     <use xlink:href="#DejaVuSans-98"/>
     <use x="63.476562" xlink:href="#DejaVuSans-117"/>
     <use x="126.855469" xlink:href="#DejaVuSans-115"/>
     <use x="178.955078" xlink:href="#DejaVuSans-105"/>
     <use x="206.738281" xlink:href="#DejaVuSans-110"/>
     <use x="270.117188" xlink:href="#DejaVuSans-101"/>
     <use x="331.640625" xlink:href="#DejaVuSans-115"/>
     <use x="383.740234" xlink:href="#DejaVuSans-115"/>
     <use x="435.839844" xlink:href="#DejaVuSans-32"/>
     <use x="467.626953" xlink:href="#DejaVuSans-97"/>
     <use x="528.90625" xlink:href="#DejaVuSans-118"/>
     <use x="588.085938" xlink:href="#DejaVuSans-97"/>
     <use x="649.365234" xlink:href="#DejaVuSans-105"/>
     <use x="677.148438" xlink:href="#DejaVuSans-108"/>
     <use x="704.931641" xlink:href="#DejaVuSans-97"/>
     <use x="766.210938" xlink:href="#DejaVuSans-98"/>
     <use x="829.6875" xlink:href="#DejaVuSans-105"/>
     <use x="857.470703" xlink:href="#DejaVuSans-108"/>
     <use x="885.253906" xlink:href="#DejaVuSans-105"/>
     <use x="913.037109" xlink:href="#DejaVuSans-116"/>
     <use x="952.246094" xlink:href="#DejaVuSans-121"/>
    </g>
   </g>
   <g id="text_28">
    <!-- 4-10 cycle -->
    <defs>
     <path d="M 4.890625 31.390625 
L 31.203125 31.390625 
L 31.203125 23.390625 
L 4.890625 23.390625 
z
" id="DejaVuSans-45"/>
    </defs>
    <g transform="translate(598.242857 224.82)scale(0.14 -0.14)">
     <use xlink:href="#DejaVuSans-52"/>
     <use x="63.623047" xlink:href="#DejaVuSans-45"/>
     <use x="99.707031" xlink:href="#DejaVuSans-49"/>
     <use x="163.330078" xlink:href="#DejaVuSans-48"/>
     <use x="226.953125" xlink:href="#DejaVuSans-32"/>
     <use x="258.740234" xlink:href="#DejaVuSans-99"/>
     <use x="313.720703" xlink:href="#DejaVuSans-121"/>
     <use x="372.900391" xlink:href="#DejaVuSans-99"/>
     <use x="427.880859" xlink:href="#DejaVuSans-108"/>
     <use x="455.664062" xlink:href="#DejaVuSans-101"/>
    </g>
   </g>
   <g id="text_29">
    <g id="patch_39">
     <path d="M 535.114901 31.531563 
L 715.721463 31.531563 
L 715.721463 9.862188 
L 535.114901 9.862188 
z
" style="fill:#fde2be;opacity:0.5;"/>
    </g>
    <!-- cyclic lockdown strategy -->
    <g transform="translate(539.174901 24.56)scale(0.14 -0.14)">
     <use xlink:href="#DejaVuSans-99"/>
     <use x="54.980469" xlink:href="#DejaVuSans-121"/>
     <use x="114.160156" xlink:href="#DejaVuSans-99"/>
     <use x="169.140625" xlink:href="#DejaVuSans-108"/>
     <use x="196.923828" xlink:href="#DejaVuSans-105"/>
     <use x="224.707031" xlink:href="#DejaVuSans-99"/>
     <use x="279.6875" xlink:href="#DejaVuSans-32"/>
     <use x="311.474609" xlink:href="#DejaVuSans-108"/>
     <use x="339.257812" xlink:href="#DejaVuSans-111"/>
     <use x="400.439453" xlink:href="#DejaVuSans-99"/>
     <use x="455.419922" xlink:href="#DejaVuSans-107"/>
     <use x="513.330078" xlink:href="#DejaVuSans-100"/>
     <use x="576.806641" xlink:href="#DejaVuSans-111"/>
     <use x="637.988281" xlink:href="#DejaVuSans-119"/>
     <use x="719.775391" xlink:href="#DejaVuSans-110"/>
     <use x="783.154297" xlink:href="#DejaVuSans-32"/>
     <use x="814.941406" xlink:href="#DejaVuSans-115"/>
     <use x="867.041016" xlink:href="#DejaVuSans-116"/>
     <use x="906.25" xlink:href="#DejaVuSans-114"/>
     <use x="947.363281" xlink:href="#DejaVuSans-97"/>
     <use x="1008.642578" xlink:href="#DejaVuSans-116"/>
     <use x="1047.851562" xlink:href="#DejaVuSans-101"/>
     <use x="1109.375" xlink:href="#DejaVuSans-103"/>
     <use x="1172.851562" xlink:href="#DejaVuSans-121"/>
    </g>
   </g>
  </g>
 </g>
 <defs>
  <clipPath id="pbe63be687a">
   <rect height="217.44" width="304.363636" x="108" y="34.56"/>
  </clipPath>
  <clipPath id="p841f8de17b">
   <rect height="217.44" width="304.363636" x="473.236364" y="34.56"/>
  </clipPath>
 </defs>
</svg>
