<?xml version="1.0" encoding="utf-8" standalone="no"?>
<!DOCTYPE svg PUBLIC "-//W3C//DTD SVG 1.1//EN"
  "http://www.w3.org/Graphics/SVG/1.1/DTD/svg11.dtd">
<!-- Created with matplotlib (https://matplotlib.org/) -->
<svg height="360pt" version="1.1" viewBox="0 0 432 360" width="432pt" xmlns="http://www.w3.org/2000/svg" xmlns:xlink="http://www.w3.org/1999/xlink">
 <defs>
  <style type="text/css">
*{stroke-linecap:butt;stroke-linejoin:round;}
  </style>
 </defs>
 <g id="figure_1">
  <g id="patch_1">
   <path d="M 0 360 
L 432 360 
L 432 0 
L 0 0 
z
" style="fill:#ffffff;"/>
  </g>
  <g id="axes_1">
   <g id="patch_2">
    <path d="M 28.8 310.2 
L 412.325 310.2 
L 412.325 48 
L 28.8 48 
z
" style="fill:#ffffff;"/>
   </g>
   <g id="patch_3">
    <path clip-path="url(#p92089f4bbb)" d="M 28.8 310.2 
L 28.8 48 
L 124.68125 48 
L 124.68125 310.2 
z
" style="fill:#808080;opacity:0.5;stroke:#808080;stroke-linejoin:miter;"/>
   </g>
   <g id="patch_4">
    <path clip-path="url(#p92089f4bbb)" d="M 138.378571 310.2 
L 138.378571 179.1 
L 172.621875 179.1 
L 172.621875 310.2 
z
" style="fill:#808080;opacity:0.5;stroke:#808080;stroke-linejoin:miter;"/>
   </g>
   <g id="patch_5">
    <path clip-path="url(#p92089f4bbb)" d="M 124.68125 310.2 
L 124.68125 179.1 
L 138.378571 179.1 
L 138.378571 310.2 
z
" style="fill:#808080;opacity:0.2;stroke:#808080;stroke-linejoin:miter;"/>
   </g>
   <g id="patch_6">
    <path clip-path="url(#p92089f4bbb)" d="M 186.319196 310.2 
L 186.319196 179.1 
L 220.5625 179.1 
L 220.5625 310.2 
z
" style="fill:#808080;opacity:0.5;stroke:#808080;stroke-linejoin:miter;"/>
   </g>
   <g id="patch_7">
    <path clip-path="url(#p92089f4bbb)" d="M 172.621875 310.2 
L 172.621875 179.1 
L 186.319196 179.1 
L 186.319196 310.2 
z
" style="fill:#808080;opacity:0.2;stroke:#808080;stroke-linejoin:miter;"/>
   </g>
   <g id="patch_8">
    <path clip-path="url(#p92089f4bbb)" d="M 234.259821 310.2 
L 234.259821 179.1 
L 268.503125 179.1 
L 268.503125 310.2 
z
" style="fill:#808080;opacity:0.5;stroke:#808080;stroke-linejoin:miter;"/>
   </g>
   <g id="patch_9">
    <path clip-path="url(#p92089f4bbb)" d="M 220.5625 310.2 
L 220.5625 179.1 
L 234.259821 179.1 
L 234.259821 310.2 
z
" style="fill:#808080;opacity:0.2;stroke:#808080;stroke-linejoin:miter;"/>
   </g>
   <g id="patch_10">
    <path clip-path="url(#p92089f4bbb)" d="M 282.200446 310.2 
L 282.200446 179.1 
L 316.44375 179.1 
L 316.44375 310.2 
z
" style="fill:#808080;opacity:0.5;stroke:#808080;stroke-linejoin:miter;"/>
   </g>
   <g id="patch_11">
    <path clip-path="url(#p92089f4bbb)" d="M 268.503125 310.2 
L 268.503125 179.1 
L 282.200446 179.1 
L 282.200446 310.2 
z
" style="fill:#808080;opacity:0.2;stroke:#808080;stroke-linejoin:miter;"/>
   </g>
   <g id="patch_12">
    <path clip-path="url(#p92089f4bbb)" d="M 330.141071 310.2 
L 330.141071 179.1 
L 364.384375 179.1 
L 364.384375 310.2 
z
" style="fill:#808080;opacity:0.5;stroke:#808080;stroke-linejoin:miter;"/>
   </g>
   <g id="patch_13">
    <path clip-path="url(#p92089f4bbb)" d="M 316.44375 310.2 
L 316.44375 179.1 
L 330.141071 179.1 
L 330.141071 310.2 
z
" style="fill:#808080;opacity:0.2;stroke:#808080;stroke-linejoin:miter;"/>
   </g>
   <g id="patch_14">
    <path clip-path="url(#p92089f4bbb)" d="M 378.081696 310.2 
L 378.081696 179.1 
L 412.325 179.1 
L 412.325 310.2 
z
" style="fill:#808080;opacity:0.5;stroke:#808080;stroke-linejoin:miter;"/>
   </g>
   <g id="patch_15">
    <path clip-path="url(#p92089f4bbb)" d="M 364.384375 310.2 
L 364.384375 179.1 
L 378.081696 179.1 
L 378.081696 310.2 
z
" style="fill:#808080;opacity:0.2;stroke:#808080;stroke-linejoin:miter;"/>
   </g>
   <g id="patch_16">
    <path clip-path="url(#p92089f4bbb)" d="M 426.022321 310.2 
L 426.022321 179.1 
L 460.265625 179.1 
L 460.265625 310.2 
z
" style="fill:#808080;opacity:0.5;stroke:#808080;stroke-linejoin:miter;"/>
   </g>
   <g id="patch_17">
    <path clip-path="url(#p92089f4bbb)" d="M 412.325 310.2 
L 412.325 179.1 
L 426.022321 179.1 
L 426.022321 310.2 
z
" style="fill:#808080;opacity:0.2;stroke:#808080;stroke-linejoin:miter;"/>
   </g>
   <g id="patch_18">
    <path clip-path="url(#p92089f4bbb)" d="M 473.962946 310.2 
L 473.962946 179.1 
L 508.20625 179.1 
L 508.20625 310.2 
z
" style="fill:#808080;opacity:0.5;stroke:#808080;stroke-linejoin:miter;"/>
   </g>
   <g id="patch_19">
    <path clip-path="url(#p92089f4bbb)" d="M 460.265625 310.2 
L 460.265625 179.1 
L 473.962946 179.1 
L 473.962946 310.2 
z
" style="fill:#808080;opacity:0.2;stroke:#808080;stroke-linejoin:miter;"/>
   </g>
   <g id="patch_20">
    <path clip-path="url(#p92089f4bbb)" d="M 521.903571 310.2 
L 521.903571 179.1 
L 556.146875 179.1 
L 556.146875 310.2 
z
" style="fill:#808080;opacity:0.5;stroke:#808080;stroke-linejoin:miter;"/>
   </g>
   <g id="patch_21">
    <path clip-path="url(#p92089f4bbb)" d="M 508.20625 310.2 
L 508.20625 179.1 
L 521.903571 179.1 
L 521.903571 310.2 
z
" style="fill:#808080;opacity:0.2;stroke:#808080;stroke-linejoin:miter;"/>
   </g>
   <g id="patch_22">
    <path clip-path="url(#p92089f4bbb)" d="M 569.844196 310.2 
L 569.844196 179.1 
L 604.0875 179.1 
L 604.0875 310.2 
z
" style="fill:#808080;opacity:0.5;stroke:#808080;stroke-linejoin:miter;"/>
   </g>
   <g id="patch_23">
    <path clip-path="url(#p92089f4bbb)" d="M 556.146875 310.2 
L 556.146875 179.1 
L 569.844196 179.1 
L 569.844196 310.2 
z
" style="fill:#808080;opacity:0.2;stroke:#808080;stroke-linejoin:miter;"/>
   </g>
   <g id="patch_24">
    <path clip-path="url(#p92089f4bbb)" d="M 617.784821 310.2 
L 617.784821 179.1 
L 652.028125 179.1 
L 652.028125 310.2 
z
" style="fill:#808080;opacity:0.5;stroke:#808080;stroke-linejoin:miter;"/>
   </g>
   <g id="patch_25">
    <path clip-path="url(#p92089f4bbb)" d="M 604.0875 310.2 
L 604.0875 179.1 
L 617.784821 179.1 
L 617.784821 310.2 
z
" style="fill:#808080;opacity:0.2;stroke:#808080;stroke-linejoin:miter;"/>
   </g>
   <g id="patch_26">
    <path clip-path="url(#p92089f4bbb)" d="M 665.725446 310.2 
L 665.725446 179.1 
L 699.96875 179.1 
L 699.96875 310.2 
z
" style="fill:#808080;opacity:0.5;stroke:#808080;stroke-linejoin:miter;"/>
   </g>
   <g id="patch_27">
    <path clip-path="url(#p92089f4bbb)" d="M 652.028125 310.2 
L 652.028125 179.1 
L 665.725446 179.1 
L 665.725446 310.2 
z
" style="fill:#808080;opacity:0.2;stroke:#808080;stroke-linejoin:miter;"/>
   </g>
   <g id="patch_28">
    <path clip-path="url(#p92089f4bbb)" d="M 162.348884 179.1 
L 162.348884 48 
L 196.592188 48 
L 196.592188 179.1 
z
" style="fill:#808080;opacity:0.5;stroke:#808080;stroke-linejoin:miter;"/>
   </g>
   <g id="patch_29">
    <path clip-path="url(#p92089f4bbb)" d="M 148.651563 179.1 
L 148.651563 48 
L 162.348884 48 
L 162.348884 179.1 
z
" style="fill:#808080;opacity:0.2;stroke:#808080;stroke-linejoin:miter;"/>
   </g>
   <g id="patch_30">
    <path clip-path="url(#p92089f4bbb)" d="M 210.289509 179.1 
L 210.289509 48 
L 244.532813 48 
L 244.532813 179.1 
z
" style="fill:#808080;opacity:0.5;stroke:#808080;stroke-linejoin:miter;"/>
   </g>
   <g id="patch_31">
    <path clip-path="url(#p92089f4bbb)" d="M 196.592188 179.1 
L 196.592188 48 
L 210.289509 48 
L 210.289509 179.1 
z
" style="fill:#808080;opacity:0.2;stroke:#808080;stroke-linejoin:miter;"/>
   </g>
   <g id="patch_32">
    <path clip-path="url(#p92089f4bbb)" d="M 258.230134 179.1 
L 258.230134 48 
L 292.473438 48 
L 292.473438 179.1 
z
" style="fill:#808080;opacity:0.5;stroke:#808080;stroke-linejoin:miter;"/>
   </g>
   <g id="patch_33">
    <path clip-path="url(#p92089f4bbb)" d="M 244.532813 179.1 
L 244.532813 48 
L 258.230134 48 
L 258.230134 179.1 
z
" style="fill:#808080;opacity:0.2;stroke:#808080;stroke-linejoin:miter;"/>
   </g>
   <g id="patch_34">
    <path clip-path="url(#p92089f4bbb)" d="M 306.170759 179.1 
L 306.170759 48 
L 340.414062 48 
L 340.414062 179.1 
z
" style="fill:#808080;opacity:0.5;stroke:#808080;stroke-linejoin:miter;"/>
   </g>
   <g id="patch_35">
    <path clip-path="url(#p92089f4bbb)" d="M 292.473438 179.1 
L 292.473438 48 
L 306.170759 48 
L 306.170759 179.1 
z
" style="fill:#808080;opacity:0.2;stroke:#808080;stroke-linejoin:miter;"/>
   </g>
   <g id="patch_36">
    <path clip-path="url(#p92089f4bbb)" d="M 354.111384 179.1 
L 354.111384 48 
L 388.354688 48 
L 388.354688 179.1 
z
" style="fill:#808080;opacity:0.5;stroke:#808080;stroke-linejoin:miter;"/>
   </g>
   <g id="patch_37">
    <path clip-path="url(#p92089f4bbb)" d="M 340.414062 179.1 
L 340.414062 48 
L 354.111384 48 
L 354.111384 179.1 
z
" style="fill:#808080;opacity:0.2;stroke:#808080;stroke-linejoin:miter;"/>
   </g>
   <g id="patch_38">
    <path clip-path="url(#p92089f4bbb)" d="M 402.052009 179.1 
L 402.052009 48 
L 436.295313 48 
L 436.295313 179.1 
z
" style="fill:#808080;opacity:0.5;stroke:#808080;stroke-linejoin:miter;"/>
   </g>
   <g id="patch_39">
    <path clip-path="url(#p92089f4bbb)" d="M 388.354688 179.1 
L 388.354688 48 
L 402.052009 48 
L 402.052009 179.1 
z
" style="fill:#808080;opacity:0.2;stroke:#808080;stroke-linejoin:miter;"/>
   </g>
   <g id="patch_40">
    <path clip-path="url(#p92089f4bbb)" d="M 449.992634 179.1 
L 449.992634 48 
L 484.235938 48 
L 484.235938 179.1 
z
" style="fill:#808080;opacity:0.5;stroke:#808080;stroke-linejoin:miter;"/>
   </g>
   <g id="patch_41">
    <path clip-path="url(#p92089f4bbb)" d="M 436.295313 179.1 
L 436.295313 48 
L 449.992634 48 
L 449.992634 179.1 
z
" style="fill:#808080;opacity:0.2;stroke:#808080;stroke-linejoin:miter;"/>
   </g>
   <g id="patch_42">
    <path clip-path="url(#p92089f4bbb)" d="M 497.933259 179.1 
L 497.933259 48 
L 532.176563 48 
L 532.176563 179.1 
z
" style="fill:#808080;opacity:0.5;stroke:#808080;stroke-linejoin:miter;"/>
   </g>
   <g id="patch_43">
    <path clip-path="url(#p92089f4bbb)" d="M 484.235938 179.1 
L 484.235938 48 
L 497.933259 48 
L 497.933259 179.1 
z
" style="fill:#808080;opacity:0.2;stroke:#808080;stroke-linejoin:miter;"/>
   </g>
   <g id="patch_44">
    <path clip-path="url(#p92089f4bbb)" d="M 545.873884 179.1 
L 545.873884 48 
L 580.117188 48 
L 580.117188 179.1 
z
" style="fill:#808080;opacity:0.5;stroke:#808080;stroke-linejoin:miter;"/>
   </g>
   <g id="patch_45">
    <path clip-path="url(#p92089f4bbb)" d="M 532.176563 179.1 
L 532.176563 48 
L 545.873884 48 
L 545.873884 179.1 
z
" style="fill:#808080;opacity:0.2;stroke:#808080;stroke-linejoin:miter;"/>
   </g>
   <g id="patch_46">
    <path clip-path="url(#p92089f4bbb)" d="M 593.814509 179.1 
L 593.814509 48 
L 628.057813 48 
L 628.057813 179.1 
z
" style="fill:#808080;opacity:0.5;stroke:#808080;stroke-linejoin:miter;"/>
   </g>
   <g id="patch_47">
    <path clip-path="url(#p92089f4bbb)" d="M 580.117188 179.1 
L 580.117188 48 
L 593.814509 48 
L 593.814509 179.1 
z
" style="fill:#808080;opacity:0.2;stroke:#808080;stroke-linejoin:miter;"/>
   </g>
   <g id="patch_48">
    <path clip-path="url(#p92089f4bbb)" d="M 641.755134 179.1 
L 641.755134 48 
L 675.998438 48 
L 675.998438 179.1 
z
" style="fill:#808080;opacity:0.5;stroke:#808080;stroke-linejoin:miter;"/>
   </g>
   <g id="patch_49">
    <path clip-path="url(#p92089f4bbb)" d="M 628.057813 179.1 
L 628.057813 48 
L 641.755134 48 
L 641.755134 179.1 
z
" style="fill:#808080;opacity:0.2;stroke:#808080;stroke-linejoin:miter;"/>
   </g>
   <g id="patch_50">
    <path clip-path="url(#p92089f4bbb)" d="M 689.695759 179.1 
L 689.695759 48 
L 723.939063 48 
L 723.939063 179.1 
z
" style="fill:#808080;opacity:0.5;stroke:#808080;stroke-linejoin:miter;"/>
   </g>
   <g id="patch_51">
    <path clip-path="url(#p92089f4bbb)" d="M 675.998438 179.1 
L 675.998438 48 
L 689.695759 48 
L 689.695759 179.1 
z
" style="fill:#808080;opacity:0.2;stroke:#808080;stroke-linejoin:miter;"/>
   </g>
   <g id="patch_52">
    <path clip-path="url(#p92089f4bbb)" d="M 124.68125 179.1 
L 124.68125 48 
L 148.651563 48 
L 148.651563 179.1 
z
" style="fill:#808080;opacity:0.5;stroke:#808080;stroke-linejoin:miter;"/>
   </g>
   <g id="matplotlib.axis_1">
    <g id="xtick_1">
     <g id="line2d_1">
      <defs>
       <path d="M 0 0 
L 0 3.5 
" id="m100730befd" style="stroke:#000000;stroke-width:0.8;"/>
      </defs>
      <g>
       <use style="stroke:#000000;stroke-width:0.8;" x="28.8" xlink:href="#m100730befd" y="310.2"/>
      </g>
     </g>
     <g id="text_1">
      <!-- 0 -->
      <defs>
       <path d="M 31.78125 66.40625 
Q 24.171875 66.40625 20.328125 58.90625 
Q 16.5 51.421875 16.5 36.375 
Q 16.5 21.390625 20.328125 13.890625 
Q 24.171875 6.390625 31.78125 6.390625 
Q 39.453125 6.390625 43.28125 13.890625 
Q 47.125 21.390625 47.125 36.375 
Q 47.125 51.421875 43.28125 58.90625 
Q 39.453125 66.40625 31.78125 66.40625 
z
M 31.78125 74.21875 
Q 44.046875 74.21875 50.515625 64.515625 
Q 56.984375 54.828125 56.984375 36.375 
Q 56.984375 17.96875 50.515625 8.265625 
Q 44.046875 -1.421875 31.78125 -1.421875 
Q 19.53125 -1.421875 13.0625 8.265625 
Q 6.59375 17.96875 6.59375 36.375 
Q 6.59375 54.828125 13.0625 64.515625 
Q 19.53125 74.21875 31.78125 74.21875 
z
" id="DejaVuSans-48"/>
      </defs>
      <g transform="translate(24.34625 327.837813)scale(0.14 -0.14)">
       <use xlink:href="#DejaVuSans-48"/>
      </g>
     </g>
    </g>
    <g id="xtick_2">
     <g id="line2d_2">
      <g>
       <use style="stroke:#000000;stroke-width:0.8;" x="76.740625" xlink:href="#m100730befd" y="310.2"/>
      </g>
     </g>
     <g id="text_2">
      <!-- 2 -->
      <defs>
       <path d="M 19.1875 8.296875 
L 53.609375 8.296875 
L 53.609375 0 
L 7.328125 0 
L 7.328125 8.296875 
Q 12.9375 14.109375 22.625 23.890625 
Q 32.328125 33.6875 34.8125 36.53125 
Q 39.546875 41.84375 41.421875 45.53125 
Q 43.3125 49.21875 43.3125 52.78125 
Q 43.3125 58.59375 39.234375 62.25 
Q 35.15625 65.921875 28.609375 65.921875 
Q 23.96875 65.921875 18.8125 64.3125 
Q 13.671875 62.703125 7.8125 59.421875 
L 7.8125 69.390625 
Q 13.765625 71.78125 18.9375 73 
Q 24.125 74.21875 28.421875 74.21875 
Q 39.75 74.21875 46.484375 68.546875 
Q 53.21875 62.890625 53.21875 53.421875 
Q 53.21875 48.921875 51.53125 44.890625 
Q 49.859375 40.875 45.40625 35.40625 
Q 44.1875 33.984375 37.640625 27.21875 
Q 31.109375 20.453125 19.1875 8.296875 
z
" id="DejaVuSans-50"/>
      </defs>
      <g transform="translate(72.286875 327.837813)scale(0.14 -0.14)">
       <use xlink:href="#DejaVuSans-50"/>
      </g>
     </g>
    </g>
    <g id="xtick_3">
     <g id="line2d_3">
      <g>
       <use style="stroke:#000000;stroke-width:0.8;" x="124.68125" xlink:href="#m100730befd" y="310.2"/>
      </g>
     </g>
     <g id="text_3">
      <!-- 4 -->
      <defs>
       <path d="M 37.796875 64.3125 
L 12.890625 25.390625 
L 37.796875 25.390625 
z
M 35.203125 72.90625 
L 47.609375 72.90625 
L 47.609375 25.390625 
L 58.015625 25.390625 
L 58.015625 17.1875 
L 47.609375 17.1875 
L 47.609375 0 
L 37.796875 0 
L 37.796875 17.1875 
L 4.890625 17.1875 
L 4.890625 26.703125 
z
" id="DejaVuSans-52"/>
      </defs>
      <g transform="translate(120.2275 327.837813)scale(0.14 -0.14)">
       <use xlink:href="#DejaVuSans-52"/>
      </g>
     </g>
    </g>
    <g id="xtick_4">
     <g id="line2d_4">
      <g>
       <use style="stroke:#000000;stroke-width:0.8;" x="172.621875" xlink:href="#m100730befd" y="310.2"/>
      </g>
     </g>
     <g id="text_4">
      <!-- 6 -->
      <defs>
       <path d="M 33.015625 40.375 
Q 26.375 40.375 22.484375 35.828125 
Q 18.609375 31.296875 18.609375 23.390625 
Q 18.609375 15.53125 22.484375 10.953125 
Q 26.375 6.390625 33.015625 6.390625 
Q 39.65625 6.390625 43.53125 10.953125 
Q 47.40625 15.53125 47.40625 23.390625 
Q 47.40625 31.296875 43.53125 35.828125 
Q 39.65625 40.375 33.015625 40.375 
z
M 52.59375 71.296875 
L 52.59375 62.3125 
Q 48.875 64.0625 45.09375 64.984375 
Q 41.3125 65.921875 37.59375 65.921875 
Q 27.828125 65.921875 22.671875 59.328125 
Q 17.53125 52.734375 16.796875 39.40625 
Q 19.671875 43.65625 24.015625 45.921875 
Q 28.375 48.1875 33.59375 48.1875 
Q 44.578125 48.1875 50.953125 41.515625 
Q 57.328125 34.859375 57.328125 23.390625 
Q 57.328125 12.15625 50.6875 5.359375 
Q 44.046875 -1.421875 33.015625 -1.421875 
Q 20.359375 -1.421875 13.671875 8.265625 
Q 6.984375 17.96875 6.984375 36.375 
Q 6.984375 53.65625 15.1875 63.9375 
Q 23.390625 74.21875 37.203125 74.21875 
Q 40.921875 74.21875 44.703125 73.484375 
Q 48.484375 72.75 52.59375 71.296875 
z
" id="DejaVuSans-54"/>
      </defs>
      <g transform="translate(168.168125 327.837813)scale(0.14 -0.14)">
       <use xlink:href="#DejaVuSans-54"/>
      </g>
     </g>
    </g>
    <g id="xtick_5">
     <g id="line2d_5">
      <g>
       <use style="stroke:#000000;stroke-width:0.8;" x="220.5625" xlink:href="#m100730befd" y="310.2"/>
      </g>
     </g>
     <g id="text_5">
      <!-- 8 -->
      <defs>
       <path d="M 31.78125 34.625 
Q 24.75 34.625 20.71875 30.859375 
Q 16.703125 27.09375 16.703125 20.515625 
Q 16.703125 13.921875 20.71875 10.15625 
Q 24.75 6.390625 31.78125 6.390625 
Q 38.8125 6.390625 42.859375 10.171875 
Q 46.921875 13.96875 46.921875 20.515625 
Q 46.921875 27.09375 42.890625 30.859375 
Q 38.875 34.625 31.78125 34.625 
z
M 21.921875 38.8125 
Q 15.578125 40.375 12.03125 44.71875 
Q 8.5 49.078125 8.5 55.328125 
Q 8.5 64.0625 14.71875 69.140625 
Q 20.953125 74.21875 31.78125 74.21875 
Q 42.671875 74.21875 48.875 69.140625 
Q 55.078125 64.0625 55.078125 55.328125 
Q 55.078125 49.078125 51.53125 44.71875 
Q 48 40.375 41.703125 38.8125 
Q 48.828125 37.15625 52.796875 32.3125 
Q 56.78125 27.484375 56.78125 20.515625 
Q 56.78125 9.90625 50.3125 4.234375 
Q 43.84375 -1.421875 31.78125 -1.421875 
Q 19.734375 -1.421875 13.25 4.234375 
Q 6.78125 9.90625 6.78125 20.515625 
Q 6.78125 27.484375 10.78125 32.3125 
Q 14.796875 37.15625 21.921875 38.8125 
z
M 18.3125 54.390625 
Q 18.3125 48.734375 21.84375 45.5625 
Q 25.390625 42.390625 31.78125 42.390625 
Q 38.140625 42.390625 41.71875 45.5625 
Q 45.3125 48.734375 45.3125 54.390625 
Q 45.3125 60.0625 41.71875 63.234375 
Q 38.140625 66.40625 31.78125 66.40625 
Q 25.390625 66.40625 21.84375 63.234375 
Q 18.3125 60.0625 18.3125 54.390625 
z
" id="DejaVuSans-56"/>
      </defs>
      <g transform="translate(216.10875 327.837813)scale(0.14 -0.14)">
       <use xlink:href="#DejaVuSans-56"/>
      </g>
     </g>
    </g>
    <g id="xtick_6">
     <g id="line2d_6">
      <g>
       <use style="stroke:#000000;stroke-width:0.8;" x="268.503125" xlink:href="#m100730befd" y="310.2"/>
      </g>
     </g>
     <g id="text_6">
      <!-- 10 -->
      <defs>
       <path d="M 12.40625 8.296875 
L 28.515625 8.296875 
L 28.515625 63.921875 
L 10.984375 60.40625 
L 10.984375 69.390625 
L 28.421875 72.90625 
L 38.28125 72.90625 
L 38.28125 8.296875 
L 54.390625 8.296875 
L 54.390625 0 
L 12.40625 0 
z
" id="DejaVuSans-49"/>
      </defs>
      <g transform="translate(259.595625 327.837813)scale(0.14 -0.14)">
       <use xlink:href="#DejaVuSans-49"/>
       <use x="63.623047" xlink:href="#DejaVuSans-48"/>
      </g>
     </g>
    </g>
    <g id="xtick_7">
     <g id="line2d_7">
      <g>
       <use style="stroke:#000000;stroke-width:0.8;" x="316.44375" xlink:href="#m100730befd" y="310.2"/>
      </g>
     </g>
     <g id="text_7">
      <!-- 12 -->
      <g transform="translate(307.53625 327.837813)scale(0.14 -0.14)">
       <use xlink:href="#DejaVuSans-49"/>
       <use x="63.623047" xlink:href="#DejaVuSans-50"/>
      </g>
     </g>
    </g>
    <g id="xtick_8">
     <g id="line2d_8">
      <g>
       <use style="stroke:#000000;stroke-width:0.8;" x="364.384375" xlink:href="#m100730befd" y="310.2"/>
      </g>
     </g>
     <g id="text_8">
      <!-- 14 -->
      <g transform="translate(355.476875 327.837813)scale(0.14 -0.14)">
       <use xlink:href="#DejaVuSans-49"/>
       <use x="63.623047" xlink:href="#DejaVuSans-52"/>
      </g>
     </g>
    </g>
    <g id="xtick_9">
     <g id="line2d_9">
      <g>
       <use style="stroke:#000000;stroke-width:0.8;" x="412.325" xlink:href="#m100730befd" y="310.2"/>
      </g>
     </g>
     <g id="text_9">
      <!-- 16 -->
      <g transform="translate(403.4175 327.837813)scale(0.14 -0.14)">
       <use xlink:href="#DejaVuSans-49"/>
       <use x="63.623047" xlink:href="#DejaVuSans-54"/>
      </g>
     </g>
    </g>
    <g id="text_10">
     <!-- weeks -->
     <defs>
      <path d="M 4.203125 54.6875 
L 13.1875 54.6875 
L 24.421875 12.015625 
L 35.59375 54.6875 
L 46.1875 54.6875 
L 57.421875 12.015625 
L 68.609375 54.6875 
L 77.59375 54.6875 
L 63.28125 0 
L 52.6875 0 
L 40.921875 44.828125 
L 29.109375 0 
L 18.5 0 
z
" id="DejaVuSans-119"/>
      <path d="M 56.203125 29.59375 
L 56.203125 25.203125 
L 14.890625 25.203125 
Q 15.484375 15.921875 20.484375 11.0625 
Q 25.484375 6.203125 34.421875 6.203125 
Q 39.59375 6.203125 44.453125 7.46875 
Q 49.3125 8.734375 54.109375 11.28125 
L 54.109375 2.78125 
Q 49.265625 0.734375 44.1875 -0.34375 
Q 39.109375 -1.421875 33.890625 -1.421875 
Q 20.796875 -1.421875 13.15625 6.1875 
Q 5.515625 13.8125 5.515625 26.8125 
Q 5.515625 40.234375 12.765625 48.109375 
Q 20.015625 56 32.328125 56 
Q 43.359375 56 49.78125 48.890625 
Q 56.203125 41.796875 56.203125 29.59375 
z
M 47.21875 32.234375 
Q 47.125 39.59375 43.09375 43.984375 
Q 39.0625 48.390625 32.421875 48.390625 
Q 24.90625 48.390625 20.390625 44.140625 
Q 15.875 39.890625 15.1875 32.171875 
z
" id="DejaVuSans-101"/>
      <path d="M 9.078125 75.984375 
L 18.109375 75.984375 
L 18.109375 31.109375 
L 44.921875 54.6875 
L 56.390625 54.6875 
L 27.390625 29.109375 
L 57.625 0 
L 45.90625 0 
L 18.109375 26.703125 
L 18.109375 0 
L 9.078125 0 
z
" id="DejaVuSans-107"/>
      <path d="M 44.28125 53.078125 
L 44.28125 44.578125 
Q 40.484375 46.53125 36.375 47.5 
Q 32.28125 48.484375 27.875 48.484375 
Q 21.1875 48.484375 17.84375 46.4375 
Q 14.5 44.390625 14.5 40.28125 
Q 14.5 37.15625 16.890625 35.375 
Q 19.28125 33.59375 26.515625 31.984375 
L 29.59375 31.296875 
Q 39.15625 29.25 43.1875 25.515625 
Q 47.21875 21.78125 47.21875 15.09375 
Q 47.21875 7.46875 41.1875 3.015625 
Q 35.15625 -1.421875 24.609375 -1.421875 
Q 20.21875 -1.421875 15.453125 -0.5625 
Q 10.6875 0.296875 5.421875 2 
L 5.421875 11.28125 
Q 10.40625 8.6875 15.234375 7.390625 
Q 20.0625 6.109375 24.8125 6.109375 
Q 31.15625 6.109375 34.5625 8.28125 
Q 37.984375 10.453125 37.984375 14.40625 
Q 37.984375 18.0625 35.515625 20.015625 
Q 33.0625 21.96875 24.703125 23.78125 
L 21.578125 24.515625 
Q 13.234375 26.265625 9.515625 29.90625 
Q 5.8125 33.546875 5.8125 39.890625 
Q 5.8125 47.609375 11.28125 51.796875 
Q 16.75 56 26.8125 56 
Q 31.78125 56 36.171875 55.265625 
Q 40.578125 54.546875 44.28125 53.078125 
z
" id="DejaVuSans-115"/>
     </defs>
     <g transform="translate(198.523438 345.387188)scale(0.14 -0.14)">
      <use xlink:href="#DejaVuSans-119"/>
      <use x="81.787109" xlink:href="#DejaVuSans-101"/>
      <use x="143.310547" xlink:href="#DejaVuSans-101"/>
      <use x="204.833984" xlink:href="#DejaVuSans-107"/>
      <use x="262.744141" xlink:href="#DejaVuSans-115"/>
     </g>
    </g>
   </g>
   <g id="matplotlib.axis_2">
    <g id="text_11">
     <!-- number of cases -->
     <defs>
      <path d="M 54.890625 33.015625 
L 54.890625 0 
L 45.90625 0 
L 45.90625 32.71875 
Q 45.90625 40.484375 42.875 44.328125 
Q 39.84375 48.1875 33.796875 48.1875 
Q 26.515625 48.1875 22.3125 43.546875 
Q 18.109375 38.921875 18.109375 30.90625 
L 18.109375 0 
L 9.078125 0 
L 9.078125 54.6875 
L 18.109375 54.6875 
L 18.109375 46.1875 
Q 21.34375 51.125 25.703125 53.5625 
Q 30.078125 56 35.796875 56 
Q 45.21875 56 50.046875 50.171875 
Q 54.890625 44.34375 54.890625 33.015625 
z
" id="DejaVuSans-110"/>
      <path d="M 8.5 21.578125 
L 8.5 54.6875 
L 17.484375 54.6875 
L 17.484375 21.921875 
Q 17.484375 14.15625 20.5 10.265625 
Q 23.53125 6.390625 29.59375 6.390625 
Q 36.859375 6.390625 41.078125 11.03125 
Q 45.3125 15.671875 45.3125 23.6875 
L 45.3125 54.6875 
L 54.296875 54.6875 
L 54.296875 0 
L 45.3125 0 
L 45.3125 8.40625 
Q 42.046875 3.421875 37.71875 1 
Q 33.40625 -1.421875 27.6875 -1.421875 
Q 18.265625 -1.421875 13.375 4.4375 
Q 8.5 10.296875 8.5 21.578125 
z
M 31.109375 56 
z
" id="DejaVuSans-117"/>
      <path d="M 52 44.1875 
Q 55.375 50.25 60.0625 53.125 
Q 64.75 56 71.09375 56 
Q 79.640625 56 84.28125 50.015625 
Q 88.921875 44.046875 88.921875 33.015625 
L 88.921875 0 
L 79.890625 0 
L 79.890625 32.71875 
Q 79.890625 40.578125 77.09375 44.375 
Q 74.3125 48.1875 68.609375 48.1875 
Q 61.625 48.1875 57.5625 43.546875 
Q 53.515625 38.921875 53.515625 30.90625 
L 53.515625 0 
L 44.484375 0 
L 44.484375 32.71875 
Q 44.484375 40.625 41.703125 44.40625 
Q 38.921875 48.1875 33.109375 48.1875 
Q 26.21875 48.1875 22.15625 43.53125 
Q 18.109375 38.875 18.109375 30.90625 
L 18.109375 0 
L 9.078125 0 
L 9.078125 54.6875 
L 18.109375 54.6875 
L 18.109375 46.1875 
Q 21.1875 51.21875 25.484375 53.609375 
Q 29.78125 56 35.6875 56 
Q 41.65625 56 45.828125 52.96875 
Q 50 49.953125 52 44.1875 
z
" id="DejaVuSans-109"/>
      <path d="M 48.6875 27.296875 
Q 48.6875 37.203125 44.609375 42.84375 
Q 40.53125 48.484375 33.40625 48.484375 
Q 26.265625 48.484375 22.1875 42.84375 
Q 18.109375 37.203125 18.109375 27.296875 
Q 18.109375 17.390625 22.1875 11.75 
Q 26.265625 6.109375 33.40625 6.109375 
Q 40.53125 6.109375 44.609375 11.75 
Q 48.6875 17.390625 48.6875 27.296875 
z
M 18.109375 46.390625 
Q 20.953125 51.265625 25.265625 53.625 
Q 29.59375 56 35.59375 56 
Q 45.5625 56 51.78125 48.09375 
Q 58.015625 40.1875 58.015625 27.296875 
Q 58.015625 14.40625 51.78125 6.484375 
Q 45.5625 -1.421875 35.59375 -1.421875 
Q 29.59375 -1.421875 25.265625 0.953125 
Q 20.953125 3.328125 18.109375 8.203125 
L 18.109375 0 
L 9.078125 0 
L 9.078125 75.984375 
L 18.109375 75.984375 
z
" id="DejaVuSans-98"/>
      <path d="M 41.109375 46.296875 
Q 39.59375 47.171875 37.8125 47.578125 
Q 36.03125 48 33.890625 48 
Q 26.265625 48 22.1875 43.046875 
Q 18.109375 38.09375 18.109375 28.8125 
L 18.109375 0 
L 9.078125 0 
L 9.078125 54.6875 
L 18.109375 54.6875 
L 18.109375 46.1875 
Q 20.953125 51.171875 25.484375 53.578125 
Q 30.03125 56 36.53125 56 
Q 37.453125 56 38.578125 55.875 
Q 39.703125 55.765625 41.0625 55.515625 
z
" id="DejaVuSans-114"/>
      <path id="DejaVuSans-32"/>
      <path d="M 30.609375 48.390625 
Q 23.390625 48.390625 19.1875 42.75 
Q 14.984375 37.109375 14.984375 27.296875 
Q 14.984375 17.484375 19.15625 11.84375 
Q 23.34375 6.203125 30.609375 6.203125 
Q 37.796875 6.203125 41.984375 11.859375 
Q 46.1875 17.53125 46.1875 27.296875 
Q 46.1875 37.015625 41.984375 42.703125 
Q 37.796875 48.390625 30.609375 48.390625 
z
M 30.609375 56 
Q 42.328125 56 49.015625 48.375 
Q 55.71875 40.765625 55.71875 27.296875 
Q 55.71875 13.875 49.015625 6.21875 
Q 42.328125 -1.421875 30.609375 -1.421875 
Q 18.84375 -1.421875 12.171875 6.21875 
Q 5.515625 13.875 5.515625 27.296875 
Q 5.515625 40.765625 12.171875 48.375 
Q 18.84375 56 30.609375 56 
z
" id="DejaVuSans-111"/>
      <path d="M 37.109375 75.984375 
L 37.109375 68.5 
L 28.515625 68.5 
Q 23.6875 68.5 21.796875 66.546875 
Q 19.921875 64.59375 19.921875 59.515625 
L 19.921875 54.6875 
L 34.71875 54.6875 
L 34.71875 47.703125 
L 19.921875 47.703125 
L 19.921875 0 
L 10.890625 0 
L 10.890625 47.703125 
L 2.296875 47.703125 
L 2.296875 54.6875 
L 10.890625 54.6875 
L 10.890625 58.5 
Q 10.890625 67.625 15.140625 71.796875 
Q 19.390625 75.984375 28.609375 75.984375 
z
" id="DejaVuSans-102"/>
      <path d="M 48.78125 52.59375 
L 48.78125 44.1875 
Q 44.96875 46.296875 41.140625 47.34375 
Q 37.3125 48.390625 33.40625 48.390625 
Q 24.65625 48.390625 19.8125 42.84375 
Q 14.984375 37.3125 14.984375 27.296875 
Q 14.984375 17.28125 19.8125 11.734375 
Q 24.65625 6.203125 33.40625 6.203125 
Q 37.3125 6.203125 41.140625 7.25 
Q 44.96875 8.296875 48.78125 10.40625 
L 48.78125 2.09375 
Q 45.015625 0.34375 40.984375 -0.53125 
Q 36.96875 -1.421875 32.421875 -1.421875 
Q 20.0625 -1.421875 12.78125 6.34375 
Q 5.515625 14.109375 5.515625 27.296875 
Q 5.515625 40.671875 12.859375 48.328125 
Q 20.21875 56 33.015625 56 
Q 37.15625 56 41.109375 55.140625 
Q 45.0625 54.296875 48.78125 52.59375 
z
" id="DejaVuSans-99"/>
      <path d="M 34.28125 27.484375 
Q 23.390625 27.484375 19.1875 25 
Q 14.984375 22.515625 14.984375 16.5 
Q 14.984375 11.71875 18.140625 8.90625 
Q 21.296875 6.109375 26.703125 6.109375 
Q 34.1875 6.109375 38.703125 11.40625 
Q 43.21875 16.703125 43.21875 25.484375 
L 43.21875 27.484375 
z
M 52.203125 31.203125 
L 52.203125 0 
L 43.21875 0 
L 43.21875 8.296875 
Q 40.140625 3.328125 35.546875 0.953125 
Q 30.953125 -1.421875 24.3125 -1.421875 
Q 15.921875 -1.421875 10.953125 3.296875 
Q 6 8.015625 6 15.921875 
Q 6 25.140625 12.171875 29.828125 
Q 18.359375 34.515625 30.609375 34.515625 
L 43.21875 34.515625 
L 43.21875 35.40625 
Q 43.21875 41.609375 39.140625 45 
Q 35.0625 48.390625 27.6875 48.390625 
Q 23 48.390625 18.546875 47.265625 
Q 14.109375 46.140625 10.015625 43.890625 
L 10.015625 52.203125 
Q 14.9375 54.109375 19.578125 55.046875 
Q 24.21875 56 28.609375 56 
Q 40.484375 56 46.34375 49.84375 
Q 52.203125 43.703125 52.203125 31.203125 
z
" id="DejaVuSans-97"/>
     </defs>
     <g transform="translate(21.888438 237.355313)rotate(-90)scale(0.14 -0.14)">
      <use xlink:href="#DejaVuSans-110"/>
      <use x="63.378906" xlink:href="#DejaVuSans-117"/>
      <use x="126.757812" xlink:href="#DejaVuSans-109"/>
      <use x="224.169922" xlink:href="#DejaVuSans-98"/>
      <use x="287.646484" xlink:href="#DejaVuSans-101"/>
      <use x="349.169922" xlink:href="#DejaVuSans-114"/>
      <use x="390.283203" xlink:href="#DejaVuSans-32"/>
      <use x="422.070312" xlink:href="#DejaVuSans-111"/>
      <use x="483.251953" xlink:href="#DejaVuSans-102"/>
      <use x="518.457031" xlink:href="#DejaVuSans-32"/>
      <use x="550.244141" xlink:href="#DejaVuSans-99"/>
      <use x="605.224609" xlink:href="#DejaVuSans-97"/>
      <use x="666.503906" xlink:href="#DejaVuSans-115"/>
      <use x="718.603516" xlink:href="#DejaVuSans-101"/>
      <use x="780.126953" xlink:href="#DejaVuSans-115"/>
     </g>
    </g>
   </g>
   <g id="line2d_10">
    <path clip-path="url(#p92089f4bbb)" d="M 124.68125 198.764088 
L 125.023683 198.764088 
L 127.078281 203.749757 
L 128.10558 205.778092 
L 129.132879 207.365273 
L 130.160179 208.48326 
L 130.845045 208.97078 
L 131.529911 209.261328 
L 132.214777 209.36655 
L 132.899643 209.300136 
L 133.926942 208.911317 
L 134.954241 208.22127 
L 135.98154 207.280013 
L 137.351272 205.713249 
L 139.063438 203.383652 
L 141.118036 200.492697 
L 142.145335 199.375861 
L 143.172634 198.611494 
L 143.8575 198.318084 
L 144.542366 198.201668 
L 145.227232 198.259886 
L 145.912098 198.486542 
L 146.939397 199.12211 
L 147.966696 200.078102 
L 148.993996 201.311716 
L 150.363728 203.31006 
L 152.075893 206.205084 
L 155.15779 211.953229 
L 160.636719 222.193304 
L 164.061049 228.077775 
L 168.855112 235.766157 
L 173.991607 243.599201 
L 175.361339 245.438573 
L 176.388638 246.558752 
L 177.415938 247.408909 
L 178.443237 247.978071 
L 179.470536 248.274764 
L 180.497835 248.319777 
L 181.525134 248.140697 
L 182.552433 247.767926 
L 183.922165 247.02201 
L 185.63433 245.782161 
L 188.031362 243.681763 
L 189.401094 242.573476 
L 190.428393 241.95029 
L 191.455692 241.554651 
L 192.482991 241.402504 
L 193.51029 241.491746 
L 194.537589 241.808202 
L 195.564888 242.330241 
L 196.934621 243.301562 
L 198.646786 244.864631 
L 201.043817 247.449453 
L 211.316808 258.997398 
L 216.110871 263.739486 
L 221.932232 269.206757 
L 223.644397 270.583538 
L 225.014129 271.391324 
L 226.383862 271.89369 
L 227.753594 272.097991 
L 229.123326 272.036003 
L 230.493058 271.75026 
L 232.205223 271.145934 
L 234.259821 270.160941 
L 238.026585 268.248081 
L 239.396317 267.886546 
L 240.766049 267.791336 
L 242.135781 267.956685 
L 243.505513 268.356205 
L 245.217679 269.128991 
L 247.272277 270.348834 
L 250.354174 272.478289 
L 257.545268 277.505584 
L 261.996897 280.28863 
L 269.187991 284.502975 
L 271.585022 285.735159 
L 273.297188 286.327718 
L 274.66692 286.588972 
L 276.379085 286.664015 
L 278.09125 286.50166 
L 280.145848 286.06837 
L 282.885313 285.222914 
L 285.624777 284.345604 
L 287.336942 284.039148 
L 289.049107 283.988995 
L 290.761272 284.185397 
L 292.815871 284.693639 
L 295.212902 285.555467 
L 299.322098 287.326354 
L 305.828326 290.109275 
L 311.649688 292.319753 
L 318.840781 294.856953 
L 320.895379 295.358461 
L 322.949978 295.600243 
L 325.004576 295.597969 
L 327.401607 295.355176 
L 330.483504 294.796403 
L 334.250268 294.081682 
L 336.304866 293.946585 
L 338.359464 294.038365 
L 340.756496 294.388191 
L 343.838393 295.095046 
L 360.617612 299.339169 
L 367.808705 300.852731 
L 370.205737 301.106564 
L 372.602768 301.145664 
L 375.684665 300.952189 
L 380.136295 300.40503 
L 383.218192 300.128973 
L 385.957656 300.142506 
L 389.039554 300.419577 
L 393.491183 301.098642 
L 405.476339 303.012185 
L 412.667433 304.015006 
L 412.667433 304.015006 
" style="fill:none;stroke:#4d6619;stroke-linecap:square;stroke-width:1.5;"/>
   </g>
   <g id="line2d_11">
    <path clip-path="url(#p92089f4bbb)" d="M 124.68125 198.764088 
L 125.023683 198.764088 
L 127.763147 205.535259 
L 130.160179 210.926492 
L 132.55721 215.799616 
L 134.954241 220.215334 
L 137.693705 224.79967 
L 140.775603 229.498142 
L 151.048594 244.443734 
L 152.418326 245.948109 
L 153.445625 246.756124 
L 154.472924 247.272456 
L 155.500223 247.50495 
L 156.527522 247.47465 
L 157.554821 247.209997 
L 158.582121 246.742591 
L 159.951853 245.858739 
L 161.664018 244.432076 
L 164.061049 242.054405 
L 165.430781 240.796799 
L 166.45808 240.07628 
L 167.485379 239.598957 
L 168.512679 239.381761 
L 169.539978 239.42244 
L 170.567277 239.705905 
L 171.594576 240.209137 
L 172.964308 241.174603 
L 174.33404 242.411977 
L 176.388638 244.593003 
L 187.346496 256.802434 
L 193.852723 263.1141 
L 198.989219 267.926866 
L 200.358951 268.901873 
L 201.728683 269.560388 
L 202.755982 269.83635 
L 203.783281 269.933962 
L 205.153013 269.814127 
L 206.522746 269.451201 
L 208.234911 268.728978 
L 210.289509 267.580236 
L 214.056272 265.364216 
L 215.426004 264.927741 
L 216.795737 264.785099 
L 218.165469 264.929934 
L 219.535201 265.333219 
L 220.904933 265.954857 
L 222.617098 266.969663 
L 225.356563 268.903612 
L 233.574955 274.887962 
L 238.026585 277.744115 
L 246.929844 283.170029 
L 248.642009 283.921143 
L 250.011741 284.291656 
L 251.381473 284.453202 
L 253.093638 284.3903 
L 254.805804 284.085491 
L 256.860402 283.483662 
L 259.599866 282.425934 
L 261.654464 281.675804 
L 263.366629 281.304695 
L 264.736362 281.216679 
L 266.448527 281.361812 
L 268.160692 281.754085 
L 270.21529 282.477195 
L 273.297188 283.853822 
L 282.200446 287.979833 
L 288.706674 290.608545 
L 295.212902 293.097137 
L 296.925067 293.538033 
L 298.637232 293.771637 
L 300.349397 293.805858 
L 302.403996 293.627785 
L 304.801027 293.199786 
L 311.649688 291.799734 
L 313.704286 291.805888 
L 315.758884 292.053188 
L 318.155915 292.574877 
L 321.922679 293.65954 
L 330.483504 296.174858 
L 339.729196 298.533592 
L 344.180826 299.526491 
L 346.577857 299.772676 
L 348.974888 299.773496 
L 351.714353 299.544981 
L 355.481116 298.993632 
L 358.563013 298.593218 
L 360.960045 298.517431 
L 363.357076 298.659313 
L 366.438973 299.082799 
L 372.260335 300.181275 
L 380.136295 301.599771 
L 391.779018 303.405738 
L 394.518482 303.597939 
L 397.600379 303.575749 
L 401.367143 303.313021 
L 407.873371 302.811635 
L 410.955268 302.879124 
L 412.667433 303.001615 
L 412.667433 303.001615 
" style="fill:none;stroke:#63b8ff;stroke-linecap:square;stroke-width:1.5;"/>
   </g>
   <g id="line2d_12">
    <path clip-path="url(#p92089f4bbb)" d="M -1 172.502473 
L 0.720491 160.397721 
L 2.775089 144.558869 
L 4.829688 127.067702 
L 6.884286 107.747218 
L 8.938884 86.400016 
L 10.993482 62.808334 
L 13.04808 36.732628 
L 15.102679 7.90927 
L 15.697683 -1 
M 80.092236 -1 
L 82.90442 18.515779 
L 85.986317 38.499993 
L 89.068214 57.116162 
L 92.150112 74.457647 
L 95.232009 90.61139 
L 98.313906 105.658494 
L 101.395804 119.674619 
L 104.477701 132.730331 
L 107.559598 144.891405 
L 110.641496 156.219137 
L 113.723393 166.770632 
L 116.80529 176.599082 
L 119.887188 185.754038 
L 122.969085 194.281652 
L 124.338817 197.881687 
L 124.338817 197.881687 
" style="fill:none;stroke:#ff4500;stroke-linecap:square;stroke-width:1.5;"/>
   </g>
   <g id="line2d_13">
    <path clip-path="url(#p92089f4bbb)" d="M -1 172.502473 
L 0.720491 160.397721 
L 2.775089 144.558869 
L 4.829688 127.067702 
L 6.884286 107.747218 
L 8.938884 86.400016 
L 10.993482 62.808334 
L 13.04808 36.732628 
L 15.102679 7.90927 
L 15.697683 -1 
M 80.092236 -1 
L 82.90442 18.515779 
L 85.986317 38.499993 
L 89.068214 57.116162 
L 92.150112 74.457647 
L 95.232009 90.61139 
L 98.313906 105.658494 
L 101.395804 119.674619 
L 104.477701 132.730331 
L 107.559598 144.891405 
L 110.641496 156.219137 
L 113.723393 166.770632 
L 116.80529 176.599082 
L 119.887188 185.754038 
L 122.969085 194.281652 
L 124.338817 197.881687 
L 124.338817 197.881687 
" style="fill:none;stroke:#ff4500;stroke-linecap:square;stroke-width:1.5;"/>
   </g>
   <g id="patch_53">
    <path d="M 28.8 310.2 
L 28.8 48 
" style="fill:none;stroke:#000000;stroke-linecap:square;stroke-linejoin:miter;stroke-width:0.8;"/>
   </g>
   <g id="patch_54">
    <path d="M 412.325 310.2 
L 412.325 48 
" style="fill:none;stroke:#000000;stroke-linecap:square;stroke-linejoin:miter;stroke-width:0.8;"/>
   </g>
   <g id="patch_55">
    <path d="M 28.8 310.2 
L 412.325 310.2 
" style="fill:none;stroke:#000000;stroke-linecap:square;stroke-linejoin:miter;stroke-width:0.8;"/>
   </g>
   <g id="patch_56">
    <path d="M 28.8 48 
L 412.325 48 
" style="fill:none;stroke:#000000;stroke-linecap:square;stroke-linejoin:miter;stroke-width:0.8;"/>
   </g>
   <g id="text_12">
    <g id="patch_57">
     <path d="M 243.897143 113.966563 
L 400.003705 113.966563 
L 400.003705 60.943313 
L 243.897143 60.943313 
z
" style="fill:#cfdeff;opacity:0.5;"/>
    </g>
    <!-- increases robustness -->
    <defs>
     <path d="M 9.421875 54.6875 
L 18.40625 54.6875 
L 18.40625 0 
L 9.421875 0 
z
M 9.421875 75.984375 
L 18.40625 75.984375 
L 18.40625 64.59375 
L 9.421875 64.59375 
z
" id="DejaVuSans-105"/>
     <path d="M 18.3125 70.21875 
L 18.3125 54.6875 
L 36.8125 54.6875 
L 36.8125 47.703125 
L 18.3125 47.703125 
L 18.3125 18.015625 
Q 18.3125 11.328125 20.140625 9.421875 
Q 21.96875 7.515625 27.59375 7.515625 
L 36.8125 7.515625 
L 36.8125 0 
L 27.59375 0 
Q 17.1875 0 13.234375 3.875 
Q 9.28125 7.765625 9.28125 18.015625 
L 9.28125 47.703125 
L 2.6875 47.703125 
L 2.6875 54.6875 
L 9.28125 54.6875 
L 9.28125 70.21875 
z
" id="DejaVuSans-116"/>
    </defs>
    <g transform="translate(247.957143 75.641125)scale(0.14 -0.14)">
     <use xlink:href="#DejaVuSans-105"/>
     <use x="27.783203" xlink:href="#DejaVuSans-110"/>
     <use x="91.162109" xlink:href="#DejaVuSans-99"/>
     <use x="146.142578" xlink:href="#DejaVuSans-114"/>
     <use x="187.224609" xlink:href="#DejaVuSans-101"/>
     <use x="248.748047" xlink:href="#DejaVuSans-97"/>
     <use x="310.027344" xlink:href="#DejaVuSans-115"/>
     <use x="362.126953" xlink:href="#DejaVuSans-101"/>
     <use x="423.650391" xlink:href="#DejaVuSans-115"/>
     <use x="475.75" xlink:href="#DejaVuSans-32"/>
     <use x="507.537109" xlink:href="#DejaVuSans-114"/>
     <use x="548.619141" xlink:href="#DejaVuSans-111"/>
     <use x="609.800781" xlink:href="#DejaVuSans-98"/>
     <use x="673.277344" xlink:href="#DejaVuSans-117"/>
     <use x="736.65625" xlink:href="#DejaVuSans-115"/>
     <use x="788.755859" xlink:href="#DejaVuSans-116"/>
     <use x="827.964844" xlink:href="#DejaVuSans-110"/>
     <use x="891.34375" xlink:href="#DejaVuSans-101"/>
     <use x="952.867188" xlink:href="#DejaVuSans-115"/>
     <use x="1004.966797" xlink:href="#DejaVuSans-115"/>
    </g>
    <!-- if lockdown -->
    <defs>
     <path d="M 9.421875 75.984375 
L 18.40625 75.984375 
L 18.40625 0 
L 9.421875 0 
z
" id="DejaVuSans-108"/>
     <path d="M 45.40625 46.390625 
L 45.40625 75.984375 
L 54.390625 75.984375 
L 54.390625 0 
L 45.40625 0 
L 45.40625 8.203125 
Q 42.578125 3.328125 38.25 0.953125 
Q 33.9375 -1.421875 27.875 -1.421875 
Q 17.96875 -1.421875 11.734375 6.484375 
Q 5.515625 14.40625 5.515625 27.296875 
Q 5.515625 40.1875 11.734375 48.09375 
Q 17.96875 56 27.875 56 
Q 33.9375 56 38.25 53.625 
Q 42.578125 51.265625 45.40625 46.390625 
z
M 14.796875 27.296875 
Q 14.796875 17.390625 18.875 11.75 
Q 22.953125 6.109375 30.078125 6.109375 
Q 37.203125 6.109375 41.296875 11.75 
Q 45.40625 17.390625 45.40625 27.296875 
Q 45.40625 37.203125 41.296875 42.84375 
Q 37.203125 48.484375 30.078125 48.484375 
Q 22.953125 48.484375 18.875 42.84375 
Q 14.796875 37.203125 14.796875 27.296875 
z
" id="DejaVuSans-100"/>
    </defs>
    <g transform="translate(282.298705 91.318063)scale(0.14 -0.14)">
     <use xlink:href="#DejaVuSans-105"/>
     <use x="27.783203" xlink:href="#DejaVuSans-102"/>
     <use x="62.988281" xlink:href="#DejaVuSans-32"/>
     <use x="94.775391" xlink:href="#DejaVuSans-108"/>
     <use x="122.558594" xlink:href="#DejaVuSans-111"/>
     <use x="183.740234" xlink:href="#DejaVuSans-99"/>
     <use x="238.720703" xlink:href="#DejaVuSans-107"/>
     <use x="296.630859" xlink:href="#DejaVuSans-100"/>
     <use x="360.107422" xlink:href="#DejaVuSans-111"/>
     <use x="421.289062" xlink:href="#DejaVuSans-119"/>
     <use x="503.076172" xlink:href="#DejaVuSans-110"/>
    </g>
    <!-- strictly adhered -->
    <defs>
     <path d="M 32.171875 -5.078125 
Q 28.375 -14.84375 24.75 -17.8125 
Q 21.140625 -20.796875 15.09375 -20.796875 
L 7.90625 -20.796875 
L 7.90625 -13.28125 
L 13.1875 -13.28125 
Q 16.890625 -13.28125 18.9375 -11.515625 
Q 21 -9.765625 23.484375 -3.21875 
L 25.09375 0.875 
L 2.984375 54.6875 
L 12.5 54.6875 
L 29.59375 11.921875 
L 46.6875 54.6875 
L 56.203125 54.6875 
z
" id="DejaVuSans-121"/>
     <path d="M 54.890625 33.015625 
L 54.890625 0 
L 45.90625 0 
L 45.90625 32.71875 
Q 45.90625 40.484375 42.875 44.328125 
Q 39.84375 48.1875 33.796875 48.1875 
Q 26.515625 48.1875 22.3125 43.546875 
Q 18.109375 38.921875 18.109375 30.90625 
L 18.109375 0 
L 9.078125 0 
L 9.078125 75.984375 
L 18.109375 75.984375 
L 18.109375 46.1875 
Q 21.34375 51.125 25.703125 53.5625 
Q 30.078125 56 35.796875 56 
Q 45.21875 56 50.046875 50.171875 
Q 54.890625 44.34375 54.890625 33.015625 
z
" id="DejaVuSans-104"/>
    </defs>
    <g transform="translate(266.72808 106.995)scale(0.14 -0.14)">
     <use xlink:href="#DejaVuSans-115"/>
     <use x="52.099609" xlink:href="#DejaVuSans-116"/>
     <use x="91.308594" xlink:href="#DejaVuSans-114"/>
     <use x="132.421875" xlink:href="#DejaVuSans-105"/>
     <use x="160.205078" xlink:href="#DejaVuSans-99"/>
     <use x="215.185547" xlink:href="#DejaVuSans-116"/>
     <use x="254.394531" xlink:href="#DejaVuSans-108"/>
     <use x="282.177734" xlink:href="#DejaVuSans-121"/>
     <use x="341.357422" xlink:href="#DejaVuSans-32"/>
     <use x="373.144531" xlink:href="#DejaVuSans-97"/>
     <use x="434.423828" xlink:href="#DejaVuSans-100"/>
     <use x="497.900391" xlink:href="#DejaVuSans-104"/>
     <use x="561.279297" xlink:href="#DejaVuSans-101"/>
     <use x="622.802734" xlink:href="#DejaVuSans-114"/>
     <use x="663.884766" xlink:href="#DejaVuSans-101"/>
     <use x="725.408203" xlink:href="#DejaVuSans-100"/>
    </g>
   </g>
   <g id="text_13">
    <!-- staggered 4-10 cycle -->
    <defs>
     <path d="M 45.40625 27.984375 
Q 45.40625 37.75 41.375 43.109375 
Q 37.359375 48.484375 30.078125 48.484375 
Q 22.859375 48.484375 18.828125 43.109375 
Q 14.796875 37.75 14.796875 27.984375 
Q 14.796875 18.265625 18.828125 12.890625 
Q 22.859375 7.515625 30.078125 7.515625 
Q 37.359375 7.515625 41.375 12.890625 
Q 45.40625 18.265625 45.40625 27.984375 
z
M 54.390625 6.78125 
Q 54.390625 -7.171875 48.1875 -13.984375 
Q 42 -20.796875 29.203125 -20.796875 
Q 24.46875 -20.796875 20.265625 -20.09375 
Q 16.0625 -19.390625 12.109375 -17.921875 
L 12.109375 -9.1875 
Q 16.0625 -11.328125 19.921875 -12.34375 
Q 23.78125 -13.375 27.78125 -13.375 
Q 36.625 -13.375 41.015625 -8.765625 
Q 45.40625 -4.15625 45.40625 5.171875 
L 45.40625 9.625 
Q 42.625 4.78125 38.28125 2.390625 
Q 33.9375 0 27.875 0 
Q 17.828125 0 11.671875 7.65625 
Q 5.515625 15.328125 5.515625 27.984375 
Q 5.515625 40.671875 11.671875 48.328125 
Q 17.828125 56 27.875 56 
Q 33.9375 56 38.28125 53.609375 
Q 42.625 51.21875 45.40625 46.390625 
L 45.40625 54.6875 
L 54.390625 54.6875 
z
" id="DejaVuSans-103"/>
     <path d="M 4.890625 31.390625 
L 31.203125 31.390625 
L 31.203125 23.390625 
L 4.890625 23.390625 
z
" id="DejaVuSans-45"/>
    </defs>
    <g transform="translate(169.197545 172.545)scale(0.14 -0.14)">
     <use xlink:href="#DejaVuSans-115"/>
     <use x="52.099609" xlink:href="#DejaVuSans-116"/>
     <use x="91.308594" xlink:href="#DejaVuSans-97"/>
     <use x="152.587891" xlink:href="#DejaVuSans-103"/>
     <use x="216.064453" xlink:href="#DejaVuSans-103"/>
     <use x="279.541016" xlink:href="#DejaVuSans-101"/>
     <use x="341.064453" xlink:href="#DejaVuSans-114"/>
     <use x="382.146484" xlink:href="#DejaVuSans-101"/>
     <use x="443.669922" xlink:href="#DejaVuSans-100"/>
     <use x="507.146484" xlink:href="#DejaVuSans-32"/>
     <use x="538.933594" xlink:href="#DejaVuSans-52"/>
     <use x="602.556641" xlink:href="#DejaVuSans-45"/>
     <use x="638.640625" xlink:href="#DejaVuSans-49"/>
     <use x="702.263672" xlink:href="#DejaVuSans-48"/>
     <use x="765.886719" xlink:href="#DejaVuSans-32"/>
     <use x="797.673828" xlink:href="#DejaVuSans-99"/>
     <use x="852.654297" xlink:href="#DejaVuSans-121"/>
     <use x="911.833984" xlink:href="#DejaVuSans-99"/>
     <use x="966.814453" xlink:href="#DejaVuSans-108"/>
     <use x="994.597656" xlink:href="#DejaVuSans-101"/>
    </g>
   </g>
   <g id="text_14">
    <!-- 4-10 cycle -->
    <g transform="translate(203.440848 205.32)scale(0.14 -0.14)">
     <use xlink:href="#DejaVuSans-52"/>
     <use x="63.623047" xlink:href="#DejaVuSans-45"/>
     <use x="99.707031" xlink:href="#DejaVuSans-49"/>
     <use x="163.330078" xlink:href="#DejaVuSans-48"/>
     <use x="226.953125" xlink:href="#DejaVuSans-32"/>
     <use x="258.740234" xlink:href="#DejaVuSans-99"/>
     <use x="313.720703" xlink:href="#DejaVuSans-121"/>
     <use x="372.900391" xlink:href="#DejaVuSans-99"/>
     <use x="427.880859" xlink:href="#DejaVuSans-108"/>
     <use x="455.664062" xlink:href="#DejaVuSans-101"/>
    </g>
   </g>
   <g id="text_15">
    <g id="patch_58">
     <path d="M 103.585938 44.971563 
L 337.539063 44.971563 
L 337.539063 7.62525 
L 103.585938 7.62525 
z
" style="fill:#fde2be;opacity:0.5;"/>
    </g>
    <!-- cyclic lockdown with two -->
    <g transform="translate(133.689219 22.323063)scale(0.14 -0.14)">
     <use xlink:href="#DejaVuSans-99"/>
     <use x="54.980469" xlink:href="#DejaVuSans-121"/>
     <use x="114.160156" xlink:href="#DejaVuSans-99"/>
     <use x="169.140625" xlink:href="#DejaVuSans-108"/>
     <use x="196.923828" xlink:href="#DejaVuSans-105"/>
     <use x="224.707031" xlink:href="#DejaVuSans-99"/>
     <use x="279.6875" xlink:href="#DejaVuSans-32"/>
     <use x="311.474609" xlink:href="#DejaVuSans-108"/>
     <use x="339.257812" xlink:href="#DejaVuSans-111"/>
     <use x="400.439453" xlink:href="#DejaVuSans-99"/>
     <use x="455.419922" xlink:href="#DejaVuSans-107"/>
     <use x="513.330078" xlink:href="#DejaVuSans-100"/>
     <use x="576.806641" xlink:href="#DejaVuSans-111"/>
     <use x="637.988281" xlink:href="#DejaVuSans-119"/>
     <use x="719.775391" xlink:href="#DejaVuSans-110"/>
     <use x="783.154297" xlink:href="#DejaVuSans-32"/>
     <use x="814.941406" xlink:href="#DejaVuSans-119"/>
     <use x="896.728516" xlink:href="#DejaVuSans-105"/>
     <use x="924.511719" xlink:href="#DejaVuSans-116"/>
     <use x="963.720703" xlink:href="#DejaVuSans-104"/>
     <use x="1027.099609" xlink:href="#DejaVuSans-32"/>
     <use x="1058.886719" xlink:href="#DejaVuSans-116"/>
     <use x="1098.095703" xlink:href="#DejaVuSans-119"/>
     <use x="1179.882812" xlink:href="#DejaVuSans-111"/>
    </g>
    <!-- staggered groups of households -->
    <defs>
     <path d="M 18.109375 8.203125 
L 18.109375 -20.796875 
L 9.078125 -20.796875 
L 9.078125 54.6875 
L 18.109375 54.6875 
L 18.109375 46.390625 
Q 20.953125 51.265625 25.265625 53.625 
Q 29.59375 56 35.59375 56 
Q 45.5625 56 51.78125 48.09375 
Q 58.015625 40.1875 58.015625 27.296875 
Q 58.015625 14.40625 51.78125 6.484375 
Q 45.5625 -1.421875 35.59375 -1.421875 
Q 29.59375 -1.421875 25.265625 0.953125 
Q 20.953125 3.328125 18.109375 8.203125 
z
M 48.6875 27.296875 
Q 48.6875 37.203125 44.609375 42.84375 
Q 40.53125 48.484375 33.40625 48.484375 
Q 26.265625 48.484375 22.1875 42.84375 
Q 18.109375 37.203125 18.109375 27.296875 
Q 18.109375 17.390625 22.1875 11.75 
Q 26.265625 6.109375 33.40625 6.109375 
Q 40.53125 6.109375 44.609375 11.75 
Q 48.6875 17.390625 48.6875 27.296875 
z
" id="DejaVuSans-112"/>
    </defs>
    <g transform="translate(107.645938 38)scale(0.14 -0.14)">
     <use xlink:href="#DejaVuSans-115"/>
     <use x="52.099609" xlink:href="#DejaVuSans-116"/>
     <use x="91.308594" xlink:href="#DejaVuSans-97"/>
     <use x="152.587891" xlink:href="#DejaVuSans-103"/>
     <use x="216.064453" xlink:href="#DejaVuSans-103"/>
     <use x="279.541016" xlink:href="#DejaVuSans-101"/>
     <use x="341.064453" xlink:href="#DejaVuSans-114"/>
     <use x="382.146484" xlink:href="#DejaVuSans-101"/>
     <use x="443.669922" xlink:href="#DejaVuSans-100"/>
     <use x="507.146484" xlink:href="#DejaVuSans-32"/>
     <use x="538.933594" xlink:href="#DejaVuSans-103"/>
     <use x="602.410156" xlink:href="#DejaVuSans-114"/>
     <use x="643.492188" xlink:href="#DejaVuSans-111"/>
     <use x="704.673828" xlink:href="#DejaVuSans-117"/>
     <use x="768.052734" xlink:href="#DejaVuSans-112"/>
     <use x="831.529297" xlink:href="#DejaVuSans-115"/>
     <use x="883.628906" xlink:href="#DejaVuSans-32"/>
     <use x="915.416016" xlink:href="#DejaVuSans-111"/>
     <use x="976.597656" xlink:href="#DejaVuSans-102"/>
     <use x="1011.802734" xlink:href="#DejaVuSans-32"/>
     <use x="1043.589844" xlink:href="#DejaVuSans-104"/>
     <use x="1106.96875" xlink:href="#DejaVuSans-111"/>
     <use x="1168.150391" xlink:href="#DejaVuSans-117"/>
     <use x="1231.529297" xlink:href="#DejaVuSans-115"/>
     <use x="1283.628906" xlink:href="#DejaVuSans-101"/>
     <use x="1345.152344" xlink:href="#DejaVuSans-104"/>
     <use x="1408.53125" xlink:href="#DejaVuSans-111"/>
     <use x="1469.712891" xlink:href="#DejaVuSans-108"/>
     <use x="1497.496094" xlink:href="#DejaVuSans-100"/>
     <use x="1560.972656" xlink:href="#DejaVuSans-115"/>
    </g>
   </g>
   <g id="legend_1">
    <g id="patch_59">
     <path d="M 38.6 303.2 
L 138.42 303.2 
Q 141.22 303.2 141.22 300.4 
L 141.22 260.70125 
Q 141.22 257.90125 138.42 257.90125 
L 38.6 257.90125 
Q 35.8 257.90125 35.8 260.70125 
L 35.8 300.4 
Q 35.8 303.2 38.6 303.2 
z
" style="fill:#ffffff;opacity:0.8;stroke:#cccccc;stroke-linejoin:miter;"/>
    </g>
    <g id="line2d_14">
     <path d="M 41.4 269.239063 
L 69.4 269.239063 
" style="fill:none;stroke:#4d6619;stroke-linecap:square;stroke-width:1.5;"/>
    </g>
    <g id="line2d_15"/>
    <g id="text_16">
     <!-- group A -->
     <defs>
      <path d="M 34.1875 63.1875 
L 20.796875 26.90625 
L 47.609375 26.90625 
z
M 28.609375 72.90625 
L 39.796875 72.90625 
L 67.578125 0 
L 57.328125 0 
L 50.6875 18.703125 
L 17.828125 18.703125 
L 11.1875 0 
L 0.78125 0 
z
" id="DejaVuSans-65"/>
     </defs>
     <g transform="translate(80.6 274.139063)scale(0.14 -0.14)">
      <use xlink:href="#DejaVuSans-103"/>
      <use x="63.476562" xlink:href="#DejaVuSans-114"/>
      <use x="104.558594" xlink:href="#DejaVuSans-111"/>
      <use x="165.740234" xlink:href="#DejaVuSans-117"/>
      <use x="229.119141" xlink:href="#DejaVuSans-112"/>
      <use x="292.595703" xlink:href="#DejaVuSans-32"/>
      <use x="324.382812" xlink:href="#DejaVuSans-65"/>
     </g>
    </g>
    <g id="line2d_16">
     <path d="M 41.4 289.788438 
L 69.4 289.788438 
" style="fill:none;stroke:#63b8ff;stroke-linecap:square;stroke-width:1.5;"/>
    </g>
    <g id="line2d_17"/>
    <g id="text_17">
     <!-- group B -->
     <defs>
      <path d="M 19.671875 34.8125 
L 19.671875 8.109375 
L 35.5 8.109375 
Q 43.453125 8.109375 47.28125 11.40625 
Q 51.125 14.703125 51.125 21.484375 
Q 51.125 28.328125 47.28125 31.5625 
Q 43.453125 34.8125 35.5 34.8125 
z
M 19.671875 64.796875 
L 19.671875 42.828125 
L 34.28125 42.828125 
Q 41.5 42.828125 45.03125 45.53125 
Q 48.578125 48.25 48.578125 53.8125 
Q 48.578125 59.328125 45.03125 62.0625 
Q 41.5 64.796875 34.28125 64.796875 
z
M 9.8125 72.90625 
L 35.015625 72.90625 
Q 46.296875 72.90625 52.390625 68.21875 
Q 58.5 63.53125 58.5 54.890625 
Q 58.5 48.1875 55.375 44.234375 
Q 52.25 40.28125 46.1875 39.3125 
Q 53.46875 37.75 57.5 32.78125 
Q 61.53125 27.828125 61.53125 20.40625 
Q 61.53125 10.640625 54.890625 5.3125 
Q 48.25 0 35.984375 0 
L 9.8125 0 
z
" id="DejaVuSans-66"/>
     </defs>
     <g transform="translate(80.6 294.688438)scale(0.14 -0.14)">
      <use xlink:href="#DejaVuSans-103"/>
      <use x="63.476562" xlink:href="#DejaVuSans-114"/>
      <use x="104.558594" xlink:href="#DejaVuSans-111"/>
      <use x="165.740234" xlink:href="#DejaVuSans-117"/>
      <use x="229.119141" xlink:href="#DejaVuSans-112"/>
      <use x="292.595703" xlink:href="#DejaVuSans-32"/>
      <use x="324.382812" xlink:href="#DejaVuSans-66"/>
     </g>
    </g>
   </g>
  </g>
 </g>
 <defs>
  <clipPath id="p92089f4bbb">
   <rect height="262.2" width="383.525" x="28.8" y="48"/>
  </clipPath>
 </defs>
</svg>
