<?xml version="1.0" encoding="utf-8" standalone="no"?>
<!DOCTYPE svg PUBLIC "-//W3C//DTD SVG 1.1//EN"
  "http://www.w3.org/Graphics/SVG/1.1/DTD/svg11.dtd">
<!-- Created with matplotlib (https://matplotlib.org/) -->
<svg height="288pt" version="1.1" viewBox="0 0 576 288" width="576pt" xmlns="http://www.w3.org/2000/svg" xmlns:xlink="http://www.w3.org/1999/xlink">
 <defs>
  <style type="text/css">
*{stroke-linecap:butt;stroke-linejoin:round;}
  </style>
 </defs>
 <g id="figure_1">
  <g id="patch_1">
   <path d="M 0 288 
L 576 288 
L 576 0 
L 0 0 
z
" style="fill:#ffffff;"/>
  </g>
  <g id="axes_1">
   <g id="patch_2">
    <path d="M 34.955844 243.2 
L 269.713636 243.2 
L 269.713636 53.862857 
L 34.955844 53.862857 
z
" style="fill:#ffffff;"/>
   </g>
   <g id="patch_3">
    <path clip-path="url(#p7f4fa5adb1)" d="M 46.134787 243.2 
L 46.134787 53.862857 
L 74.082143 53.862857 
L 74.082143 243.2 
z
" style="fill:#808080;opacity:0.5;stroke:#808080;stroke-linejoin:miter;"/>
   </g>
   <g id="patch_4">
    <path clip-path="url(#p7f4fa5adb1)" d="M 34.955844 243.2 
L 34.955844 53.862857 
L 46.134787 53.862857 
L 46.134787 243.2 
z
" style="fill:#808080;opacity:0.2;stroke:#808080;stroke-linejoin:miter;"/>
   </g>
   <g id="patch_5">
    <path clip-path="url(#p7f4fa5adb1)" d="M 85.261085 243.2 
L 85.261085 53.862857 
L 113.208442 53.862857 
L 113.208442 243.2 
z
" style="fill:#808080;opacity:0.5;stroke:#808080;stroke-linejoin:miter;"/>
   </g>
   <g id="patch_6">
    <path clip-path="url(#p7f4fa5adb1)" d="M 74.082143 243.2 
L 74.082143 53.862857 
L 85.261085 53.862857 
L 85.261085 243.2 
z
" style="fill:#808080;opacity:0.2;stroke:#808080;stroke-linejoin:miter;"/>
   </g>
   <g id="patch_7">
    <path clip-path="url(#p7f4fa5adb1)" d="M 124.387384 243.2 
L 124.387384 53.862857 
L 152.33474 53.862857 
L 152.33474 243.2 
z
" style="fill:#808080;opacity:0.5;stroke:#808080;stroke-linejoin:miter;"/>
   </g>
   <g id="patch_8">
    <path clip-path="url(#p7f4fa5adb1)" d="M 113.208442 243.2 
L 113.208442 53.862857 
L 124.387384 53.862857 
L 124.387384 243.2 
z
" style="fill:#808080;opacity:0.2;stroke:#808080;stroke-linejoin:miter;"/>
   </g>
   <g id="patch_9">
    <path clip-path="url(#p7f4fa5adb1)" d="M 157.924212 243.2 
L 157.924212 53.862857 
L 191.461039 53.862857 
L 191.461039 243.2 
z
" style="fill:#808080;opacity:0.5;stroke:#808080;stroke-linejoin:miter;"/>
   </g>
   <g id="patch_10">
    <path clip-path="url(#p7f4fa5adb1)" d="M 152.33474 243.2 
L 152.33474 53.862857 
L 157.924212 53.862857 
L 157.924212 243.2 
z
" style="fill:#808080;opacity:0.2;stroke:#808080;stroke-linejoin:miter;"/>
   </g>
   <g id="patch_11">
    <path clip-path="url(#p7f4fa5adb1)" d="M 197.05051 243.2 
L 197.05051 53.862857 
L 230.587338 53.862857 
L 230.587338 243.2 
z
" style="fill:#808080;opacity:0.5;stroke:#808080;stroke-linejoin:miter;"/>
   </g>
   <g id="patch_12">
    <path clip-path="url(#p7f4fa5adb1)" d="M 191.461039 243.2 
L 191.461039 53.862857 
L 197.05051 53.862857 
L 197.05051 243.2 
z
" style="fill:#808080;opacity:0.2;stroke:#808080;stroke-linejoin:miter;"/>
   </g>
   <g id="patch_13">
    <path clip-path="url(#p7f4fa5adb1)" d="M 236.176809 243.2 
L 236.176809 53.862857 
L 269.713636 53.862857 
L 269.713636 243.2 
z
" style="fill:#808080;opacity:0.5;stroke:#808080;stroke-linejoin:miter;"/>
   </g>
   <g id="patch_14">
    <path clip-path="url(#p7f4fa5adb1)" d="M 230.587338 243.2 
L 230.587338 53.862857 
L 236.176809 53.862857 
L 236.176809 243.2 
z
" style="fill:#808080;opacity:0.2;stroke:#808080;stroke-linejoin:miter;"/>
   </g>
   <g id="matplotlib.axis_1">
    <g id="xtick_1">
     <g id="line2d_1">
      <defs>
       <path d="M 0 0 
L 0 3.5 
" id="m69cf34fef0" style="stroke:#000000;stroke-width:0.8;"/>
      </defs>
      <g>
       <use style="stroke:#000000;stroke-width:0.8;" x="34.955844" xlink:href="#m69cf34fef0" y="243.2"/>
      </g>
     </g>
     <g id="text_1">
      <!-- 0 -->
      <defs>
       <path d="M 31.78125 66.40625 
Q 24.171875 66.40625 20.328125 58.90625 
Q 16.5 51.421875 16.5 36.375 
Q 16.5 21.390625 20.328125 13.890625 
Q 24.171875 6.390625 31.78125 6.390625 
Q 39.453125 6.390625 43.28125 13.890625 
Q 47.125 21.390625 47.125 36.375 
Q 47.125 51.421875 43.28125 58.90625 
Q 39.453125 66.40625 31.78125 66.40625 
z
M 31.78125 74.21875 
Q 44.046875 74.21875 50.515625 64.515625 
Q 56.984375 54.828125 56.984375 36.375 
Q 56.984375 17.96875 50.515625 8.265625 
Q 44.046875 -1.421875 31.78125 -1.421875 
Q 19.53125 -1.421875 13.0625 8.265625 
Q 6.59375 17.96875 6.59375 36.375 
Q 6.59375 54.828125 13.0625 64.515625 
Q 19.53125 74.21875 31.78125 74.21875 
z
" id="DejaVuSans-48"/>
      </defs>
      <g transform="translate(31.774594 257.798437)scale(0.1 -0.1)">
       <use xlink:href="#DejaVuSans-48"/>
      </g>
     </g>
    </g>
    <g id="xtick_2">
     <g id="line2d_2">
      <g>
       <use style="stroke:#000000;stroke-width:0.8;" x="54.518994" xlink:href="#m69cf34fef0" y="243.2"/>
      </g>
     </g>
     <g id="text_2">
      <!-- 1 -->
      <defs>
       <path d="M 12.40625 8.296875 
L 28.515625 8.296875 
L 28.515625 63.921875 
L 10.984375 60.40625 
L 10.984375 69.390625 
L 28.421875 72.90625 
L 38.28125 72.90625 
L 38.28125 8.296875 
L 54.390625 8.296875 
L 54.390625 0 
L 12.40625 0 
z
" id="DejaVuSans-49"/>
      </defs>
      <g transform="translate(51.337744 257.798437)scale(0.1 -0.1)">
       <use xlink:href="#DejaVuSans-49"/>
      </g>
     </g>
    </g>
    <g id="xtick_3">
     <g id="line2d_3">
      <g>
       <use style="stroke:#000000;stroke-width:0.8;" x="74.082143" xlink:href="#m69cf34fef0" y="243.2"/>
      </g>
     </g>
     <g id="text_3">
      <!-- 2 -->
      <defs>
       <path d="M 19.1875 8.296875 
L 53.609375 8.296875 
L 53.609375 0 
L 7.328125 0 
L 7.328125 8.296875 
Q 12.9375 14.109375 22.625 23.890625 
Q 32.328125 33.6875 34.8125 36.53125 
Q 39.546875 41.84375 41.421875 45.53125 
Q 43.3125 49.21875 43.3125 52.78125 
Q 43.3125 58.59375 39.234375 62.25 
Q 35.15625 65.921875 28.609375 65.921875 
Q 23.96875 65.921875 18.8125 64.3125 
Q 13.671875 62.703125 7.8125 59.421875 
L 7.8125 69.390625 
Q 13.765625 71.78125 18.9375 73 
Q 24.125 74.21875 28.421875 74.21875 
Q 39.75 74.21875 46.484375 68.546875 
Q 53.21875 62.890625 53.21875 53.421875 
Q 53.21875 48.921875 51.53125 44.890625 
Q 49.859375 40.875 45.40625 35.40625 
Q 44.1875 33.984375 37.640625 27.21875 
Q 31.109375 20.453125 19.1875 8.296875 
z
" id="DejaVuSans-50"/>
      </defs>
      <g transform="translate(70.900893 257.798437)scale(0.1 -0.1)">
       <use xlink:href="#DejaVuSans-50"/>
      </g>
     </g>
    </g>
    <g id="xtick_4">
     <g id="line2d_4">
      <g>
       <use style="stroke:#000000;stroke-width:0.8;" x="93.645292" xlink:href="#m69cf34fef0" y="243.2"/>
      </g>
     </g>
     <g id="text_4">
      <!-- 3 -->
      <defs>
       <path d="M 40.578125 39.3125 
Q 47.65625 37.796875 51.625 33 
Q 55.609375 28.21875 55.609375 21.1875 
Q 55.609375 10.40625 48.1875 4.484375 
Q 40.765625 -1.421875 27.09375 -1.421875 
Q 22.515625 -1.421875 17.65625 -0.515625 
Q 12.796875 0.390625 7.625 2.203125 
L 7.625 11.71875 
Q 11.71875 9.328125 16.59375 8.109375 
Q 21.484375 6.890625 26.8125 6.890625 
Q 36.078125 6.890625 40.9375 10.546875 
Q 45.796875 14.203125 45.796875 21.1875 
Q 45.796875 27.640625 41.28125 31.265625 
Q 36.765625 34.90625 28.71875 34.90625 
L 20.21875 34.90625 
L 20.21875 43.015625 
L 29.109375 43.015625 
Q 36.375 43.015625 40.234375 45.921875 
Q 44.09375 48.828125 44.09375 54.296875 
Q 44.09375 59.90625 40.109375 62.90625 
Q 36.140625 65.921875 28.71875 65.921875 
Q 24.65625 65.921875 20.015625 65.03125 
Q 15.375 64.15625 9.8125 62.3125 
L 9.8125 71.09375 
Q 15.4375 72.65625 20.34375 73.4375 
Q 25.25 74.21875 29.59375 74.21875 
Q 40.828125 74.21875 47.359375 69.109375 
Q 53.90625 64.015625 53.90625 55.328125 
Q 53.90625 49.265625 50.4375 45.09375 
Q 46.96875 40.921875 40.578125 39.3125 
z
" id="DejaVuSans-51"/>
      </defs>
      <g transform="translate(90.464042 257.798437)scale(0.1 -0.1)">
       <use xlink:href="#DejaVuSans-51"/>
      </g>
     </g>
    </g>
    <g id="xtick_5">
     <g id="line2d_5">
      <g>
       <use style="stroke:#000000;stroke-width:0.8;" x="113.208442" xlink:href="#m69cf34fef0" y="243.2"/>
      </g>
     </g>
     <g id="text_5">
      <!-- 4 -->
      <defs>
       <path d="M 37.796875 64.3125 
L 12.890625 25.390625 
L 37.796875 25.390625 
z
M 35.203125 72.90625 
L 47.609375 72.90625 
L 47.609375 25.390625 
L 58.015625 25.390625 
L 58.015625 17.1875 
L 47.609375 17.1875 
L 47.609375 0 
L 37.796875 0 
L 37.796875 17.1875 
L 4.890625 17.1875 
L 4.890625 26.703125 
z
" id="DejaVuSans-52"/>
      </defs>
      <g transform="translate(110.027192 257.798437)scale(0.1 -0.1)">
       <use xlink:href="#DejaVuSans-52"/>
      </g>
     </g>
    </g>
    <g id="xtick_6">
     <g id="line2d_6">
      <g>
       <use style="stroke:#000000;stroke-width:0.8;" x="132.771591" xlink:href="#m69cf34fef0" y="243.2"/>
      </g>
     </g>
     <g id="text_6">
      <!-- 5 -->
      <defs>
       <path d="M 10.796875 72.90625 
L 49.515625 72.90625 
L 49.515625 64.59375 
L 19.828125 64.59375 
L 19.828125 46.734375 
Q 21.96875 47.46875 24.109375 47.828125 
Q 26.265625 48.1875 28.421875 48.1875 
Q 40.625 48.1875 47.75 41.5 
Q 54.890625 34.8125 54.890625 23.390625 
Q 54.890625 11.625 47.5625 5.09375 
Q 40.234375 -1.421875 26.90625 -1.421875 
Q 22.3125 -1.421875 17.546875 -0.640625 
Q 12.796875 0.140625 7.71875 1.703125 
L 7.71875 11.625 
Q 12.109375 9.234375 16.796875 8.0625 
Q 21.484375 6.890625 26.703125 6.890625 
Q 35.15625 6.890625 40.078125 11.328125 
Q 45.015625 15.765625 45.015625 23.390625 
Q 45.015625 31 40.078125 35.4375 
Q 35.15625 39.890625 26.703125 39.890625 
Q 22.75 39.890625 18.8125 39.015625 
Q 14.890625 38.140625 10.796875 36.28125 
z
" id="DejaVuSans-53"/>
      </defs>
      <g transform="translate(129.590341 257.798437)scale(0.1 -0.1)">
       <use xlink:href="#DejaVuSans-53"/>
      </g>
     </g>
    </g>
    <g id="xtick_7">
     <g id="line2d_7">
      <g>
       <use style="stroke:#000000;stroke-width:0.8;" x="152.33474" xlink:href="#m69cf34fef0" y="243.2"/>
      </g>
     </g>
     <g id="text_7">
      <!-- 6 -->
      <defs>
       <path d="M 33.015625 40.375 
Q 26.375 40.375 22.484375 35.828125 
Q 18.609375 31.296875 18.609375 23.390625 
Q 18.609375 15.53125 22.484375 10.953125 
Q 26.375 6.390625 33.015625 6.390625 
Q 39.65625 6.390625 43.53125 10.953125 
Q 47.40625 15.53125 47.40625 23.390625 
Q 47.40625 31.296875 43.53125 35.828125 
Q 39.65625 40.375 33.015625 40.375 
z
M 52.59375 71.296875 
L 52.59375 62.3125 
Q 48.875 64.0625 45.09375 64.984375 
Q 41.3125 65.921875 37.59375 65.921875 
Q 27.828125 65.921875 22.671875 59.328125 
Q 17.53125 52.734375 16.796875 39.40625 
Q 19.671875 43.65625 24.015625 45.921875 
Q 28.375 48.1875 33.59375 48.1875 
Q 44.578125 48.1875 50.953125 41.515625 
Q 57.328125 34.859375 57.328125 23.390625 
Q 57.328125 12.15625 50.6875 5.359375 
Q 44.046875 -1.421875 33.015625 -1.421875 
Q 20.359375 -1.421875 13.671875 8.265625 
Q 6.984375 17.96875 6.984375 36.375 
Q 6.984375 53.65625 15.1875 63.9375 
Q 23.390625 74.21875 37.203125 74.21875 
Q 40.921875 74.21875 44.703125 73.484375 
Q 48.484375 72.75 52.59375 71.296875 
z
" id="DejaVuSans-54"/>
      </defs>
      <g transform="translate(149.15349 257.798437)scale(0.1 -0.1)">
       <use xlink:href="#DejaVuSans-54"/>
      </g>
     </g>
    </g>
    <g id="xtick_8">
     <g id="line2d_8">
      <g>
       <use style="stroke:#000000;stroke-width:0.8;" x="171.89789" xlink:href="#m69cf34fef0" y="243.2"/>
      </g>
     </g>
     <g id="text_8">
      <!-- 7 -->
      <defs>
       <path d="M 8.203125 72.90625 
L 55.078125 72.90625 
L 55.078125 68.703125 
L 28.609375 0 
L 18.3125 0 
L 43.21875 64.59375 
L 8.203125 64.59375 
z
" id="DejaVuSans-55"/>
      </defs>
      <g transform="translate(168.71664 257.798437)scale(0.1 -0.1)">
       <use xlink:href="#DejaVuSans-55"/>
      </g>
     </g>
    </g>
    <g id="xtick_9">
     <g id="line2d_9">
      <g>
       <use style="stroke:#000000;stroke-width:0.8;" x="191.461039" xlink:href="#m69cf34fef0" y="243.2"/>
      </g>
     </g>
     <g id="text_9">
      <!-- 8 -->
      <defs>
       <path d="M 31.78125 34.625 
Q 24.75 34.625 20.71875 30.859375 
Q 16.703125 27.09375 16.703125 20.515625 
Q 16.703125 13.921875 20.71875 10.15625 
Q 24.75 6.390625 31.78125 6.390625 
Q 38.8125 6.390625 42.859375 10.171875 
Q 46.921875 13.96875 46.921875 20.515625 
Q 46.921875 27.09375 42.890625 30.859375 
Q 38.875 34.625 31.78125 34.625 
z
M 21.921875 38.8125 
Q 15.578125 40.375 12.03125 44.71875 
Q 8.5 49.078125 8.5 55.328125 
Q 8.5 64.0625 14.71875 69.140625 
Q 20.953125 74.21875 31.78125 74.21875 
Q 42.671875 74.21875 48.875 69.140625 
Q 55.078125 64.0625 55.078125 55.328125 
Q 55.078125 49.078125 51.53125 44.71875 
Q 48 40.375 41.703125 38.8125 
Q 48.828125 37.15625 52.796875 32.3125 
Q 56.78125 27.484375 56.78125 20.515625 
Q 56.78125 9.90625 50.3125 4.234375 
Q 43.84375 -1.421875 31.78125 -1.421875 
Q 19.734375 -1.421875 13.25 4.234375 
Q 6.78125 9.90625 6.78125 20.515625 
Q 6.78125 27.484375 10.78125 32.3125 
Q 14.796875 37.15625 21.921875 38.8125 
z
M 18.3125 54.390625 
Q 18.3125 48.734375 21.84375 45.5625 
Q 25.390625 42.390625 31.78125 42.390625 
Q 38.140625 42.390625 41.71875 45.5625 
Q 45.3125 48.734375 45.3125 54.390625 
Q 45.3125 60.0625 41.71875 63.234375 
Q 38.140625 66.40625 31.78125 66.40625 
Q 25.390625 66.40625 21.84375 63.234375 
Q 18.3125 60.0625 18.3125 54.390625 
z
" id="DejaVuSans-56"/>
      </defs>
      <g transform="translate(188.279789 257.798437)scale(0.1 -0.1)">
       <use xlink:href="#DejaVuSans-56"/>
      </g>
     </g>
    </g>
    <g id="xtick_10">
     <g id="line2d_10">
      <g>
       <use style="stroke:#000000;stroke-width:0.8;" x="211.024188" xlink:href="#m69cf34fef0" y="243.2"/>
      </g>
     </g>
     <g id="text_10">
      <!-- 9 -->
      <defs>
       <path d="M 10.984375 1.515625 
L 10.984375 10.5 
Q 14.703125 8.734375 18.5 7.8125 
Q 22.3125 6.890625 25.984375 6.890625 
Q 35.75 6.890625 40.890625 13.453125 
Q 46.046875 20.015625 46.78125 33.40625 
Q 43.953125 29.203125 39.59375 26.953125 
Q 35.25 24.703125 29.984375 24.703125 
Q 19.046875 24.703125 12.671875 31.3125 
Q 6.296875 37.9375 6.296875 49.421875 
Q 6.296875 60.640625 12.9375 67.421875 
Q 19.578125 74.21875 30.609375 74.21875 
Q 43.265625 74.21875 49.921875 64.515625 
Q 56.59375 54.828125 56.59375 36.375 
Q 56.59375 19.140625 48.40625 8.859375 
Q 40.234375 -1.421875 26.421875 -1.421875 
Q 22.703125 -1.421875 18.890625 -0.6875 
Q 15.09375 0.046875 10.984375 1.515625 
z
M 30.609375 32.421875 
Q 37.25 32.421875 41.125 36.953125 
Q 45.015625 41.5 45.015625 49.421875 
Q 45.015625 57.28125 41.125 61.84375 
Q 37.25 66.40625 30.609375 66.40625 
Q 23.96875 66.40625 20.09375 61.84375 
Q 16.21875 57.28125 16.21875 49.421875 
Q 16.21875 41.5 20.09375 36.953125 
Q 23.96875 32.421875 30.609375 32.421875 
z
" id="DejaVuSans-57"/>
      </defs>
      <g transform="translate(207.842938 257.798437)scale(0.1 -0.1)">
       <use xlink:href="#DejaVuSans-57"/>
      </g>
     </g>
    </g>
    <g id="xtick_11">
     <g id="line2d_11">
      <g>
       <use style="stroke:#000000;stroke-width:0.8;" x="230.587338" xlink:href="#m69cf34fef0" y="243.2"/>
      </g>
     </g>
     <g id="text_11">
      <!-- 10 -->
      <g transform="translate(224.224838 257.798437)scale(0.1 -0.1)">
       <use xlink:href="#DejaVuSans-49"/>
       <use x="63.623047" xlink:href="#DejaVuSans-48"/>
      </g>
     </g>
    </g>
    <g id="xtick_12">
     <g id="line2d_12">
      <g>
       <use style="stroke:#000000;stroke-width:0.8;" x="250.150487" xlink:href="#m69cf34fef0" y="243.2"/>
      </g>
     </g>
     <g id="text_12">
      <!-- 11 -->
      <g transform="translate(243.787987 257.798437)scale(0.1 -0.1)">
       <use xlink:href="#DejaVuSans-49"/>
       <use x="63.623047" xlink:href="#DejaVuSans-49"/>
      </g>
     </g>
    </g>
    <g id="xtick_13">
     <g id="line2d_13">
      <g>
       <use style="stroke:#000000;stroke-width:0.8;" x="269.713636" xlink:href="#m69cf34fef0" y="243.2"/>
      </g>
     </g>
     <g id="text_13">
      <!-- 12 -->
      <g transform="translate(263.351136 257.798437)scale(0.1 -0.1)">
       <use xlink:href="#DejaVuSans-49"/>
       <use x="63.623047" xlink:href="#DejaVuSans-50"/>
      </g>
     </g>
    </g>
    <g id="text_14">
     <!-- weeks -->
     <defs>
      <path d="M 4.203125 54.6875 
L 13.1875 54.6875 
L 24.421875 12.015625 
L 35.59375 54.6875 
L 46.1875 54.6875 
L 57.421875 12.015625 
L 68.609375 54.6875 
L 77.59375 54.6875 
L 63.28125 0 
L 52.6875 0 
L 40.921875 44.828125 
L 29.109375 0 
L 18.5 0 
z
" id="DejaVuSans-119"/>
      <path d="M 56.203125 29.59375 
L 56.203125 25.203125 
L 14.890625 25.203125 
Q 15.484375 15.921875 20.484375 11.0625 
Q 25.484375 6.203125 34.421875 6.203125 
Q 39.59375 6.203125 44.453125 7.46875 
Q 49.3125 8.734375 54.109375 11.28125 
L 54.109375 2.78125 
Q 49.265625 0.734375 44.1875 -0.34375 
Q 39.109375 -1.421875 33.890625 -1.421875 
Q 20.796875 -1.421875 13.15625 6.1875 
Q 5.515625 13.8125 5.515625 26.8125 
Q 5.515625 40.234375 12.765625 48.109375 
Q 20.015625 56 32.328125 56 
Q 43.359375 56 49.78125 48.890625 
Q 56.203125 41.796875 56.203125 29.59375 
z
M 47.21875 32.234375 
Q 47.125 39.59375 43.09375 43.984375 
Q 39.0625 48.390625 32.421875 48.390625 
Q 24.90625 48.390625 20.390625 44.140625 
Q 15.875 39.890625 15.1875 32.171875 
z
" id="DejaVuSans-101"/>
      <path d="M 9.078125 75.984375 
L 18.109375 75.984375 
L 18.109375 31.109375 
L 44.921875 54.6875 
L 56.390625 54.6875 
L 27.390625 29.109375 
L 57.625 0 
L 45.90625 0 
L 18.109375 26.703125 
L 18.109375 0 
L 9.078125 0 
z
" id="DejaVuSans-107"/>
      <path d="M 44.28125 53.078125 
L 44.28125 44.578125 
Q 40.484375 46.53125 36.375 47.5 
Q 32.28125 48.484375 27.875 48.484375 
Q 21.1875 48.484375 17.84375 46.4375 
Q 14.5 44.390625 14.5 40.28125 
Q 14.5 37.15625 16.890625 35.375 
Q 19.28125 33.59375 26.515625 31.984375 
L 29.59375 31.296875 
Q 39.15625 29.25 43.1875 25.515625 
Q 47.21875 21.78125 47.21875 15.09375 
Q 47.21875 7.46875 41.1875 3.015625 
Q 35.15625 -1.421875 24.609375 -1.421875 
Q 20.21875 -1.421875 15.453125 -0.5625 
Q 10.6875 0.296875 5.421875 2 
L 5.421875 11.28125 
Q 10.40625 8.6875 15.234375 7.390625 
Q 20.0625 6.109375 24.8125 6.109375 
Q 31.15625 6.109375 34.5625 8.28125 
Q 37.984375 10.453125 37.984375 14.40625 
Q 37.984375 18.0625 35.515625 20.015625 
Q 33.0625 21.96875 24.703125 23.78125 
L 21.578125 24.515625 
Q 13.234375 26.265625 9.515625 29.90625 
Q 5.8125 33.546875 5.8125 39.890625 
Q 5.8125 47.609375 11.28125 51.796875 
Q 16.75 56 26.8125 56 
Q 31.78125 56 36.171875 55.265625 
Q 40.578125 54.546875 44.28125 53.078125 
z
" id="DejaVuSans-115"/>
     </defs>
     <g transform="translate(133.444115 272.99625)scale(0.12 -0.12)">
      <use xlink:href="#DejaVuSans-119"/>
      <use x="81.787109" xlink:href="#DejaVuSans-101"/>
      <use x="143.310547" xlink:href="#DejaVuSans-101"/>
      <use x="204.833984" xlink:href="#DejaVuSans-107"/>
      <use x="262.744141" xlink:href="#DejaVuSans-115"/>
     </g>
    </g>
   </g>
   <g id="matplotlib.axis_2">
    <g id="text_15">
     <!-- number of cases -->
     <defs>
      <path d="M 54.890625 33.015625 
L 54.890625 0 
L 45.90625 0 
L 45.90625 32.71875 
Q 45.90625 40.484375 42.875 44.328125 
Q 39.84375 48.1875 33.796875 48.1875 
Q 26.515625 48.1875 22.3125 43.546875 
Q 18.109375 38.921875 18.109375 30.90625 
L 18.109375 0 
L 9.078125 0 
L 9.078125 54.6875 
L 18.109375 54.6875 
L 18.109375 46.1875 
Q 21.34375 51.125 25.703125 53.5625 
Q 30.078125 56 35.796875 56 
Q 45.21875 56 50.046875 50.171875 
Q 54.890625 44.34375 54.890625 33.015625 
z
" id="DejaVuSans-110"/>
      <path d="M 8.5 21.578125 
L 8.5 54.6875 
L 17.484375 54.6875 
L 17.484375 21.921875 
Q 17.484375 14.15625 20.5 10.265625 
Q 23.53125 6.390625 29.59375 6.390625 
Q 36.859375 6.390625 41.078125 11.03125 
Q 45.3125 15.671875 45.3125 23.6875 
L 45.3125 54.6875 
L 54.296875 54.6875 
L 54.296875 0 
L 45.3125 0 
L 45.3125 8.40625 
Q 42.046875 3.421875 37.71875 1 
Q 33.40625 -1.421875 27.6875 -1.421875 
Q 18.265625 -1.421875 13.375 4.4375 
Q 8.5 10.296875 8.5 21.578125 
z
M 31.109375 56 
z
" id="DejaVuSans-117"/>
      <path d="M 52 44.1875 
Q 55.375 50.25 60.0625 53.125 
Q 64.75 56 71.09375 56 
Q 79.640625 56 84.28125 50.015625 
Q 88.921875 44.046875 88.921875 33.015625 
L 88.921875 0 
L 79.890625 0 
L 79.890625 32.71875 
Q 79.890625 40.578125 77.09375 44.375 
Q 74.3125 48.1875 68.609375 48.1875 
Q 61.625 48.1875 57.5625 43.546875 
Q 53.515625 38.921875 53.515625 30.90625 
L 53.515625 0 
L 44.484375 0 
L 44.484375 32.71875 
Q 44.484375 40.625 41.703125 44.40625 
Q 38.921875 48.1875 33.109375 48.1875 
Q 26.21875 48.1875 22.15625 43.53125 
Q 18.109375 38.875 18.109375 30.90625 
L 18.109375 0 
L 9.078125 0 
L 9.078125 54.6875 
L 18.109375 54.6875 
L 18.109375 46.1875 
Q 21.1875 51.21875 25.484375 53.609375 
Q 29.78125 56 35.6875 56 
Q 41.65625 56 45.828125 52.96875 
Q 50 49.953125 52 44.1875 
z
" id="DejaVuSans-109"/>
      <path d="M 48.6875 27.296875 
Q 48.6875 37.203125 44.609375 42.84375 
Q 40.53125 48.484375 33.40625 48.484375 
Q 26.265625 48.484375 22.1875 42.84375 
Q 18.109375 37.203125 18.109375 27.296875 
Q 18.109375 17.390625 22.1875 11.75 
Q 26.265625 6.109375 33.40625 6.109375 
Q 40.53125 6.109375 44.609375 11.75 
Q 48.6875 17.390625 48.6875 27.296875 
z
M 18.109375 46.390625 
Q 20.953125 51.265625 25.265625 53.625 
Q 29.59375 56 35.59375 56 
Q 45.5625 56 51.78125 48.09375 
Q 58.015625 40.1875 58.015625 27.296875 
Q 58.015625 14.40625 51.78125 6.484375 
Q 45.5625 -1.421875 35.59375 -1.421875 
Q 29.59375 -1.421875 25.265625 0.953125 
Q 20.953125 3.328125 18.109375 8.203125 
L 18.109375 0 
L 9.078125 0 
L 9.078125 75.984375 
L 18.109375 75.984375 
z
" id="DejaVuSans-98"/>
      <path d="M 41.109375 46.296875 
Q 39.59375 47.171875 37.8125 47.578125 
Q 36.03125 48 33.890625 48 
Q 26.265625 48 22.1875 43.046875 
Q 18.109375 38.09375 18.109375 28.8125 
L 18.109375 0 
L 9.078125 0 
L 9.078125 54.6875 
L 18.109375 54.6875 
L 18.109375 46.1875 
Q 20.953125 51.171875 25.484375 53.578125 
Q 30.03125 56 36.53125 56 
Q 37.453125 56 38.578125 55.875 
Q 39.703125 55.765625 41.0625 55.515625 
z
" id="DejaVuSans-114"/>
      <path id="DejaVuSans-32"/>
      <path d="M 30.609375 48.390625 
Q 23.390625 48.390625 19.1875 42.75 
Q 14.984375 37.109375 14.984375 27.296875 
Q 14.984375 17.484375 19.15625 11.84375 
Q 23.34375 6.203125 30.609375 6.203125 
Q 37.796875 6.203125 41.984375 11.859375 
Q 46.1875 17.53125 46.1875 27.296875 
Q 46.1875 37.015625 41.984375 42.703125 
Q 37.796875 48.390625 30.609375 48.390625 
z
M 30.609375 56 
Q 42.328125 56 49.015625 48.375 
Q 55.71875 40.765625 55.71875 27.296875 
Q 55.71875 13.875 49.015625 6.21875 
Q 42.328125 -1.421875 30.609375 -1.421875 
Q 18.84375 -1.421875 12.171875 6.21875 
Q 5.515625 13.875 5.515625 27.296875 
Q 5.515625 40.765625 12.171875 48.375 
Q 18.84375 56 30.609375 56 
z
" id="DejaVuSans-111"/>
      <path d="M 37.109375 75.984375 
L 37.109375 68.5 
L 28.515625 68.5 
Q 23.6875 68.5 21.796875 66.546875 
Q 19.921875 64.59375 19.921875 59.515625 
L 19.921875 54.6875 
L 34.71875 54.6875 
L 34.71875 47.703125 
L 19.921875 47.703125 
L 19.921875 0 
L 10.890625 0 
L 10.890625 47.703125 
L 2.296875 47.703125 
L 2.296875 54.6875 
L 10.890625 54.6875 
L 10.890625 58.5 
Q 10.890625 67.625 15.140625 71.796875 
Q 19.390625 75.984375 28.609375 75.984375 
z
" id="DejaVuSans-102"/>
      <path d="M 48.78125 52.59375 
L 48.78125 44.1875 
Q 44.96875 46.296875 41.140625 47.34375 
Q 37.3125 48.390625 33.40625 48.390625 
Q 24.65625 48.390625 19.8125 42.84375 
Q 14.984375 37.3125 14.984375 27.296875 
Q 14.984375 17.28125 19.8125 11.734375 
Q 24.65625 6.203125 33.40625 6.203125 
Q 37.3125 6.203125 41.140625 7.25 
Q 44.96875 8.296875 48.78125 10.40625 
L 48.78125 2.09375 
Q 45.015625 0.34375 40.984375 -0.53125 
Q 36.96875 -1.421875 32.421875 -1.421875 
Q 20.0625 -1.421875 12.78125 6.34375 
Q 5.515625 14.109375 5.515625 27.296875 
Q 5.515625 40.671875 12.859375 48.328125 
Q 20.21875 56 33.015625 56 
Q 37.15625 56 41.109375 55.140625 
Q 45.0625 54.296875 48.78125 52.59375 
z
" id="DejaVuSans-99"/>
      <path d="M 34.28125 27.484375 
Q 23.390625 27.484375 19.1875 25 
Q 14.984375 22.515625 14.984375 16.5 
Q 14.984375 11.71875 18.140625 8.90625 
Q 21.296875 6.109375 26.703125 6.109375 
Q 34.1875 6.109375 38.703125 11.40625 
Q 43.21875 16.703125 43.21875 25.484375 
L 43.21875 27.484375 
z
M 52.203125 31.203125 
L 52.203125 0 
L 43.21875 0 
L 43.21875 8.296875 
Q 40.140625 3.328125 35.546875 0.953125 
Q 30.953125 -1.421875 24.3125 -1.421875 
Q 15.921875 -1.421875 10.953125 3.296875 
Q 6 8.015625 6 15.921875 
Q 6 25.140625 12.171875 29.828125 
Q 18.359375 34.515625 30.609375 34.515625 
L 43.21875 34.515625 
L 43.21875 35.40625 
Q 43.21875 41.609375 39.140625 45 
Q 35.0625 48.390625 27.6875 48.390625 
Q 23 48.390625 18.546875 47.265625 
Q 14.109375 46.140625 10.015625 43.890625 
L 10.015625 52.203125 
Q 14.9375 54.109375 19.578125 55.046875 
Q 24.21875 56 28.609375 56 
Q 40.484375 56 46.34375 49.84375 
Q 52.203125 43.703125 52.203125 31.203125 
z
" id="DejaVuSans-97"/>
     </defs>
     <g transform="translate(28.460219 198.464554)rotate(-90)scale(0.12 -0.12)">
      <use xlink:href="#DejaVuSans-110"/>
      <use x="63.378906" xlink:href="#DejaVuSans-117"/>
      <use x="126.757812" xlink:href="#DejaVuSans-109"/>
      <use x="224.169922" xlink:href="#DejaVuSans-98"/>
      <use x="287.646484" xlink:href="#DejaVuSans-101"/>
      <use x="349.169922" xlink:href="#DejaVuSans-114"/>
      <use x="390.283203" xlink:href="#DejaVuSans-32"/>
      <use x="422.070312" xlink:href="#DejaVuSans-111"/>
      <use x="483.251953" xlink:href="#DejaVuSans-102"/>
      <use x="518.457031" xlink:href="#DejaVuSans-32"/>
      <use x="550.244141" xlink:href="#DejaVuSans-99"/>
      <use x="605.224609" xlink:href="#DejaVuSans-97"/>
      <use x="666.503906" xlink:href="#DejaVuSans-115"/>
      <use x="718.603516" xlink:href="#DejaVuSans-101"/>
      <use x="780.126953" xlink:href="#DejaVuSans-115"/>
     </g>
    </g>
   </g>
   <g id="LineCollection_1">
    <path clip-path="url(#p7f4fa5adb1)" d="M 152.33474 270.248163 
L 152.33474 -1 
" style="fill:none;stroke:#000000;stroke-width:1.5;"/>
   </g>
   <g id="line2d_14">
    <path clip-path="url(#p7f4fa5adb1)" d="M 34.955844 216.151837 
L 35.235318 216.151837 
L 36.632686 218.120625 
L 37.191633 218.656836 
L 37.75058 218.963794 
L 38.309527 219.011283 
L 38.868474 218.783435 
L 39.427421 218.275326 
L 39.986368 217.490083 
L 40.824789 215.812749 
L 41.66321 213.575476 
L 42.781104 209.808421 
L 43.898998 205.250528 
L 45.296366 198.58316 
L 46.973207 189.312277 
L 48.929522 178.177646 
L 50.047417 172.970679 
L 50.885837 169.872997 
L 51.724258 167.50527 
L 52.562679 165.850644 
L 53.121626 165.121433 
L 53.680573 164.669955 
L 54.23952 164.475205 
L 54.798467 164.514909 
L 55.357414 164.766317 
L 56.195835 165.49109 
L 57.034256 166.568198 
L 58.15215 168.436244 
L 59.549518 171.270896 
L 61.505833 175.78656 
L 69.051619 193.716306 
L 71.846354 199.620365 
L 74.64109 205.041006 
L 75.758984 206.933249 
L 76.317931 207.591144 
L 76.876878 207.969454 
L 77.435826 208.031623 
L 77.994773 207.758517 
L 78.55372 207.144294 
L 79.112667 206.19288 
L 79.951088 204.158259 
L 80.789508 201.442822 
L 81.907403 196.869318 
L 83.025297 191.334959 
L 84.422665 183.238903 
L 86.099506 171.981586 
L 88.055821 158.461511 
L 89.173715 152.139078 
L 90.012136 148.377797 
L 90.850557 145.502839 
L 91.688977 143.493735 
L 92.247924 142.60829 
L 92.806872 142.060069 
L 93.365819 141.823567 
L 93.924766 141.871737 
L 94.483713 142.176955 
L 95.04266 142.711779 
L 95.881081 143.886456 
L 96.998975 146.017922 
L 98.396343 149.344525 
L 100.352658 154.744972 
L 108.736865 178.808742 
L 111.5316 185.85708 
L 114.326336 192.307139 
L 115.164756 193.812177 
L 115.723704 194.448319 
L 116.282651 194.719823 
L 116.841598 194.593555 
L 117.400545 194.054932 
L 117.959492 193.103281 
L 118.518439 191.747908 
L 119.35686 188.994103 
L 120.195281 185.438028 
L 121.313175 179.57828 
L 122.710543 170.683616 
L 124.10791 160.268064 
L 126.064225 143.640734 
L 127.461593 132.446004 
L 128.579487 125.204653 
L 129.417908 120.995736 
L 130.256329 117.860887 
L 131.09475 115.758224 
L 131.653697 114.891578 
L 132.212644 114.419209 
L 132.771591 114.30905 
L 133.330538 114.527782 
L 133.889485 115.041874 
L 134.448432 115.818389 
L 135.286853 117.406207 
L 136.404747 120.160009 
L 137.802115 124.338765 
L 139.75843 130.995635 
L 147.304216 157.427182 
L 150.098952 166.130776 
L 152.614214 173.353116 
L 152.893687 173.353116 
L 154.291055 176.911212 
L 154.850002 177.881063 
L 155.408949 178.438755 
L 155.688423 178.545124 
L 155.967897 178.530403 
L 156.24737 178.391814 
L 156.806317 177.737843 
L 157.365264 176.582393 
L 157.924212 174.936761 
L 158.762632 171.593218 
L 159.880526 165.859787 
L 161.836841 155.673852 
L 162.954736 151.04464 
L 163.793156 148.393134 
L 164.631577 146.47906 
L 165.190524 145.604152 
L 165.749471 145.034826 
L 166.308418 144.753086 
L 166.867365 144.738154 
L 167.426313 144.967593 
L 167.98526 145.418195 
L 168.82368 146.458002 
L 169.662101 147.867113 
L 170.779995 150.198809 
L 172.177363 153.636255 
L 174.413152 159.813492 
L 180.841044 177.920755 
L 183.635779 185.035474 
L 186.430515 191.578591 
L 189.22525 197.589346 
L 192.29946 203.648333 
L 193.417354 205.567469 
L 193.976301 206.233986 
L 194.535248 206.615721 
L 195.094195 206.675245 
L 195.653142 206.392917 
L 196.21209 205.762675 
L 196.771037 204.788437 
L 197.609457 202.707173 
L 198.447878 199.947522 
L 201.522087 189.112607 
L 202.639981 186.328787 
L 203.478402 184.832258 
L 204.316823 183.840436 
L 204.87577 183.4461 
L 205.434717 183.251107 
L 205.993664 183.241052 
L 206.552611 183.400377 
L 207.391032 183.921736 
L 208.229453 184.733914 
L 209.347347 186.180377 
L 210.744715 188.419397 
L 212.70103 192.04546 
L 221.36471 208.762035 
L 224.438919 213.945509 
L 227.513128 218.666876 
L 230.587338 222.97227 
L 232.543653 225.410808 
L 233.382073 226.03178 
L 233.94102 226.187122 
L 234.499968 226.110947 
L 235.058915 225.794685 
L 235.617862 225.237878 
L 236.456282 223.964502 
L 237.294703 222.195932 
L 240.927859 213.464934 
L 241.76628 212.074345 
L 242.604701 211.036935 
L 243.443122 210.349393 
L 244.281542 209.991776 
L 245.119963 209.933894 
L 245.958384 210.140112 
L 246.796804 210.572839 
L 247.914699 211.438291 
L 249.312066 212.870411 
L 251.268381 215.291933 
L 254.901538 220.279362 
L 258.814167 225.523991 
L 261.888377 229.299971 
L 264.962586 232.744147 
L 268.316269 236.153012 
L 270.272583 237.990217 
L 270.272583 237.990217 
" style="fill:none;stroke:#ff4500;stroke-linecap:square;stroke-width:1.5;"/>
   </g>
   <g id="line2d_15">
    <path clip-path="url(#p7f4fa5adb1)" d="M 34.955844 218.267063 
L 152.055267 156.187565 
L 152.055267 156.187565 
" style="fill:none;stroke:#000000;stroke-dasharray:5.55,2.4;stroke-dashoffset:0;stroke-width:1.5;"/>
   </g>
   <g id="line2d_16">
    <path clip-path="url(#p7f4fa5adb1)" d="M 152.33474 155.343653 
L 272.228898 234.828121 
L 272.228898 234.828121 
" style="fill:none;stroke:#000000;stroke-dasharray:5.55,2.4;stroke-dashoffset:0;stroke-width:1.5;"/>
   </g>
   <g id="patch_15">
    <path d="M 34.955844 243.2 
L 34.955844 53.862857 
" style="fill:none;stroke:#000000;stroke-linecap:square;stroke-linejoin:miter;stroke-width:0.8;"/>
   </g>
   <g id="patch_16">
    <path d="M 269.713636 243.2 
L 269.713636 53.862857 
" style="fill:none;stroke:#000000;stroke-linecap:square;stroke-linejoin:miter;stroke-width:0.8;"/>
   </g>
   <g id="patch_17">
    <path d="M 34.955844 243.2 
L 269.713636 243.2 
" style="fill:none;stroke:#000000;stroke-linecap:square;stroke-linejoin:miter;stroke-width:0.8;"/>
   </g>
   <g id="patch_18">
    <path d="M 34.955844 53.862857 
L 269.713636 53.862857 
" style="fill:none;stroke:#000000;stroke-linecap:square;stroke-linejoin:miter;stroke-width:0.8;"/>
   </g>
   <g id="text_16">
    <!-- 4-10 cycle -->
    <defs>
     <path d="M 4.890625 31.390625 
L 31.203125 31.390625 
L 31.203125 23.390625 
L 4.890625 23.390625 
z
" id="DejaVuSans-45"/>
     <path d="M 32.171875 -5.078125 
Q 28.375 -14.84375 24.75 -17.8125 
Q 21.140625 -20.796875 15.09375 -20.796875 
L 7.90625 -20.796875 
L 7.90625 -13.28125 
L 13.1875 -13.28125 
Q 16.890625 -13.28125 18.9375 -11.515625 
Q 21 -9.765625 23.484375 -3.21875 
L 25.09375 0.875 
L 2.984375 54.6875 
L 12.5 54.6875 
L 29.59375 11.921875 
L 46.6875 54.6875 
L 56.203125 54.6875 
z
" id="DejaVuSans-121"/>
     <path d="M 9.421875 75.984375 
L 18.40625 75.984375 
L 18.40625 0 
L 9.421875 0 
z
" id="DejaVuSans-108"/>
    </defs>
    <g transform="translate(37.75058 43.043592)scale(0.12 -0.12)">
     <use xlink:href="#DejaVuSans-52"/>
     <use x="63.623047" xlink:href="#DejaVuSans-45"/>
     <use x="99.707031" xlink:href="#DejaVuSans-49"/>
     <use x="163.330078" xlink:href="#DejaVuSans-48"/>
     <use x="226.953125" xlink:href="#DejaVuSans-32"/>
     <use x="258.740234" xlink:href="#DejaVuSans-99"/>
     <use x="313.720703" xlink:href="#DejaVuSans-121"/>
     <use x="372.900391" xlink:href="#DejaVuSans-99"/>
     <use x="427.880859" xlink:href="#DejaVuSans-108"/>
     <use x="455.664062" xlink:href="#DejaVuSans-101"/>
    </g>
   </g>
   <g id="text_17">
    <!-- 2-12 cycle -->
    <g transform="translate(216.61366 43.043592)scale(0.12 -0.12)">
     <use xlink:href="#DejaVuSans-50"/>
     <use x="63.623047" xlink:href="#DejaVuSans-45"/>
     <use x="99.707031" xlink:href="#DejaVuSans-49"/>
     <use x="163.330078" xlink:href="#DejaVuSans-50"/>
     <use x="226.953125" xlink:href="#DejaVuSans-32"/>
     <use x="258.740234" xlink:href="#DejaVuSans-99"/>
     <use x="313.720703" xlink:href="#DejaVuSans-121"/>
     <use x="372.900391" xlink:href="#DejaVuSans-99"/>
     <use x="427.880859" xlink:href="#DejaVuSans-108"/>
     <use x="455.664062" xlink:href="#DejaVuSans-101"/>
    </g>
   </g>
   <g id="text_18">
    <!-- $R_W=2.8$ -->
    <defs>
     <path d="M 25.203125 64.796875 
L 20.21875 38.921875 
L 32.90625 38.921875 
Q 40.375 38.921875 44.984375 43.046875 
Q 49.609375 47.171875 49.609375 53.8125 
Q 49.609375 59.125 46.5 61.953125 
Q 43.40625 64.796875 37.59375 64.796875 
z
M 43.3125 35.015625 
Q 46.4375 34.28125 48.515625 31.390625 
Q 50.59375 28.515625 53.328125 19.921875 
L 59.515625 0 
L 49.125 0 
L 43.40625 18.703125 
Q 41.21875 25.921875 38.328125 28.359375 
Q 35.453125 30.8125 29.5 30.8125 
L 18.609375 30.8125 
L 12.59375 0 
L 2.6875 0 
L 16.890625 72.90625 
L 39.109375 72.90625 
Q 49.21875 72.90625 54.609375 68.328125 
Q 60.015625 63.765625 60.015625 55.171875 
Q 60.015625 47.5625 55.421875 41.984375 
Q 50.828125 36.421875 43.3125 35.015625 
z
" id="DejaVuSans-Oblique-82"/>
     <path d="M 9.625 72.90625 
L 19.1875 72.90625 
L 22.703125 10.890625 
L 50.203125 72.90625 
L 61.1875 72.90625 
L 64.796875 10.890625 
L 92 72.90625 
L 102 72.90625 
L 69.578125 0 
L 57.171875 0 
L 53.8125 60.796875 
L 26.515625 0 
L 14.109375 0 
z
" id="DejaVuSans-Oblique-87"/>
     <path d="M 10.59375 45.40625 
L 73.1875 45.40625 
L 73.1875 37.203125 
L 10.59375 37.203125 
z
M 10.59375 25.484375 
L 73.1875 25.484375 
L 73.1875 17.1875 
L 10.59375 17.1875 
z
" id="DejaVuSans-61"/>
     <path d="M 10.6875 12.40625 
L 21 12.40625 
L 21 0 
L 10.6875 0 
z
" id="DejaVuSans-46"/>
    </defs>
    <g transform="translate(37.75058 237.790367)scale(0.1 -0.1)">
     <use transform="translate(0 0.78125)" xlink:href="#DejaVuSans-Oblique-82"/>
     <use transform="translate(69.482422 -15.625)scale(0.7)" xlink:href="#DejaVuSans-Oblique-87"/>
     <use transform="translate(160.913086 0.78125)" xlink:href="#DejaVuSans-61"/>
     <use transform="translate(264.18457 0.78125)" xlink:href="#DejaVuSans-50"/>
     <use transform="translate(327.807617 0.78125)" xlink:href="#DejaVuSans-46"/>
     <use transform="translate(359.563477 0.78125)" xlink:href="#DejaVuSans-56"/>
    </g>
   </g>
   <g id="text_19">
    <g id="patch_19">
     <path d="M 61.697936 103.239918 
L 235.379186 103.239918 
L 235.379186 74.362106 
L 61.697936 74.362106 
z
" style="fill:#cfdeff;opacity:0.5;"/>
    </g>
    <!-- if an increasing trend is detected -->
    <defs>
     <path d="M 9.421875 54.6875 
L 18.40625 54.6875 
L 18.40625 0 
L 9.421875 0 
z
M 9.421875 75.984375 
L 18.40625 75.984375 
L 18.40625 64.59375 
L 9.421875 64.59375 
z
" id="DejaVuSans-105"/>
     <path d="M 45.40625 27.984375 
Q 45.40625 37.75 41.375 43.109375 
Q 37.359375 48.484375 30.078125 48.484375 
Q 22.859375 48.484375 18.828125 43.109375 
Q 14.796875 37.75 14.796875 27.984375 
Q 14.796875 18.265625 18.828125 12.890625 
Q 22.859375 7.515625 30.078125 7.515625 
Q 37.359375 7.515625 41.375 12.890625 
Q 45.40625 18.265625 45.40625 27.984375 
z
M 54.390625 6.78125 
Q 54.390625 -7.171875 48.1875 -13.984375 
Q 42 -20.796875 29.203125 -20.796875 
Q 24.46875 -20.796875 20.265625 -20.09375 
Q 16.0625 -19.390625 12.109375 -17.921875 
L 12.109375 -9.1875 
Q 16.0625 -11.328125 19.921875 -12.34375 
Q 23.78125 -13.375 27.78125 -13.375 
Q 36.625 -13.375 41.015625 -8.765625 
Q 45.40625 -4.15625 45.40625 5.171875 
L 45.40625 9.625 
Q 42.625 4.78125 38.28125 2.390625 
Q 33.9375 0 27.875 0 
Q 17.828125 0 11.671875 7.65625 
Q 5.515625 15.328125 5.515625 27.984375 
Q 5.515625 40.671875 11.671875 48.328125 
Q 17.828125 56 27.875 56 
Q 33.9375 56 38.28125 53.609375 
Q 42.625 51.21875 45.40625 46.390625 
L 45.40625 54.6875 
L 54.390625 54.6875 
z
" id="DejaVuSans-103"/>
     <path d="M 18.3125 70.21875 
L 18.3125 54.6875 
L 36.8125 54.6875 
L 36.8125 47.703125 
L 18.3125 47.703125 
L 18.3125 18.015625 
Q 18.3125 11.328125 20.140625 9.421875 
Q 21.96875 7.515625 27.59375 7.515625 
L 36.8125 7.515625 
L 36.8125 0 
L 27.59375 0 
Q 17.1875 0 13.234375 3.875 
Q 9.28125 7.765625 9.28125 18.015625 
L 9.28125 47.703125 
L 2.6875 47.703125 
L 2.6875 54.6875 
L 9.28125 54.6875 
L 9.28125 70.21875 
z
" id="DejaVuSans-116"/>
     <path d="M 45.40625 46.390625 
L 45.40625 75.984375 
L 54.390625 75.984375 
L 54.390625 0 
L 45.40625 0 
L 45.40625 8.203125 
Q 42.578125 3.328125 38.25 0.953125 
Q 33.9375 -1.421875 27.875 -1.421875 
Q 17.96875 -1.421875 11.734375 6.484375 
Q 5.515625 14.40625 5.515625 27.296875 
Q 5.515625 40.1875 11.734375 48.09375 
Q 17.96875 56 27.875 56 
Q 33.9375 56 38.25 53.625 
Q 42.578125 51.265625 45.40625 46.390625 
z
M 14.796875 27.296875 
Q 14.796875 17.390625 18.875 11.75 
Q 22.953125 6.109375 30.078125 6.109375 
Q 37.203125 6.109375 41.296875 11.75 
Q 45.40625 17.390625 45.40625 27.296875 
Q 45.40625 37.203125 41.296875 42.84375 
Q 37.203125 48.484375 30.078125 48.484375 
Q 22.953125 48.484375 18.875 42.84375 
Q 14.796875 37.203125 14.796875 27.296875 
z
" id="DejaVuSans-100"/>
    </defs>
    <g transform="translate(65.697936 85.940231)scale(0.1 -0.1)">
     <use xlink:href="#DejaVuSans-105"/>
     <use x="27.783203" xlink:href="#DejaVuSans-102"/>
     <use x="62.988281" xlink:href="#DejaVuSans-32"/>
     <use x="94.775391" xlink:href="#DejaVuSans-97"/>
     <use x="156.054688" xlink:href="#DejaVuSans-110"/>
     <use x="219.433594" xlink:href="#DejaVuSans-32"/>
     <use x="251.220703" xlink:href="#DejaVuSans-105"/>
     <use x="279.003906" xlink:href="#DejaVuSans-110"/>
     <use x="342.382812" xlink:href="#DejaVuSans-99"/>
     <use x="397.363281" xlink:href="#DejaVuSans-114"/>
     <use x="438.445312" xlink:href="#DejaVuSans-101"/>
     <use x="499.96875" xlink:href="#DejaVuSans-97"/>
     <use x="561.248047" xlink:href="#DejaVuSans-115"/>
     <use x="613.347656" xlink:href="#DejaVuSans-105"/>
     <use x="641.130859" xlink:href="#DejaVuSans-110"/>
     <use x="704.509766" xlink:href="#DejaVuSans-103"/>
     <use x="767.986328" xlink:href="#DejaVuSans-32"/>
     <use x="799.773438" xlink:href="#DejaVuSans-116"/>
     <use x="838.982422" xlink:href="#DejaVuSans-114"/>
     <use x="880.064453" xlink:href="#DejaVuSans-101"/>
     <use x="941.587891" xlink:href="#DejaVuSans-110"/>
     <use x="1004.966797" xlink:href="#DejaVuSans-100"/>
     <use x="1068.443359" xlink:href="#DejaVuSans-32"/>
     <use x="1100.230469" xlink:href="#DejaVuSans-105"/>
     <use x="1128.013672" xlink:href="#DejaVuSans-115"/>
     <use x="1180.113281" xlink:href="#DejaVuSans-32"/>
     <use x="1211.900391" xlink:href="#DejaVuSans-100"/>
     <use x="1275.376953" xlink:href="#DejaVuSans-101"/>
     <use x="1336.900391" xlink:href="#DejaVuSans-116"/>
     <use x="1376.109375" xlink:href="#DejaVuSans-101"/>
     <use x="1437.632812" xlink:href="#DejaVuSans-99"/>
     <use x="1492.613281" xlink:href="#DejaVuSans-116"/>
     <use x="1531.822266" xlink:href="#DejaVuSans-101"/>
     <use x="1593.345703" xlink:href="#DejaVuSans-100"/>
    </g>
    <!-- $\rightarrow$ reduce work days -->
    <defs>
     <path d="M 78.90625 33.546875 
L 78.90625 29.15625 
L 59.71875 9.96875 
L 53.859375 15.828125 
L 65.234375 27.203125 
L 5.71875 27.203125 
L 5.71875 35.5 
L 65.234375 35.5 
L 53.859375 46.875 
L 59.71875 52.734375 
z
" id="DejaVuSans-8594"/>
    </defs>
    <g transform="translate(96.388561 97.139918)scale(0.1 -0.1)">
     <use transform="translate(19.482422 0.015625)" xlink:href="#DejaVuSans-8594"/>
     <use transform="translate(122.753906 0.015625)" xlink:href="#DejaVuSans-32"/>
     <use transform="translate(154.541016 0.015625)" xlink:href="#DejaVuSans-114"/>
     <use transform="translate(195.654297 0.015625)" xlink:href="#DejaVuSans-101"/>
     <use transform="translate(257.177734 0.015625)" xlink:href="#DejaVuSans-100"/>
     <use transform="translate(320.654297 0.015625)" xlink:href="#DejaVuSans-117"/>
     <use transform="translate(384.033203 0.015625)" xlink:href="#DejaVuSans-99"/>
     <use transform="translate(439.013672 0.015625)" xlink:href="#DejaVuSans-101"/>
     <use transform="translate(500.537109 0.015625)" xlink:href="#DejaVuSans-32"/>
     <use transform="translate(532.324219 0.015625)" xlink:href="#DejaVuSans-119"/>
     <use transform="translate(614.111328 0.015625)" xlink:href="#DejaVuSans-111"/>
     <use transform="translate(675.292969 0.015625)" xlink:href="#DejaVuSans-114"/>
     <use transform="translate(716.40625 0.015625)" xlink:href="#DejaVuSans-107"/>
     <use transform="translate(774.316406 0.015625)" xlink:href="#DejaVuSans-32"/>
     <use transform="translate(806.103516 0.015625)" xlink:href="#DejaVuSans-100"/>
     <use transform="translate(869.580078 0.015625)" xlink:href="#DejaVuSans-97"/>
     <use transform="translate(930.859375 0.015625)" xlink:href="#DejaVuSans-121"/>
     <use transform="translate(990.039062 0.015625)" xlink:href="#DejaVuSans-115"/>
    </g>
   </g>
   <g id="text_20">
    <!-- A -->
    <defs>
     <path d="M 34.1875 63.1875 
L 20.796875 26.90625 
L 47.609375 26.90625 
z
M 28.609375 72.90625 
L 39.796875 72.90625 
L 67.578125 0 
L 57.328125 0 
L 50.6875 18.703125 
L 17.828125 18.703125 
L 11.1875 0 
L 0.78125 0 
z
" id="DejaVuSans-65"/>
    </defs>
    <g transform="translate(7.008488 26.814694)scale(0.16 -0.16)">
     <use xlink:href="#DejaVuSans-65"/>
    </g>
   </g>
  </g>
  <g id="axes_2">
   <g id="patch_20">
    <path d="M 320.773377 243.2 
L 555.531169 243.2 
L 555.531169 53.862857 
L 320.773377 53.862857 
z
" style="fill:#ffffff;"/>
   </g>
   <g id="patch_21">
    <path clip-path="url(#p90eb7dc142)" d="M 331.952319 243.2 
L 331.952319 53.862857 
L 359.899675 53.862857 
L 359.899675 243.2 
z
" style="fill:#808080;opacity:0.5;stroke:#808080;stroke-linejoin:miter;"/>
   </g>
   <g id="patch_22">
    <path clip-path="url(#p90eb7dc142)" d="M 320.773377 243.2 
L 320.773377 53.862857 
L 331.952319 53.862857 
L 331.952319 243.2 
z
" style="fill:#808080;opacity:0.2;stroke:#808080;stroke-linejoin:miter;"/>
   </g>
   <g id="patch_23">
    <path clip-path="url(#p90eb7dc142)" d="M 371.078618 243.2 
L 371.078618 53.862857 
L 399.025974 53.862857 
L 399.025974 243.2 
z
" style="fill:#808080;opacity:0.5;stroke:#808080;stroke-linejoin:miter;"/>
   </g>
   <g id="patch_24">
    <path clip-path="url(#p90eb7dc142)" d="M 359.899675 243.2 
L 359.899675 53.862857 
L 371.078618 53.862857 
L 371.078618 243.2 
z
" style="fill:#808080;opacity:0.2;stroke:#808080;stroke-linejoin:miter;"/>
   </g>
   <g id="patch_25">
    <path clip-path="url(#p90eb7dc142)" d="M 410.204917 243.2 
L 410.204917 53.862857 
L 438.152273 53.862857 
L 438.152273 243.2 
z
" style="fill:#808080;opacity:0.5;stroke:#808080;stroke-linejoin:miter;"/>
   </g>
   <g id="patch_26">
    <path clip-path="url(#p90eb7dc142)" d="M 399.025974 243.2 
L 399.025974 53.862857 
L 410.204917 53.862857 
L 410.204917 243.2 
z
" style="fill:#808080;opacity:0.2;stroke:#808080;stroke-linejoin:miter;"/>
   </g>
   <g id="patch_27">
    <path clip-path="url(#p90eb7dc142)" d="M 454.920686 243.2 
L 454.920686 53.862857 
L 477.278571 53.862857 
L 477.278571 243.2 
z
" style="fill:#808080;opacity:0.5;stroke:#808080;stroke-linejoin:miter;"/>
   </g>
   <g id="patch_28">
    <path clip-path="url(#p90eb7dc142)" d="M 438.152273 243.2 
L 438.152273 53.862857 
L 454.920686 53.862857 
L 454.920686 243.2 
z
" style="fill:#808080;opacity:0.2;stroke:#808080;stroke-linejoin:miter;"/>
   </g>
   <g id="patch_29">
    <path clip-path="url(#p90eb7dc142)" d="M 494.046985 243.2 
L 494.046985 53.862857 
L 516.40487 53.862857 
L 516.40487 243.2 
z
" style="fill:#808080;opacity:0.5;stroke:#808080;stroke-linejoin:miter;"/>
   </g>
   <g id="patch_30">
    <path clip-path="url(#p90eb7dc142)" d="M 477.278571 243.2 
L 477.278571 53.862857 
L 494.046985 53.862857 
L 494.046985 243.2 
z
" style="fill:#808080;opacity:0.2;stroke:#808080;stroke-linejoin:miter;"/>
   </g>
   <g id="patch_31">
    <path clip-path="url(#p90eb7dc142)" d="M 533.173284 243.2 
L 533.173284 53.862857 
L 555.531169 53.862857 
L 555.531169 243.2 
z
" style="fill:#808080;opacity:0.5;stroke:#808080;stroke-linejoin:miter;"/>
   </g>
   <g id="patch_32">
    <path clip-path="url(#p90eb7dc142)" d="M 516.40487 243.2 
L 516.40487 53.862857 
L 533.173284 53.862857 
L 533.173284 243.2 
z
" style="fill:#808080;opacity:0.2;stroke:#808080;stroke-linejoin:miter;"/>
   </g>
   <g id="matplotlib.axis_3">
    <g id="xtick_14">
     <g id="line2d_17">
      <g>
       <use style="stroke:#000000;stroke-width:0.8;" x="320.773377" xlink:href="#m69cf34fef0" y="243.2"/>
      </g>
     </g>
     <g id="text_21">
      <!-- 0 -->
      <g transform="translate(317.592127 257.798437)scale(0.1 -0.1)">
       <use xlink:href="#DejaVuSans-48"/>
      </g>
     </g>
    </g>
    <g id="xtick_15">
     <g id="line2d_18">
      <g>
       <use style="stroke:#000000;stroke-width:0.8;" x="340.336526" xlink:href="#m69cf34fef0" y="243.2"/>
      </g>
     </g>
     <g id="text_22">
      <!-- 1 -->
      <g transform="translate(337.155276 257.798437)scale(0.1 -0.1)">
       <use xlink:href="#DejaVuSans-49"/>
      </g>
     </g>
    </g>
    <g id="xtick_16">
     <g id="line2d_19">
      <g>
       <use style="stroke:#000000;stroke-width:0.8;" x="359.899675" xlink:href="#m69cf34fef0" y="243.2"/>
      </g>
     </g>
     <g id="text_23">
      <!-- 2 -->
      <g transform="translate(356.718425 257.798437)scale(0.1 -0.1)">
       <use xlink:href="#DejaVuSans-50"/>
      </g>
     </g>
    </g>
    <g id="xtick_17">
     <g id="line2d_20">
      <g>
       <use style="stroke:#000000;stroke-width:0.8;" x="379.462825" xlink:href="#m69cf34fef0" y="243.2"/>
      </g>
     </g>
     <g id="text_24">
      <!-- 3 -->
      <g transform="translate(376.281575 257.798437)scale(0.1 -0.1)">
       <use xlink:href="#DejaVuSans-51"/>
      </g>
     </g>
    </g>
    <g id="xtick_18">
     <g id="line2d_21">
      <g>
       <use style="stroke:#000000;stroke-width:0.8;" x="399.025974" xlink:href="#m69cf34fef0" y="243.2"/>
      </g>
     </g>
     <g id="text_25">
      <!-- 4 -->
      <g transform="translate(395.844724 257.798437)scale(0.1 -0.1)">
       <use xlink:href="#DejaVuSans-52"/>
      </g>
     </g>
    </g>
    <g id="xtick_19">
     <g id="line2d_22">
      <g>
       <use style="stroke:#000000;stroke-width:0.8;" x="418.589123" xlink:href="#m69cf34fef0" y="243.2"/>
      </g>
     </g>
     <g id="text_26">
      <!-- 5 -->
      <g transform="translate(415.407873 257.798437)scale(0.1 -0.1)">
       <use xlink:href="#DejaVuSans-53"/>
      </g>
     </g>
    </g>
    <g id="xtick_20">
     <g id="line2d_23">
      <g>
       <use style="stroke:#000000;stroke-width:0.8;" x="438.152273" xlink:href="#m69cf34fef0" y="243.2"/>
      </g>
     </g>
     <g id="text_27">
      <!-- 6 -->
      <g transform="translate(434.971023 257.798437)scale(0.1 -0.1)">
       <use xlink:href="#DejaVuSans-54"/>
      </g>
     </g>
    </g>
    <g id="xtick_21">
     <g id="line2d_24">
      <g>
       <use style="stroke:#000000;stroke-width:0.8;" x="457.715422" xlink:href="#m69cf34fef0" y="243.2"/>
      </g>
     </g>
     <g id="text_28">
      <!-- 7 -->
      <g transform="translate(454.534172 257.798437)scale(0.1 -0.1)">
       <use xlink:href="#DejaVuSans-55"/>
      </g>
     </g>
    </g>
    <g id="xtick_22">
     <g id="line2d_25">
      <g>
       <use style="stroke:#000000;stroke-width:0.8;" x="477.278571" xlink:href="#m69cf34fef0" y="243.2"/>
      </g>
     </g>
     <g id="text_29">
      <!-- 8 -->
      <g transform="translate(474.097321 257.798437)scale(0.1 -0.1)">
       <use xlink:href="#DejaVuSans-56"/>
      </g>
     </g>
    </g>
    <g id="xtick_23">
     <g id="line2d_26">
      <g>
       <use style="stroke:#000000;stroke-width:0.8;" x="496.841721" xlink:href="#m69cf34fef0" y="243.2"/>
      </g>
     </g>
     <g id="text_30">
      <!-- 9 -->
      <g transform="translate(493.660471 257.798437)scale(0.1 -0.1)">
       <use xlink:href="#DejaVuSans-57"/>
      </g>
     </g>
    </g>
    <g id="xtick_24">
     <g id="line2d_27">
      <g>
       <use style="stroke:#000000;stroke-width:0.8;" x="516.40487" xlink:href="#m69cf34fef0" y="243.2"/>
      </g>
     </g>
     <g id="text_31">
      <!-- 10 -->
      <g transform="translate(510.04237 257.798437)scale(0.1 -0.1)">
       <use xlink:href="#DejaVuSans-49"/>
       <use x="63.623047" xlink:href="#DejaVuSans-48"/>
      </g>
     </g>
    </g>
    <g id="xtick_25">
     <g id="line2d_28">
      <g>
       <use style="stroke:#000000;stroke-width:0.8;" x="535.968019" xlink:href="#m69cf34fef0" y="243.2"/>
      </g>
     </g>
     <g id="text_32">
      <!-- 11 -->
      <g transform="translate(529.605519 257.798437)scale(0.1 -0.1)">
       <use xlink:href="#DejaVuSans-49"/>
       <use x="63.623047" xlink:href="#DejaVuSans-49"/>
      </g>
     </g>
    </g>
    <g id="xtick_26">
     <g id="line2d_29">
      <g>
       <use style="stroke:#000000;stroke-width:0.8;" x="555.531169" xlink:href="#m69cf34fef0" y="243.2"/>
      </g>
     </g>
     <g id="text_33">
      <!-- 12 -->
      <g transform="translate(549.168669 257.798437)scale(0.1 -0.1)">
       <use xlink:href="#DejaVuSans-49"/>
       <use x="63.623047" xlink:href="#DejaVuSans-50"/>
      </g>
     </g>
    </g>
    <g id="text_34">
     <!-- weeks -->
     <g transform="translate(419.261648 272.99625)scale(0.12 -0.12)">
      <use xlink:href="#DejaVuSans-119"/>
      <use x="81.787109" xlink:href="#DejaVuSans-101"/>
      <use x="143.310547" xlink:href="#DejaVuSans-101"/>
      <use x="204.833984" xlink:href="#DejaVuSans-107"/>
      <use x="262.744141" xlink:href="#DejaVuSans-115"/>
     </g>
    </g>
   </g>
   <g id="matplotlib.axis_4">
    <g id="text_35">
     <!-- number of cases -->
     <g transform="translate(314.277752 198.464554)rotate(-90)scale(0.12 -0.12)">
      <use xlink:href="#DejaVuSans-110"/>
      <use x="63.378906" xlink:href="#DejaVuSans-117"/>
      <use x="126.757812" xlink:href="#DejaVuSans-109"/>
      <use x="224.169922" xlink:href="#DejaVuSans-98"/>
      <use x="287.646484" xlink:href="#DejaVuSans-101"/>
      <use x="349.169922" xlink:href="#DejaVuSans-114"/>
      <use x="390.283203" xlink:href="#DejaVuSans-32"/>
      <use x="422.070312" xlink:href="#DejaVuSans-111"/>
      <use x="483.251953" xlink:href="#DejaVuSans-102"/>
      <use x="518.457031" xlink:href="#DejaVuSans-32"/>
      <use x="550.244141" xlink:href="#DejaVuSans-99"/>
      <use x="605.224609" xlink:href="#DejaVuSans-97"/>
      <use x="666.503906" xlink:href="#DejaVuSans-115"/>
      <use x="718.603516" xlink:href="#DejaVuSans-101"/>
      <use x="780.126953" xlink:href="#DejaVuSans-115"/>
     </g>
    </g>
   </g>
   <g id="LineCollection_2">
    <path clip-path="url(#p90eb7dc142)" d="M 438.152273 243.2 
L 438.152273 -1 
" style="fill:none;stroke:#000000;stroke-width:1.5;"/>
   </g>
   <g id="line2d_30">
    <path clip-path="url(#p90eb7dc142)" d="M 320.773377 116.975238 
L 321.05285 116.975238 
L 322.729692 122.608085 
L 323.847586 125.502251 
L 324.686006 127.038278 
L 325.524427 128.005409 
L 326.083374 128.342879 
L 326.642321 128.44812 
L 327.201269 128.336417 
L 327.760216 128.024918 
L 328.598636 127.222588 
L 329.437057 126.072301 
L 330.554951 124.096532 
L 331.952319 121.083245 
L 334.747055 114.65559 
L 335.585475 113.349035 
L 336.423896 112.518336 
L 336.982843 112.240148 
L 337.54179 112.18028 
L 338.100737 112.33128 
L 338.659685 112.682155 
L 339.498105 113.553324 
L 340.336526 114.792146 
L 341.45442 116.921667 
L 342.851788 120.174785 
L 344.808103 125.444743 
L 349.000206 137.712764 
L 352.633363 147.987732 
L 355.707572 155.98617 
L 358.502308 162.662682 
L 361.297043 168.78048 
L 362.414937 170.806787 
L 363.253358 171.972261 
L 364.091779 172.794502 
L 364.930199 173.271668 
L 365.76862 173.421779 
L 366.607041 173.274675 
L 367.445462 172.866061 
L 368.283882 172.233276 
L 369.401776 171.102877 
L 370.799144 169.335198 
L 374.152827 164.73973 
L 374.991248 164.038568 
L 375.829668 163.633494 
L 376.668089 163.529112 
L 377.50651 163.712764 
L 378.34493 164.160756 
L 379.183351 164.843096 
L 380.301245 166.060658 
L 381.698613 167.968359 
L 383.654928 171.115619 
L 387.288084 177.557701 
L 391.480188 184.83981 
L 394.554397 189.741575 
L 397.628606 194.226243 
L 400.423342 197.946403 
L 401.541236 199.178576 
L 402.65913 200.077509 
L 403.497551 200.50697 
L 404.335972 200.729177 
L 405.174392 200.757957 
L 406.292287 200.529886 
L 407.410181 200.046007 
L 408.807549 199.160625 
L 410.48439 197.802271 
L 412.999652 195.668821 
L 414.117546 195.062905 
L 414.955967 194.816585 
L 415.794388 194.753112 
L 416.632808 194.864788 
L 417.750703 195.260647 
L 418.868597 195.898085 
L 420.265965 196.962215 
L 422.22228 198.794816 
L 425.296489 202.063377 
L 430.606487 207.711885 
L 433.960169 210.950879 
L 437.313852 213.889248 
L 438.431746 214.805331 
L 438.71122 214.805331 
L 440.667535 216.260901 
L 441.785429 216.862071 
L 442.903323 217.238893 
L 444.021218 217.392377 
L 445.139112 217.343665 
L 446.53648 217.04495 
L 448.213321 216.420197 
L 450.169636 215.442347 
L 452.964372 213.777171 
L 458.553843 210.354519 
L 459.671737 210.052362 
L 460.789631 209.97952 
L 461.907526 210.122256 
L 463.304893 210.562164 
L 464.981735 211.388814 
L 466.93805 212.628989 
L 470.291732 215.073243 
L 475.881204 219.135369 
L 479.234886 221.313663 
L 480.632254 221.997965 
L 482.029622 222.408555 
L 483.42699 222.539602 
L 484.824358 222.425777 
L 486.501199 222.035512 
L 488.457514 221.334953 
L 491.25225 220.0644 
L 495.444353 217.875683 
L 497.121194 217.094042 
L 498.518562 216.707013 
L 499.636456 216.603213 
L 501.033824 216.719709 
L 502.431192 217.071851 
L 504.108033 217.733605 
L 506.343822 218.881094 
L 510.535925 221.353625 
L 515.566449 224.239839 
L 518.920132 225.921816 
L 520.3175 226.385814 
L 521.714868 226.623153 
L 523.112236 226.645308 
L 524.789077 226.436796 
L 526.745392 225.956772 
L 529.540128 225.002333 
L 533.732231 223.289542 
L 536.247493 222.300907 
L 537.644861 221.991071 
L 539.042229 221.909783 
L 540.439596 222.043772 
L 542.116438 222.439652 
L 544.072753 223.135522 
L 547.146962 224.506249 
L 555.810642 228.498317 
L 556.090116 228.615196 
L 556.090116 228.615196 
" style="fill:none;stroke:#ff4500;stroke-linecap:square;stroke-width:1.5;"/>
   </g>
   <g id="line2d_31">
    <path clip-path="url(#p90eb7dc142)" d="M 320.773377 115.288444 
L 437.872799 218.479676 
L 437.872799 218.479676 
" style="fill:none;stroke:#000000;stroke-dasharray:5.55,2.4;stroke-dashoffset:0;stroke-width:1.5;"/>
   </g>
   <g id="line2d_32">
    <path clip-path="url(#p90eb7dc142)" d="M 438.152273 214.945449 
L 558.046431 228.894364 
L 558.046431 228.894364 
" style="fill:none;stroke:#000000;stroke-dasharray:5.55,2.4;stroke-dashoffset:0;stroke-width:1.5;"/>
   </g>
   <g id="patch_33">
    <path d="M 320.773377 243.2 
L 320.773377 53.862857 
" style="fill:none;stroke:#000000;stroke-linecap:square;stroke-linejoin:miter;stroke-width:0.8;"/>
   </g>
   <g id="patch_34">
    <path d="M 555.531169 243.2 
L 555.531169 53.862857 
" style="fill:none;stroke:#000000;stroke-linecap:square;stroke-linejoin:miter;stroke-width:0.8;"/>
   </g>
   <g id="patch_35">
    <path d="M 320.773377 243.2 
L 555.531169 243.2 
" style="fill:none;stroke:#000000;stroke-linecap:square;stroke-linejoin:miter;stroke-width:0.8;"/>
   </g>
   <g id="patch_36">
    <path d="M 320.773377 53.862857 
L 555.531169 53.862857 
" style="fill:none;stroke:#000000;stroke-linecap:square;stroke-linejoin:miter;stroke-width:0.8;"/>
   </g>
   <g id="text_36">
    <!-- 4-10 cycle -->
    <g transform="translate(323.568112 47.551619)scale(0.12 -0.12)">
     <use xlink:href="#DejaVuSans-52"/>
     <use x="63.623047" xlink:href="#DejaVuSans-45"/>
     <use x="99.707031" xlink:href="#DejaVuSans-49"/>
     <use x="163.330078" xlink:href="#DejaVuSans-48"/>
     <use x="226.953125" xlink:href="#DejaVuSans-32"/>
     <use x="258.740234" xlink:href="#DejaVuSans-99"/>
     <use x="313.720703" xlink:href="#DejaVuSans-121"/>
     <use x="372.900391" xlink:href="#DejaVuSans-99"/>
     <use x="427.880859" xlink:href="#DejaVuSans-108"/>
     <use x="455.664062" xlink:href="#DejaVuSans-101"/>
    </g>
   </g>
   <g id="text_37">
    <!-- 6-8 cycle -->
    <g transform="translate(502.431192 47.551619)scale(0.12 -0.12)">
     <use xlink:href="#DejaVuSans-54"/>
     <use x="63.623047" xlink:href="#DejaVuSans-45"/>
     <use x="99.707031" xlink:href="#DejaVuSans-56"/>
     <use x="163.330078" xlink:href="#DejaVuSans-32"/>
     <use x="195.117188" xlink:href="#DejaVuSans-99"/>
     <use x="250.097656" xlink:href="#DejaVuSans-121"/>
     <use x="309.277344" xlink:href="#DejaVuSans-99"/>
     <use x="364.257812" xlink:href="#DejaVuSans-108"/>
     <use x="392.041016" xlink:href="#DejaVuSans-101"/>
    </g>
   </g>
   <g id="text_38">
    <!-- $R_W=1.4$ -->
    <g transform="translate(323.568112 236.888762)scale(0.1 -0.1)">
     <use transform="translate(0 0.09375)" xlink:href="#DejaVuSans-Oblique-82"/>
     <use transform="translate(69.482422 -16.3125)scale(0.7)" xlink:href="#DejaVuSans-Oblique-87"/>
     <use transform="translate(160.913086 0.09375)" xlink:href="#DejaVuSans-61"/>
     <use transform="translate(264.18457 0.09375)" xlink:href="#DejaVuSans-49"/>
     <use transform="translate(327.807617 0.09375)" xlink:href="#DejaVuSans-46"/>
     <use transform="translate(359.594727 0.09375)" xlink:href="#DejaVuSans-52"/>
    </g>
   </g>
   <g id="text_39">
    <g id="patch_37">
     <path d="M 330.747055 97.830286 
L 539.065805 97.830286 
L 539.065805 68.952473 
L 330.747055 68.952473 
z
" style="fill:#cfdeff;opacity:0.5;"/>
    </g>
    <!-- if a rapidly decreasing trend is detected -->
    <defs>
     <path d="M 18.109375 8.203125 
L 18.109375 -20.796875 
L 9.078125 -20.796875 
L 9.078125 54.6875 
L 18.109375 54.6875 
L 18.109375 46.390625 
Q 20.953125 51.265625 25.265625 53.625 
Q 29.59375 56 35.59375 56 
Q 45.5625 56 51.78125 48.09375 
Q 58.015625 40.1875 58.015625 27.296875 
Q 58.015625 14.40625 51.78125 6.484375 
Q 45.5625 -1.421875 35.59375 -1.421875 
Q 29.59375 -1.421875 25.265625 0.953125 
Q 20.953125 3.328125 18.109375 8.203125 
z
M 48.6875 27.296875 
Q 48.6875 37.203125 44.609375 42.84375 
Q 40.53125 48.484375 33.40625 48.484375 
Q 26.265625 48.484375 22.1875 42.84375 
Q 18.109375 37.203125 18.109375 27.296875 
Q 18.109375 17.390625 22.1875 11.75 
Q 26.265625 6.109375 33.40625 6.109375 
Q 40.53125 6.109375 44.609375 11.75 
Q 48.6875 17.390625 48.6875 27.296875 
z
" id="DejaVuSans-112"/>
    </defs>
    <g transform="translate(334.747055 80.530598)scale(0.1 -0.1)">
     <use xlink:href="#DejaVuSans-105"/>
     <use x="27.783203" xlink:href="#DejaVuSans-102"/>
     <use x="62.988281" xlink:href="#DejaVuSans-32"/>
     <use x="94.775391" xlink:href="#DejaVuSans-97"/>
     <use x="156.054688" xlink:href="#DejaVuSans-32"/>
     <use x="187.841797" xlink:href="#DejaVuSans-114"/>
     <use x="228.955078" xlink:href="#DejaVuSans-97"/>
     <use x="290.234375" xlink:href="#DejaVuSans-112"/>
     <use x="353.710938" xlink:href="#DejaVuSans-105"/>
     <use x="381.494141" xlink:href="#DejaVuSans-100"/>
     <use x="444.970703" xlink:href="#DejaVuSans-108"/>
     <use x="472.753906" xlink:href="#DejaVuSans-121"/>
     <use x="531.933594" xlink:href="#DejaVuSans-32"/>
     <use x="563.720703" xlink:href="#DejaVuSans-100"/>
     <use x="627.197266" xlink:href="#DejaVuSans-101"/>
     <use x="688.720703" xlink:href="#DejaVuSans-99"/>
     <use x="743.701172" xlink:href="#DejaVuSans-114"/>
     <use x="784.783203" xlink:href="#DejaVuSans-101"/>
     <use x="846.306641" xlink:href="#DejaVuSans-97"/>
     <use x="907.585938" xlink:href="#DejaVuSans-115"/>
     <use x="959.685547" xlink:href="#DejaVuSans-105"/>
     <use x="987.46875" xlink:href="#DejaVuSans-110"/>
     <use x="1050.847656" xlink:href="#DejaVuSans-103"/>
     <use x="1114.324219" xlink:href="#DejaVuSans-32"/>
     <use x="1146.111328" xlink:href="#DejaVuSans-116"/>
     <use x="1185.320312" xlink:href="#DejaVuSans-114"/>
     <use x="1226.402344" xlink:href="#DejaVuSans-101"/>
     <use x="1287.925781" xlink:href="#DejaVuSans-110"/>
     <use x="1351.304688" xlink:href="#DejaVuSans-100"/>
     <use x="1414.78125" xlink:href="#DejaVuSans-32"/>
     <use x="1446.568359" xlink:href="#DejaVuSans-105"/>
     <use x="1474.351562" xlink:href="#DejaVuSans-115"/>
     <use x="1526.451172" xlink:href="#DejaVuSans-32"/>
     <use x="1558.238281" xlink:href="#DejaVuSans-100"/>
     <use x="1621.714844" xlink:href="#DejaVuSans-101"/>
     <use x="1683.238281" xlink:href="#DejaVuSans-116"/>
     <use x="1722.447266" xlink:href="#DejaVuSans-101"/>
     <use x="1783.970703" xlink:href="#DejaVuSans-99"/>
     <use x="1838.951172" xlink:href="#DejaVuSans-116"/>
     <use x="1878.160156" xlink:href="#DejaVuSans-101"/>
     <use x="1939.683594" xlink:href="#DejaVuSans-100"/>
    </g>
    <!-- $\rightarrow$ add work days -->
    <g transform="translate(446.565805 91.730286)scale(0.1 -0.1)">
     <use transform="translate(19.482422 0.015625)" xlink:href="#DejaVuSans-8594"/>
     <use transform="translate(122.753906 0.015625)" xlink:href="#DejaVuSans-32"/>
     <use transform="translate(154.541016 0.015625)" xlink:href="#DejaVuSans-97"/>
     <use transform="translate(215.820312 0.015625)" xlink:href="#DejaVuSans-100"/>
     <use transform="translate(279.296875 0.015625)" xlink:href="#DejaVuSans-100"/>
     <use transform="translate(342.773438 0.015625)" xlink:href="#DejaVuSans-32"/>
     <use transform="translate(374.560547 0.015625)" xlink:href="#DejaVuSans-119"/>
     <use transform="translate(456.347656 0.015625)" xlink:href="#DejaVuSans-111"/>
     <use transform="translate(517.529297 0.015625)" xlink:href="#DejaVuSans-114"/>
     <use transform="translate(558.642578 0.015625)" xlink:href="#DejaVuSans-107"/>
     <use transform="translate(616.552734 0.015625)" xlink:href="#DejaVuSans-32"/>
     <use transform="translate(648.339844 0.015625)" xlink:href="#DejaVuSans-100"/>
     <use transform="translate(711.816406 0.015625)" xlink:href="#DejaVuSans-97"/>
     <use transform="translate(773.095703 0.015625)" xlink:href="#DejaVuSans-121"/>
     <use transform="translate(832.275391 0.015625)" xlink:href="#DejaVuSans-115"/>
    </g>
   </g>
   <g id="text_40">
    <!-- B -->
    <defs>
     <path d="M 19.671875 34.8125 
L 19.671875 8.109375 
L 35.5 8.109375 
Q 43.453125 8.109375 47.28125 11.40625 
Q 51.125 14.703125 51.125 21.484375 
Q 51.125 28.328125 47.28125 31.5625 
Q 43.453125 34.8125 35.5 34.8125 
z
M 19.671875 64.796875 
L 19.671875 42.828125 
L 34.28125 42.828125 
Q 41.5 42.828125 45.03125 45.53125 
Q 48.578125 48.25 48.578125 53.8125 
Q 48.578125 59.328125 45.03125 62.0625 
Q 41.5 64.796875 34.28125 64.796875 
z
M 9.8125 72.90625 
L 35.015625 72.90625 
Q 46.296875 72.90625 52.390625 68.21875 
Q 58.5 63.53125 58.5 54.890625 
Q 58.5 48.1875 55.375 44.234375 
Q 52.25 40.28125 46.1875 39.3125 
Q 53.46875 37.75 57.5 32.78125 
Q 61.53125 27.828125 61.53125 20.40625 
Q 61.53125 10.640625 54.890625 5.3125 
Q 48.25 0 35.984375 0 
L 9.8125 0 
z
" id="DejaVuSans-66"/>
    </defs>
    <g transform="translate(292.82602 28.617905)scale(0.16 -0.16)">
     <use xlink:href="#DejaVuSans-66"/>
    </g>
   </g>
  </g>
 </g>
 <defs>
  <clipPath id="p7f4fa5adb1">
   <rect height="189.337143" width="234.757792" x="34.955844" y="53.862857"/>
  </clipPath>
  <clipPath id="p90eb7dc142">
   <rect height="189.337143" width="234.757792" x="320.773377" y="53.862857"/>
  </clipPath>
 </defs>
</svg>
